<svg width="1024" height="1024" viewBox="0 0 1024 1024" fill="none" xmlns="http://www.w3.org/2000/svg">
<rect width="1024" height="1024" fill="white"/>
<mask id="mask0_12558_27937" style="mask-type:luminance" maskUnits="userSpaceOnUse" x="488" y="152" width="113" height="309">
<path d="M503.18 152.999C502.408 152.999 502.022 153.387 501.25 154.163C491.211 198.764 485.419 243.753 489.28 289.906C495.844 364.371 531.753 419.444 594.305 458.228C596.235 459.391 598.552 459.779 600.869 460.555C600.869 457.84 600.096 456.676 598.938 455.901C537.545 389.193 508.2 309.686 504.339 220.095C503.18 198.376 505.111 176.27 505.497 154.163C504.725 153.387 503.953 152.999 503.18 152.999Z" fill="white"/>
</mask>
<g mask="url(#mask0_12558_27937)">
<path d="M554.145 517.567L335.215 336.059L532.136 95.9872L751.066 277.495L554.145 517.567Z" fill="#0B0C0C"/>
</g>
<mask id="mask1_12558_27937" style="mask-type:luminance" maskUnits="userSpaceOnUse" x="241" y="492" width="304" height="99">
<path d="M241.386 493.522C241 493.909 241 494.297 241 494.685C241 495.073 241 495.461 241.386 495.849C242.545 497.788 244.475 499.727 246.406 501.278C258.375 513.689 269.573 526.876 282.701 538.511C322.471 574.192 369.192 592.42 422.863 590.481C463.405 588.93 501.631 576.131 539.085 561.393C540.629 560.618 542.174 560.618 544.491 559.842C541.402 557.515 541.016 557.127 540.629 557.127C539.471 557.127 538.313 557.127 537.154 557.515C499.315 567.986 460.702 569.538 421.318 566.435C391.201 564.108 362.628 557.127 334.827 545.88C303.552 533.857 275.365 516.404 249.495 495.461C247.95 494.297 244.861 492.746 242.931 492.746C241.772 493.134 241.386 493.134 241.386 493.522Z" fill="white"/>
</mask>
<g mask="url(#mask1_12558_27937)">
<path d="M421.319 742.126L192.35 552.473L363.788 343.429L592.757 533.469L421.319 742.126Z" fill="#0B0C0C"/>
</g>
<mask id="mask2_12558_27937" style="mask-type:luminance" maskUnits="userSpaceOnUse" x="544" y="652" width="105" height="219">
<path d="M640.636 653.31C640.25 654.474 639.864 655.249 639.864 656.413C637.934 676.193 636.389 696.36 634.072 716.14C630.597 744.84 622.489 772.376 608.202 797.586C593.144 823.959 572.293 845.29 548.74 863.518C546.423 865.458 542.948 866.621 546.037 870.5H548.74C549.512 870.112 550.284 869.336 551.056 868.948C603.955 851.495 633.686 814.651 644.111 760.741C650.289 728.939 648.359 696.748 644.884 664.945C644.498 660.679 643.339 656.801 642.181 652.922C642.181 653.31 641.409 653.31 640.636 653.31Z" fill="white"/>
</mask>
<g mask="url(#mask2_12558_27937)">
<path d="M607.043 924.021L436.378 782.848L586.193 600.177L756.858 741.35L607.043 924.021Z" fill="#0B0C0C"/>
</g>
<mask id="mask3_12558_27937" style="mask-type:luminance" maskUnits="userSpaceOnUse" x="264" y="382" width="281" height="155">
<path d="M264.549 384.151C264.935 386.09 264.935 388.417 265.707 390.356C271.885 405.094 277.677 420.608 285.399 434.57C310.497 480.335 347.951 510.974 398.146 526.1C439.075 538.51 481.162 538.898 523.249 533.468C530.586 532.693 537.536 531.141 544.486 529.978C544.486 529.202 544.486 528.039 544.1 527.263C542.942 526.875 541.783 526.487 540.239 526.487C526.338 525.712 512.438 525.324 498.538 524.16C454.134 521.058 412.433 508.647 373.821 485.377C333.278 460.555 300.458 426.813 271.885 388.805C270.341 386.866 268.41 384.926 266.479 382.987C265.707 383.375 265.321 383.763 264.549 384.151Z" fill="white"/>
</mask>
<g mask="url(#mask3_12558_27937)">
<path d="M431.354 676.969L188.484 476.069L377.683 244.917L620.553 446.205L431.354 676.969Z" fill="#0B0C0C"/>
</g>
<mask id="mask4_12558_27937" style="mask-type:luminance" maskUnits="userSpaceOnUse" x="314" y="284" width="243" height="218">
<path d="M314.754 286.027C318.615 305.031 321.318 324.423 326.724 343.04C346.03 410.523 389.661 455.125 454.916 479.946C483.875 490.806 513.992 496.623 544.495 500.89C548.357 501.278 552.218 501.278 556.079 501.665C556.079 500.502 556.465 499.726 556.465 498.563C549.515 496.623 542.565 494.296 535.615 492.357C465.727 472.965 408.581 435.345 367.266 374.454C349.505 348.081 334.832 319.769 322.862 290.294C322.09 287.967 320.16 286.415 318.615 284.476C317.457 284.864 316.298 285.252 314.754 286.027Z" fill="white"/>
</mask>
<g mask="url(#mask4_12558_27937)">
<path d="M458.775 620.344L208.955 413.626L412.827 165.022L662.646 372.128L458.775 620.344Z" fill="#0B0C0C"/>
</g>
<mask id="mask5_12558_27937" style="mask-type:luminance" maskUnits="userSpaceOnUse" x="403" y="199" width="174" height="279">
<path d="M405.103 201.093C402.014 230.568 402.786 260.044 407.806 289.132C423.637 384.928 479.238 446.206 569.976 476.846C571.907 477.621 574.224 477.233 576.926 477.233C576.154 475.682 576.154 474.906 575.768 474.906C573.451 473.355 571.521 472.192 569.204 470.64C503.95 432.244 458.774 377.947 433.676 306.585C422.092 274.006 414.37 240.264 410.122 206.135C409.736 203.808 408.578 201.868 407.42 199.929C406.647 200.317 405.875 200.705 405.103 201.093Z" fill="white"/>
</mask>
<g mask="url(#mask5_12558_27937)">
<path d="M505.878 563.333L266.483 365.148L472.285 113.829L711.68 312.014L505.878 563.333Z" fill="#0B0C0C"/>
</g>
<mask id="mask6_12558_27937" style="mask-type:luminance" maskUnits="userSpaceOnUse" x="253" y="587" width="295" height="75">
<path d="M544.105 588.541C487.731 625.774 425.952 638.96 359.153 632.367C326.333 628.876 294.671 619.568 264.167 606.77C261.079 605.606 257.99 604.443 254.901 603.667C254.514 604.831 254.128 605.606 253.742 606.77C277.682 626.937 303.938 642.451 333.669 652.147C376.528 666.109 419.388 664.945 461.475 648.656C498.156 634.694 549.124 598.237 547.58 587.378C546.035 587.378 544.877 587.766 544.105 588.541Z" fill="white"/>
</mask>
<g mask="url(#mask6_12558_27937)">
<path d="M429.425 811.161L214.742 633.531L373.052 441.163L587.348 618.793L429.425 811.161Z" fill="#0B0C0C"/>
</g>
<mask id="mask7_12558_27937" style="mask-type:luminance" maskUnits="userSpaceOnUse" x="298" y="612" width="266" height="119">
<path d="M298.539 704.893C298.153 707.22 301.628 709.935 303.945 710.71C317.073 715.752 330.201 721.182 344.102 724.673C383.872 734.756 422.87 732.429 459.938 714.589C503.955 693.646 535.617 659.516 562.26 619.181C563.032 618.017 563.418 616.466 563.804 614.914C563.418 614.139 562.646 613.363 562.26 612.587C490.827 691.319 402.792 721.182 298.539 704.893Z" fill="white"/>
</mask>
<g mask="url(#mask7_12558_27937)">
<path d="M456.076 865.458L238.69 685.502L405.494 481.887L623.266 662.231L456.076 865.458Z" fill="#0B0C0C"/>
</g>
<mask id="mask8_12558_27937" style="mask-type:luminance" maskUnits="userSpaceOnUse" x="366" y="635" width="220" height="157">
<path d="M582.712 635.858C581.94 637.409 580.781 638.573 580.009 640.124C541.011 707.608 484.637 754.149 409.73 776.643C396.988 780.522 383.474 782.461 370.346 785.563C368.801 785.951 367.643 787.115 366.484 787.89C367.643 789.054 369.187 790.217 370.732 790.993C371.89 791.381 373.435 791.381 374.979 791.381C391.582 790.993 408.572 791.381 425.175 789.83C456.45 786.727 484.637 774.316 509.349 754.924C547.189 725.061 569.584 684.726 585.415 640.124C585.801 638.961 585.801 637.409 585.801 635.082C583.484 635.47 582.712 635.47 582.712 635.858Z" fill="white"/>
</mask>
<g mask="url(#mask8_12558_27937)">
<path d="M496.995 899.199L290.035 727.775L455.294 526.487L662.255 697.911L496.995 899.199Z" fill="#0B0C0C"/>
</g>
<mask id="mask9_12558_27937" style="mask-type:luminance" maskUnits="userSpaceOnUse" x="451" y="647" width="164" height="200">
<path d="M608.6 654.087C602.808 671.54 597.788 688.993 590.452 706.057C572.69 746.78 546.434 781.298 511.297 808.059C493.922 821.245 475.002 832.493 454.924 841.025C453.379 841.801 452.221 843.74 451.063 845.291C452.993 845.679 454.924 846.843 456.468 846.455C464.191 844.903 471.527 843.74 478.863 841.801C531.376 828.226 570.76 799.139 592.383 747.944C605.511 717.305 610.53 684.726 614.005 651.76C614.005 650.984 613.233 649.821 611.689 647.494C609.758 650.984 608.986 652.536 608.6 654.087Z" fill="white"/>
</mask>
<g mask="url(#mask9_12558_27937)">
<path d="M547.585 927.125L353.367 766.172L516.696 567.211L710.914 728.164L547.585 927.125Z" fill="#0B0C0C"/>
</g>
<mask id="mask10_12558_27937" style="mask-type:luminance" maskUnits="userSpaceOnUse" x="645" y="648" width="56" height="212">
<path d="M670.365 654.086C673.068 669.212 676.543 684.338 677.702 699.851C679.246 721.182 680.791 742.901 679.246 764.232C676.929 796.423 664.96 825.511 647.198 852.271C646.04 854.211 646.04 856.538 645.268 858.477C646.04 858.865 646.812 858.865 647.584 859.253C676.543 836.758 695.463 808.058 699.711 770.438C704.73 728.163 692.76 689.38 673.84 652.147C673.068 650.984 671.91 650.208 669.979 648.269C670.752 651.371 670.365 652.923 670.365 654.086Z" fill="white"/>
</mask>
<g mask="url(#mask10_12558_27937)">
<path d="M681.177 888.728L542.946 773.928L669.979 619.181L808.597 733.981L681.177 888.728Z" fill="#0B0C0C"/>
</g>
<mask id="mask11_12558_27937" style="mask-type:luminance" maskUnits="userSpaceOnUse" x="697" y="636" width="57" height="181">
<path d="M697.006 637.797C731.757 692.095 739.865 751.822 732.529 814.651C733.301 815.427 733.687 815.815 734.46 816.591C736.004 815.039 738.707 813.488 739.479 811.549C752.993 784.4 756.468 755.7 751.063 725.836C744.885 692.482 730.984 663.782 705.887 640.512C703.956 638.573 701.253 637.409 698.936 636.246C698.164 636.634 697.778 637.022 697.006 637.797Z" fill="white"/>
</mask>
<g mask="url(#mask11_12558_27937)">
<path d="M732.53 846.067L608.971 743.677L720.946 606.771L844.505 709.16L732.53 846.067Z" fill="#0B0C0C"/>
</g>
</svg>
