<svg width="34" height="35" viewBox="0 0 34 35" fill="none" xmlns="http://www.w3.org/2000/svg">
<path opacity="0.16" d="M12.75 22.5312H21.2499H12.75ZM12.75 22.5312C12.75 22.5312 12.75 22.5312 12.75 22.5312M12.75 22.5312H12.75M16.9995 30.0312L17.0005 30.0312C18.768 30.033 20.5149 29.6514 22.1206 28.9126C23.6418 28.2128 25.0021 27.2082 26.1178 25.9622C25.7755 25.0037 25.157 24.1655 24.3376 23.5551C23.4454 22.8904 22.3625 22.5314 21.25 22.5312L16.9995 30.0312ZM16.9995 30.0312C15.232 30.033 13.4851 29.6514 11.8793 28.9126C10.3581 28.2128 8.99784 27.2082 7.88217 25.9622C8.22444 25.0037 8.84293 24.1655 9.66237 23.5551C10.5546 22.8904 11.6374 22.5314 12.75 22.5312M16.9995 30.0312L12.75 22.5312" fill="url(#paint0_radial_5220_60263)" stroke="url(#paint1_radial_5220_60263)"/>
<path d="M29.75 17.7813C29.7542 20.3125 29.0013 22.7872 27.5882 24.8873C26.4228 26.6254 24.847 28.0497 23.0003 29.0341C21.1536 30.0185 19.0927 30.5327 17 30.5313C14.9073 30.5327 12.8465 30.0185 10.9997 29.0341C9.15298 28.0497 7.57725 26.6254 6.41183 24.8873C5.3022 23.2332 4.59553 21.3421 4.34847 19.3657C4.10141 17.3893 4.32083 15.3825 4.98914 13.5062C5.65746 11.6298 6.75608 9.93617 8.19693 8.56096C9.63778 7.18575 11.3808 6.16723 13.2862 5.58707C15.1916 5.0069 17.2065 4.88122 19.1693 5.2201C21.132 5.55898 22.9881 6.353 24.5887 7.5385C26.1892 8.72399 27.4898 10.268 28.3861 12.0467C29.2824 13.8255 29.7495 15.7895 29.75 17.7813Z" stroke="url(#paint2_radial_5220_60263)" stroke-width="3"/>
<path d="M18.4167 13.5312C18.4167 13.907 18.2674 14.2673 18.0018 14.533C17.7361 14.7987 17.3757 14.9479 17 14.9479V17.7812C18.1272 17.7812 19.2082 17.3335 20.0052 16.5365C20.8023 15.7394 21.25 14.6584 21.25 13.5312H18.4167ZM17 14.9479C16.6243 14.9479 16.264 14.7987 15.9983 14.533C15.7326 14.2673 15.5834 13.907 15.5834 13.5312H12.75C12.75 14.6584 13.1978 15.7394 13.9948 16.5365C14.7918 17.3335 15.8729 17.7812 17 17.7812V14.9479ZM15.5834 13.5312C15.5834 13.1555 15.7326 12.7952 15.9983 12.5295C16.264 12.2638 16.6243 12.1146 17 12.1146V9.28125C15.8729 9.28125 14.7918 9.72902 13.9948 10.526C13.1978 11.3231 12.75 12.4041 12.75 13.5312H15.5834ZM17 12.1146C17.3757 12.1146 17.7361 12.2638 18.0018 12.5295C18.2674 12.7952 18.4167 13.1555 18.4167 13.5312H21.25C21.25 12.4041 20.8023 11.3231 20.0052 10.526C19.2082 9.72902 18.1272 9.28125 17 9.28125V12.1146ZM7.31852 26.0773L5.95994 25.6735L5.74036 26.4144L6.24327 26.9995L7.31852 26.0773ZM26.6815 26.0773L27.7582 26.9995L28.2597 26.4144L28.0401 25.6735L26.6815 26.0773ZM12.75 23.4479H21.25V20.6146H12.75V23.4479ZM12.75 20.6146C11.2245 20.6146 9.73963 21.1069 8.51628 22.0183C7.29292 22.9298 6.39638 24.2117 5.95994 25.6735L8.67569 26.481C8.93813 25.6044 9.47632 24.8358 10.2103 24.2894C10.9443 23.743 11.835 23.4479 12.75 23.4479V20.6146ZM17 29.1146C15.3645 29.1164 13.748 28.7634 12.2621 28.0798C10.7763 27.3961 9.45648 26.3983 8.39377 25.155L6.24327 26.9995C7.57194 28.5529 9.22165 29.7997 11.0787 30.654C12.9357 31.5083 14.9559 31.9497 17 31.9479V29.1146ZM21.25 23.4479C23.1724 23.4479 24.8002 24.7257 25.3244 26.4824L28.0401 25.6735C27.6037 24.2119 26.706 22.9302 25.4829 22.0188C24.2599 21.1073 22.7753 20.6149 21.25 20.6146V23.4479ZM25.6063 25.155C24.5436 26.3983 23.2238 27.3961 21.7379 28.0798C20.2521 28.7634 18.6356 29.1164 17 29.1146V31.9479C19.0441 31.9497 21.0643 31.5083 22.9214 30.654C24.7784 29.7997 26.4295 28.5529 27.7582 26.9995L25.6063 25.155Z" fill="url(#paint3_radial_5220_60263)"/>
<defs>
<radialGradient id="paint0_radial_5220_60263" cx="0" cy="0" r="1" gradientUnits="userSpaceOnUse" gradientTransform="translate(7.31848 22.0312) rotate(22.686) scale(22.039 122.638)">
<stop stop-color="#832C91"/>
<stop offset="0.524427" stop-color="#AB000F"/>
<stop offset="1" stop-color="#A65C2E"/>
</radialGradient>
<radialGradient id="paint1_radial_5220_60263" cx="0" cy="0" r="1" gradientUnits="userSpaceOnUse" gradientTransform="translate(7.31848 22.0312) rotate(22.686) scale(22.039 122.638)">
<stop stop-color="#832C91"/>
<stop offset="0.524427" stop-color="#AB000F"/>
<stop offset="1" stop-color="#A65C2E"/>
</radialGradient>
<radialGradient id="paint2_radial_5220_60263" cx="0" cy="0" r="1" gradientUnits="userSpaceOnUse" gradientTransform="translate(4.25 5.03421) rotate(43.5957) scale(36.9755 288.763)">
<stop stop-color="#832C91"/>
<stop offset="0.524427" stop-color="#AB000F"/>
<stop offset="1" stop-color="#A65C2E"/>
</radialGradient>
<radialGradient id="paint3_radial_5220_60263" cx="0" cy="0" r="1" gradientUnits="userSpaceOnUse" gradientTransform="translate(5.74036 9.28125) rotate(43.7857) scale(32.7571 255.896)">
<stop stop-color="#832C91"/>
<stop offset="0.524427" stop-color="#AB000F"/>
<stop offset="1" stop-color="#A65C2E"/>
</radialGradient>
</defs>
</svg>
