<svg width="399" height="207" viewBox="0 0 399 207" fill="none" xmlns="http://www.w3.org/2000/svg">
<path d="M52.4857 42.9688H10.8921C5.70499 42.9688 1.5 47.1737 1.5 52.3608V154.332C1.5 159.519 5.70499 163.724 10.8921 163.724H52.4857C57.6728 163.724 61.8778 159.519 61.8778 154.332V52.3608C61.8778 47.1737 57.6728 42.9688 52.4857 42.9688Z" stroke="#1D70B8" stroke-width="3"/>
<path d="M51.3422 52.6758H12.035C9.78928 52.6758 7.96875 54.4908 7.96875 56.7297V149.97C7.96875 152.209 9.78928 154.024 12.035 154.024H51.3422C53.5879 154.024 55.4085 152.209 55.4085 149.97V56.7297C55.4085 54.4908 53.5879 52.6758 51.3422 52.6758Z" fill="#F4F8FB" stroke="#1D70B8" stroke-width="3"/>
<path d="M32.7676 49.4376C33.3631 49.4376 33.8458 48.9549 33.8458 48.3594C33.8458 47.764 33.3631 47.2812 32.7676 47.2812C32.1722 47.2812 31.6895 47.764 31.6895 48.3594C31.6895 48.9549 32.1722 49.4376 32.7676 49.4376Z" fill="#1D70B8"/>
<path d="M366.311 2H103.237C98.4731 2 94.6113 5.86172 94.6113 10.6254V176.664C94.6113 181.428 98.4731 185.29 103.237 185.29H366.311C371.075 185.29 374.937 181.428 374.937 176.664V10.6254C374.937 5.86172 371.075 2 366.311 2Z" stroke="#1D70B8" stroke-width="4"/>
<path d="M359.842 12.7812H109.705C107.323 12.7812 105.393 14.7121 105.393 17.0939V159.413C105.393 161.795 107.323 163.726 109.705 163.726H359.842C362.224 163.726 364.155 161.795 364.155 159.413V17.0939C364.155 14.7121 362.224 12.7812 359.842 12.7812Z" fill="#F4F8FB" stroke="#1D70B8" stroke-width="4"/>
<path d="M393.265 185.293H76.2814C74.495 185.293 73.0469 186.741 73.0469 188.527V201.466C73.0469 203.252 74.495 204.7 76.2814 204.7H393.265C395.051 204.7 396.499 203.252 396.499 201.466V188.527C396.499 186.741 395.051 185.293 393.265 185.293Z" stroke="#1D70B8" stroke-width="4"/>
<mask id="mask0_25834_32918" style="mask-type:luminance" maskUnits="userSpaceOnUse" x="233" y="29" width="19" height="50">
<path d="M235.726 29.125C235.602 29.125 235.541 29.187 235.417 29.3111C233.812 36.4445 232.886 43.64 233.503 51.0216C234.553 62.9313 240.294 71.7396 250.295 77.9426C250.604 78.1287 250.974 78.1907 251.345 78.3148C251.345 77.8806 251.221 77.6945 251.036 77.5704C241.22 66.9012 236.528 54.1851 235.911 39.8562C235.726 36.3825 236.034 32.8468 236.096 29.3111C235.973 29.187 235.849 29.125 235.726 29.125Z" fill="white"/>
</mask>
<g mask="url(#mask0_25834_32918)">
<path d="M243.877 87.4344L208.873 58.4044L240.358 20.0078L275.361 49.0378L243.877 87.4344Z" fill="#1D70B8"/>
</g>
<mask id="mask1_25834_32918" style="mask-type:luminance" maskUnits="userSpaceOnUse" x="193" y="83" width="50" height="17">
<path d="M193.866 83.585C193.805 83.647 193.805 83.7091 193.805 83.7711C193.805 83.8331 193.805 83.8951 193.866 83.9572C194.052 84.2673 194.36 84.5775 194.669 84.8256C196.583 86.8106 198.373 88.9196 200.472 90.7805C206.831 96.4872 214.301 99.4026 222.882 99.0925C229.364 98.8444 235.476 96.7974 241.464 94.4402C241.711 94.3162 241.958 94.3162 242.328 94.1921C241.834 93.8199 241.772 93.7579 241.711 93.7579C241.526 93.7579 241.34 93.7579 241.155 93.8199C235.105 95.4948 228.932 95.7429 222.635 95.2466C217.819 94.8745 213.251 93.7579 208.806 91.959C203.806 90.0361 199.299 87.2448 195.163 83.8952C194.916 83.7091 194.422 83.4609 194.113 83.4609C193.928 83.523 193.866 83.523 193.866 83.585Z" fill="white"/>
</mask>
<g mask="url(#mask1_25834_32918)">
<path d="M222.638 123.349L186.029 93.0162L213.439 59.582L250.048 89.9767L222.638 123.349Z" fill="#1D70B8"/>
</g>
<mask id="mask2_25834_32918" style="mask-type:luminance" maskUnits="userSpaceOnUse" x="242" y="109" width="17" height="35">
<path d="M257.703 109.144C257.641 109.33 257.579 109.454 257.579 109.64C257.271 112.804 257.024 116.029 256.653 119.193C256.098 123.783 254.801 128.187 252.517 132.219C250.11 136.437 246.776 139.849 243.01 142.764C242.64 143.074 242.084 143.261 242.578 143.881H243.01C243.134 143.819 243.257 143.695 243.38 143.633C251.838 140.841 256.592 134.949 258.259 126.326C259.246 121.24 258.938 116.091 258.382 111.005C258.32 110.323 258.135 109.702 257.95 109.082C257.95 109.144 257.826 109.144 257.703 109.144Z" fill="white"/>
</mask>
<g mask="url(#mask2_25834_32918)">
<path d="M252.334 152.44L225.047 129.861L249 100.645L276.287 123.223L252.334 152.44Z" fill="#1D70B8"/>
</g>
<mask id="mask3_25834_32918" style="mask-type:luminance" maskUnits="userSpaceOnUse" x="197" y="65" width="46" height="26">
<path d="M197.568 66.1002C197.63 66.4103 197.63 66.7825 197.754 67.0926C198.741 69.4498 199.667 71.931 200.902 74.164C204.915 81.4836 210.903 86.3839 218.929 88.8031C225.472 90.7881 232.201 90.8501 238.931 89.9817C240.103 89.8576 241.215 89.6095 242.326 89.4234C242.326 89.2994 242.326 89.1133 242.264 88.9892C242.079 88.9272 241.894 88.8652 241.647 88.8652C239.424 88.7411 237.202 88.6791 234.98 88.493C227.88 87.9967 221.213 86.0118 215.039 82.29C208.557 78.3201 203.31 72.9234 198.741 66.8445C198.494 66.5344 198.186 66.2242 197.877 65.9141C197.754 65.9761 197.692 66.0381 197.568 66.1002Z" fill="white"/>
</mask>
<g mask="url(#mask3_25834_32918)">
<path d="M224.237 112.933L185.406 80.8019L215.656 43.832L254.487 76.0256L224.237 112.933Z" fill="#1D70B8"/>
</g>
<mask id="mask4_25834_32918" style="mask-type:luminance" maskUnits="userSpaceOnUse" x="205" y="50" width="40" height="35">
<path d="M205.598 50.4005C206.215 53.4399 206.647 56.5414 207.511 59.5189C210.598 70.3121 217.574 77.4455 228.007 81.4155C232.637 83.1523 237.453 84.0827 242.33 84.7651C242.947 84.8271 243.564 84.8271 244.182 84.8891C244.182 84.703 244.244 84.579 244.244 84.3929C243.132 84.0827 242.021 83.7106 240.91 83.4004C229.736 80.2989 220.599 74.282 213.994 64.5433C211.154 60.3253 208.808 55.7971 206.894 51.0828C206.771 50.7106 206.462 50.4625 206.215 50.1523C206.03 50.2144 205.845 50.2764 205.598 50.4005Z" fill="white"/>
</mask>
<g mask="url(#mask4_25834_32918)">
<path d="M228.624 103.87L188.682 70.8081L221.278 31.0469L261.22 64.1709L228.624 103.87Z" fill="#1D70B8"/>
</g>
<mask id="mask5_25834_32918" style="mask-type:luminance" maskUnits="userSpaceOnUse" x="219" y="36" width="29" height="45">
<path d="M220.044 36.8189C219.551 41.5332 219.674 46.2475 220.477 50.8997C223.008 66.2211 231.897 76.0218 246.405 80.9222C246.714 81.0463 247.084 80.9842 247.516 80.9842C247.393 80.7361 247.393 80.6121 247.331 80.6121C246.961 80.3639 246.652 80.1779 246.282 79.9297C235.848 73.7888 228.626 65.1046 224.613 53.6911C222.761 48.4805 221.526 43.0839 220.847 37.6253C220.785 37.2531 220.6 36.943 220.415 36.6328C220.291 36.6948 220.168 36.7569 220.044 36.8189Z" fill="white"/>
</mask>
<g mask="url(#mask5_25834_32918)">
<path d="M236.156 94.756L197.881 63.0587L230.785 22.8633L269.061 54.5606L236.156 94.756Z" fill="#1D70B8"/>
</g>
<mask id="mask6_25834_32918" style="mask-type:luminance" maskUnits="userSpaceOnUse" x="195" y="98" width="48" height="13">
<path d="M242.266 98.7837C233.253 104.739 223.375 106.848 212.695 105.793C207.448 105.235 202.386 103.746 197.509 101.699C197.015 101.513 196.521 101.327 196.027 101.203C195.965 101.389 195.904 101.513 195.842 101.699C199.669 104.925 203.867 107.406 208.621 108.957C215.473 111.19 222.326 111.004 229.055 108.398C234.92 106.165 243.069 100.334 242.822 98.5977C242.575 98.5977 242.39 98.6597 242.266 98.7837Z" fill="white"/>
</mask>
<g mask="url(#mask6_25834_32918)">
<path d="M223.932 134.388L189.607 105.978L214.919 75.2109L249.181 103.621L223.932 134.388Z" fill="#1D70B8"/>
</g>
<mask id="mask7_25834_32918" style="mask-type:luminance" maskUnits="userSpaceOnUse" x="203" y="102" width="43" height="20">
<path d="M203.009 117.396C202.947 117.768 203.503 118.202 203.873 118.326C205.972 119.133 208.071 120.001 210.293 120.559C216.652 122.172 222.887 121.8 228.814 118.947C235.851 115.597 240.914 110.138 245.173 103.687C245.297 103.501 245.359 103.253 245.42 103.005C245.359 102.881 245.235 102.757 245.173 102.633C233.752 115.225 219.677 120.001 203.009 117.396Z" fill="white"/>
</mask>
<g mask="url(#mask7_25834_32918)">
<path d="M228.194 143.074L193.438 114.292L220.107 81.7266L254.925 110.57L228.194 143.074Z" fill="#1D70B8"/>
</g>
<mask id="mask8_25834_32918" style="mask-type:luminance" maskUnits="userSpaceOnUse" x="213" y="106" width="36" height="26">
<path d="M248.441 106.351C248.317 106.599 248.132 106.785 248.008 107.033C241.773 117.826 232.76 125.27 220.783 128.868C218.746 129.488 216.585 129.798 214.486 130.294C214.24 130.356 214.054 130.542 213.869 130.666C214.054 130.852 214.301 131.039 214.548 131.163C214.733 131.225 214.98 131.225 215.227 131.225C217.882 131.163 220.598 131.225 223.253 130.977C228.253 130.48 232.76 128.495 236.711 125.394C242.761 120.618 246.342 114.166 248.873 107.033C248.934 106.847 248.934 106.599 248.934 106.227C248.564 106.289 248.441 106.289 248.441 106.351Z" fill="white"/>
</mask>
<g mask="url(#mask8_25834_32918)">
<path d="M234.736 148.47L201.646 121.053L228.069 88.8594L261.159 116.277L234.736 148.47Z" fill="#1D70B8"/>
</g>
<mask id="mask9_25834_32918" style="mask-type:luminance" maskUnits="userSpaceOnUse" x="227" y="108" width="27" height="33">
<path d="M252.578 109.269C251.652 112.061 250.85 114.852 249.677 117.581C246.837 124.095 242.639 129.615 237.021 133.895C234.243 136.004 231.218 137.803 228.008 139.168C227.761 139.292 227.576 139.602 227.391 139.85C227.699 139.912 228.008 140.098 228.255 140.036C229.49 139.788 230.663 139.602 231.836 139.292C240.231 137.121 246.528 132.469 249.985 124.281C252.084 119.38 252.887 114.17 253.443 108.897C253.443 108.773 253.319 108.587 253.072 108.215C252.764 108.773 252.64 109.021 252.578 109.269Z" fill="white"/>
</mask>
<g mask="url(#mask9_25834_32918)">
<path d="M242.822 152.939L211.77 127.196L237.883 95.375L268.936 121.117L242.822 152.939Z" fill="#1D70B8"/>
</g>
<mask id="mask10_25834_32918" style="mask-type:luminance" maskUnits="userSpaceOnUse" x="258" y="108" width="10" height="35">
<path d="M262.452 109.266C262.884 111.686 263.44 114.105 263.625 116.586C263.872 119.998 264.119 123.471 263.872 126.883C263.502 132.031 261.588 136.684 258.748 140.964C258.563 141.274 258.563 141.646 258.439 141.956C258.563 142.018 258.686 142.018 258.81 142.08C263.44 138.483 266.465 133.892 267.144 127.875C267.947 121.114 266.033 114.911 263.008 108.956C262.884 108.77 262.699 108.646 262.39 108.336C262.514 108.832 262.452 109.08 262.452 109.266Z" fill="white"/>
</mask>
<g mask="url(#mask10_25834_32918)">
<path d="M264.183 146.794L242.082 128.434L262.393 103.684L284.555 122.044L264.183 146.794Z" fill="#1D70B8"/>
</g>
<mask id="mask11_25834_32918" style="mask-type:luminance" maskUnits="userSpaceOnUse" x="266" y="106" width="10" height="30">
<path d="M266.713 106.662C272.269 115.346 273.565 124.899 272.392 134.948C272.516 135.072 272.578 135.134 272.701 135.258C272.948 135.01 273.38 134.762 273.504 134.452C275.664 130.11 276.22 125.519 275.356 120.743C274.368 115.408 272.146 110.818 268.133 107.096C267.824 106.786 267.392 106.6 267.022 106.414C266.898 106.476 266.836 106.538 266.713 106.662Z" fill="white"/>
</mask>
<g mask="url(#mask11_25834_32918)">
<path d="M272.394 139.976L252.639 123.6L270.542 101.703L290.297 118.079L272.394 139.976Z" fill="#1D70B8"/>
</g>
<mask id="mask12_25834_32918" style="mask-type:luminance" maskUnits="userSpaceOnUse" x="31" y="79" width="8" height="21">
<path d="M32.2339 79.125C32.1836 79.125 32.1584 79.1503 32.1081 79.2008C31.4543 82.1067 31.077 85.038 31.3285 88.045C31.7561 92.8966 34.0949 96.4848 38.169 99.0117C38.2947 99.0875 38.4456 99.1128 38.5965 99.1634C38.5965 98.9865 38.5462 98.9107 38.4708 98.8601C34.4721 94.5139 32.5608 89.3337 32.3093 83.4965C32.2339 82.0815 32.3596 80.6411 32.3848 79.2008C32.3345 79.1503 32.2842 79.125 32.2339 79.125Z" fill="white"/>
</mask>
<g mask="url(#mask12_25834_32918)">
<path d="M35.5542 102.878L21.2949 91.0517L34.1208 75.4102L48.3801 87.2361L35.5542 102.878Z" fill="#1D70B8"/>
</g>
<mask id="mask13_25834_32918" style="mask-type:luminance" maskUnits="userSpaceOnUse" x="15" y="101" width="20" height="7">
<path d="M15.1814 101.308C15.1562 101.334 15.1562 101.359 15.1562 101.384C15.1562 101.409 15.1562 101.435 15.1814 101.46C15.2568 101.586 15.3826 101.713 15.5083 101.814C16.2879 102.622 17.0173 103.481 17.8723 104.24C20.4626 106.564 23.5056 107.752 27.0013 107.626C29.6419 107.525 32.1316 106.691 34.5711 105.73C34.6717 105.68 34.7723 105.68 34.9232 105.629C34.722 105.478 34.6968 105.452 34.6717 105.452C34.5962 105.452 34.5208 105.452 34.4453 105.478C31.9807 106.16 29.4659 106.261 26.9007 106.059C24.9391 105.907 23.0781 105.452 21.2674 104.72C19.2303 103.936 17.3945 102.799 15.7095 101.435C15.6089 101.359 15.4077 101.258 15.282 101.258C15.2065 101.283 15.1814 101.283 15.1814 101.308Z" fill="white"/>
</mask>
<g mask="url(#mask13_25834_32918)">
<path d="M26.9015 117.508L11.9883 105.151L23.1543 91.5312L38.0675 103.913L26.9015 117.508Z" fill="#1D70B8"/>
</g>
<mask id="mask14_25834_32918" style="mask-type:luminance" maskUnits="userSpaceOnUse" x="34" y="111" width="8" height="15">
<path d="M41.1862 111.721C41.1611 111.796 41.1359 111.847 41.1359 111.923C41.0102 113.211 40.9096 114.525 40.7587 115.814C40.5324 117.684 40.0043 119.478 39.0737 121.121C38.0929 122.839 36.7349 124.229 35.2008 125.416C35.05 125.543 34.8236 125.619 35.0248 125.871H35.2008C35.2511 125.846 35.3014 125.795 35.3517 125.77C38.7971 124.633 40.7336 122.233 41.4126 118.72C41.815 116.648 41.6892 114.551 41.4629 112.479C41.4377 112.201 41.3623 111.948 41.2868 111.695C41.2868 111.721 41.2365 111.721 41.1862 111.721Z" fill="white"/>
</mask>
<g mask="url(#mask14_25834_32918)">
<path d="M38.9986 129.357L27.8828 120.16L37.6405 108.258L48.7563 117.456L38.9986 129.357Z" fill="#1D70B8"/>
</g>
<mask id="mask15_25834_32918" style="mask-type:luminance" maskUnits="userSpaceOnUse" x="16" y="94" width="19" height="11">
<path d="M16.6895 94.1852C16.7146 94.3115 16.7146 94.4631 16.7649 94.5895C17.1673 95.5497 17.5445 96.5605 18.0475 97.4702C19.6822 100.452 22.1216 102.448 25.3909 103.434C28.0567 104.242 30.7979 104.268 33.5391 103.914C34.0169 103.863 34.4696 103.762 34.9223 103.686C34.9223 103.636 34.9223 103.56 34.8971 103.509C34.8217 103.484 34.7462 103.459 34.6456 103.459C33.7403 103.408 32.8349 103.383 31.9296 103.307C29.0375 103.105 26.3214 102.297 23.8065 100.78C21.1659 99.1632 19.0283 96.9648 17.1673 94.4884C17.0667 94.3621 16.9409 94.2357 16.8152 94.1094C16.7649 94.1346 16.7398 94.1599 16.6895 94.1852Z" fill="white"/>
</mask>
<g mask="url(#mask15_25834_32918)">
<path d="M27.5529 113.263L11.7344 100.174L24.0573 85.1133L39.8758 98.2279L27.5529 113.263Z" fill="#1D70B8"/>
</g>
<mask id="mask16_25834_32918" style="mask-type:luminance" maskUnits="userSpaceOnUse" x="19" y="87" width="17" height="15">
<path d="M19.9609 87.7925C20.2124 89.0307 20.3885 90.2941 20.7405 91.507C21.998 95.9038 24.8398 98.8098 29.0899 100.427C30.9761 101.135 32.9377 101.514 34.9244 101.792C35.1759 101.817 35.4274 101.817 35.6789 101.842C35.6789 101.766 35.704 101.716 35.704 101.64C35.2514 101.514 34.7987 101.362 34.346 101.236C29.7941 99.9722 26.0721 97.5211 23.3812 93.5538C22.2243 91.8355 21.2687 89.9909 20.4891 88.0704C20.4388 87.9188 20.313 87.8178 20.2124 87.6914C20.137 87.7167 20.0615 87.7419 19.9609 87.7925Z" fill="white"/>
</mask>
<g mask="url(#mask16_25834_32918)">
<path d="M29.3415 109.576L13.0703 96.1076L26.3488 79.9102L42.6201 93.4038L29.3415 109.576Z" fill="#1D70B8"/>
</g>
<mask id="mask17_25834_32918" style="mask-type:luminance" maskUnits="userSpaceOnUse" x="25" y="82" width="13" height="19">
<path d="M25.8457 82.2594C25.6445 84.1798 25.6948 86.1003 26.0218 87.9955C27.0529 94.2369 30.6743 98.2294 36.5842 100.226C36.71 100.276 36.8609 100.251 37.0369 100.251C36.9866 100.15 36.9866 100.099 36.9615 100.099C36.8106 99.9983 36.6848 99.9225 36.5339 99.8214C32.2838 97.3198 29.3414 93.7821 27.7067 89.1326C26.9523 87.01 26.4493 84.8116 26.1726 82.5879C26.1475 82.4363 26.0721 82.3099 25.9966 82.1836C25.9463 82.2089 25.896 82.2341 25.8457 82.2594Z" fill="white"/>
</mask>
<g mask="url(#mask17_25834_32918)">
<path d="M32.4086 105.861L16.8164 92.9486L30.2207 76.5742L45.8129 89.4867L32.4086 105.861Z" fill="#1D70B8"/>
</g>
<mask id="mask18_25834_32918" style="mask-type:luminance" maskUnits="userSpaceOnUse" x="15" y="107" width="21" height="6">
<path d="M34.8982 107.502C31.2265 109.927 27.2027 110.787 22.8519 110.357C20.7143 110.13 18.6521 109.523 16.6653 108.689C16.4642 108.613 16.263 108.538 16.0618 108.487C16.0366 108.563 16.0115 108.613 15.9863 108.689C17.5455 110.003 19.2557 111.014 21.1921 111.646C23.9836 112.555 26.7751 112.48 29.5163 111.418C31.9055 110.509 35.2251 108.133 35.1245 107.426C35.0239 107.426 34.9485 107.451 34.8982 107.502Z" fill="white"/>
</mask>
<g mask="url(#mask18_25834_32918)">
<path d="M27.43 122.005L13.4473 110.432L23.7582 97.8984L37.7158 109.472L27.43 122.005Z" fill="#1D70B8"/>
</g>
<mask id="mask19_25834_32918" style="mask-type:luminance" maskUnits="userSpaceOnUse" x="18" y="109" width="19" height="8">
<path d="M18.9062 115.084C18.8811 115.236 19.1074 115.413 19.2583 115.463C20.1134 115.792 20.9684 116.146 21.8738 116.373C24.4641 117.03 27.0041 116.878 29.4184 115.716C32.2854 114.352 34.3475 112.128 36.0828 109.5C36.1331 109.424 36.1583 109.323 36.1834 109.222C36.1583 109.171 36.108 109.121 36.0828 109.07C31.4303 114.2 25.6964 116.146 18.9062 115.084Z" fill="white"/>
</mask>
<g mask="url(#mask19_25834_32918)">
<path d="M29.1665 125.546L15.0078 113.821L25.8721 100.555L40.0559 112.305L29.1665 125.546Z" fill="#1D70B8"/>
</g>
<mask id="mask20_25834_32918" style="mask-type:luminance" maskUnits="userSpaceOnUse" x="23" y="110" width="15" height="11">
<path d="M37.4134 110.586C37.3631 110.687 37.2876 110.763 37.2373 110.864C34.6973 115.26 31.0256 118.293 26.1467 119.758C25.3168 120.011 24.4366 120.137 23.5816 120.34C23.481 120.365 23.4055 120.441 23.3301 120.491C23.4055 120.567 23.5061 120.643 23.6067 120.693C23.6822 120.719 23.7828 120.719 23.8834 120.719C24.9647 120.693 26.0713 120.719 27.1527 120.618C29.1897 120.415 31.0256 119.607 32.6351 118.343C35.0997 116.398 36.5583 113.77 37.5894 110.864C37.6146 110.788 37.6146 110.687 37.6146 110.535C37.4637 110.56 37.4134 110.56 37.4134 110.586Z" fill="white"/>
</mask>
<g mask="url(#mask20_25834_32918)">
<path d="M31.8313 127.744L18.3516 116.576L29.1152 103.461L42.5949 114.63L31.8313 127.744Z" fill="#1D70B8"/>
</g>
<mask id="mask21_25834_32918" style="mask-type:luminance" maskUnits="userSpaceOnUse" x="28" y="111" width="12" height="14">
<path d="M39.0986 111.773C38.7213 112.91 38.3944 114.048 37.9166 115.159C36.7597 117.813 35.0496 120.062 32.7611 121.805C31.6294 122.664 30.3971 123.397 29.0894 123.953C28.9888 124.004 28.9133 124.13 28.8379 124.231C28.9636 124.256 29.0894 124.332 29.19 124.307C29.6929 124.206 30.1708 124.13 30.6486 124.004C34.0688 123.119 36.634 121.224 38.0423 117.888C38.8974 115.892 39.2243 113.77 39.4507 111.622C39.4507 111.571 39.4004 111.495 39.2998 111.344C39.174 111.571 39.1237 111.672 39.0986 111.773Z" fill="white"/>
</mask>
<g mask="url(#mask21_25834_32918)">
<path d="M35.1244 129.563L22.4746 119.076L33.1125 106.113L45.7623 116.6L35.1244 129.563Z" fill="#1D70B8"/>
</g>
<mask id="mask22_25834_32918" style="mask-type:luminance" maskUnits="userSpaceOnUse" x="41" y="111" width="5" height="15">
<path d="M43.121 111.774C43.297 112.759 43.5234 113.745 43.5988 114.755C43.6994 116.145 43.8 117.56 43.6994 118.95C43.5485 121.047 42.7689 122.942 41.6121 124.686C41.5366 124.812 41.5366 124.964 41.4863 125.09C41.5366 125.116 41.5869 125.116 41.6372 125.141C43.5234 123.675 44.7557 121.805 45.0323 119.354C45.3592 116.6 44.5796 114.073 43.3473 111.647C43.297 111.571 43.2216 111.521 43.0958 111.395C43.1461 111.597 43.121 111.698 43.121 111.774Z" fill="white"/>
</mask>
<g mask="url(#mask22_25834_32918)">
<path d="M43.8255 127.062L34.8223 119.582L43.0962 109.5L52.1246 116.98L43.8255 127.062Z" fill="#1D70B8"/>
</g>
<mask id="mask23_25834_32918" style="mask-type:luminance" maskUnits="userSpaceOnUse" x="44" y="110" width="5" height="13">
<path d="M44.8574 110.71C47.1208 114.248 47.6489 118.14 47.1711 122.233C47.2214 122.284 47.2466 122.309 47.2968 122.359C47.3974 122.258 47.5735 122.157 47.6238 122.031C48.504 120.262 48.7303 118.392 48.3782 116.447C47.9759 114.273 47.0705 112.403 45.4358 110.887C45.3101 110.761 45.1341 110.685 44.9832 110.609C44.9329 110.635 44.9077 110.66 44.8574 110.71Z" fill="white"/>
</mask>
<g mask="url(#mask23_25834_32918)">
<path d="M47.1706 124.282L39.123 117.611L46.4162 108.691L54.4638 115.362L47.1706 124.282Z" fill="#1D70B8"/>
</g>
</svg>
