<svg xmlns="http://www.w3.org/2000/svg" style="display: none;">
  <!-- Home icons -->
  <symbol id="home" viewBox="0 -960 960 960">
    <path d="M240-200h120v-240h240v240h120v-360L480-740 240-560v360Zm-80 80v-480l320-240 320 240v480H520v-240h-80v240H160Zm320-350Z"/>
  </symbol>
  <symbol id="home-filled" viewBox="0 -960 960 960">
    <path d="M160-120v-480l320-240 320 240v480H560v-280H400v280H160Z"/>
  </symbol>

  <!-- Account icons -->
  <symbol id="account" viewBox="0 -960 960 960">
    <path d="M234-276q51-39 114-61.5T480-360q69 0 132 22.5T726-276q35-41 54.5-93T800-480q0-133-93.5-226.5T480-800q-133 0-226.5 93.5T160-480q0 59 19.5 111t54.5 93Zm246-164q-59 0-99.5-40.5T340-580q0-59 40.5-99.5T480-720q59 0 99.5 40.5T620-580q0 59-40.5 99.5T480-440Zm0 360q-83 0-156-31.5T197-197q-54-54-85.5-127T80-480q0-83 31.5-156T197-763q54-54 127-85.5T480-880q83 0 156 31.5T763-763q54 54 85.5 127T880-480q0 83-31.5 156T763-197q-54 54-127 85.5T480-80Zm0-80q53 0 100-15.5t86-44.5q-39-29-86-44.5T480-280q-53 0-100 15.5T294-220q39 29 86 44.5T480-160Zm0-360q26 0 43-17t17-43q0-26-17-43t-43-17q-26 0-43 17t-17 43q0 26 17 43t43 17Zm0-60Zm0 360Z"/>
  </symbol>
  <symbol id="account-filled" viewBox="0 -960 960 960">
    <path d="M234-276q51-39 114-61.5T480-360q69 0 132 22.5T726-276q35-41 54.5-93T800-480q0-133-93.5-226.5T480-800q-133 0-226.5 93.5T160-480q0 59 19.5 111t54.5 93Zm246-164q-59 0-99.5-40.5T340-580q0-59 40.5-99.5T480-720q59 0 99.5 40.5T620-580q0 59-40.5 99.5T480-440Zm0 360q-83 0-156-31.5T197-197q-54-54-85.5-127T80-480q0-83 31.5-156T197-763q54-54 127-85.5T480-880q83 0 156 31.5T763-763q54 54 85.5 127T880-480q0 83-31.5 156T763-197q-54 54-127 85.5T480-80Z"/>
  </symbol>

  <!-- Notifications icons -->
  <symbol id="notifications" viewBox="0 -960 960 960">
    <path d="M160-200v-80h80v-280q0-83 50-147.5T420-792v-28q0-25 17.5-42.5T480-880q25 0 42.5 17.5T540-820v28q80 20 130 84.5T720-560v280h80v80H160Zm320-300Zm0 420q-33 0-56.5-23.5T400-160h160q0 33-23.5 56.5T480-80ZM320-280h320v-280q0-66-47-113t-113-47q-66 0-113 47t-47 113v280Z"/>
  </symbol>
  <symbol id="notifications-filled" viewBox="0 -960 960 960">
    <path d="M160-200v-80h80v-280q0-83 50-147.5T420-792v-28q0-25 17.5-42.5T480-880q25 0 42.5 17.5T540-820v28q80 20 130 84.5T720-560v280h80v80H160ZM480-80q-33 0-56.5-23.5T400-160h160q0 33-23.5 56.5T480-80Z"/>
  </symbol>

  <!-- Calendar icons -->
  <symbol id="calendar" viewBox="0 -960 960 960">
    <path d="M200-80q-33 0-56.5-23.5T120-160v-560q0-33 23.5-56.5T200-800h40v-80h80v80h320v-80h80v80h40q33 0 56.5 23.5T840-720v560q0 33-23.5 56.5T760-80H200Zm0-80h560v-400H200v400Zm0-480h560v-80H200v80Zm0 0v-80 80Zm280 240q-17 0-28.5-11.5T440-440q0-17 11.5-28.5T480-480q17 0 28.5 11.5T520-440q0 17-11.5 28.5T480-400Zm-160 0q-17 0-28.5-11.5T280-440q0-17 11.5-28.5T320-480q17 0 28.5 11.5T360-440q0 17-11.5 28.5T320-400Zm320 0q-17 0-28.5-11.5T600-440q0-17 11.5-28.5T640-480q17 0 28.5 11.5T680-440q0 17-11.5 28.5T640-400ZM480-240q-17 0-28.5-11.5T440-280q0-17 11.5-28.5T480-320q17 0 28.5 11.5T520-280q0 17-11.5 28.5T480-240Zm-160 0q-17 0-28.5-11.5T280-280q0-17 11.5-28.5T320-320q17 0 28.5 11.5T360-280q0 17-11.5 28.5T320-240Zm320 0q-17 0-28.5-11.5T600-280q0-17 11.5-28.5T640-320q17 0 28.5 11.5T680-280q0 17-11.5 28.5T640-240Z"/>
  </symbol>
  <symbol id="calendar-filled" viewBox="0 -960 960 960">
    <path d="M480-400q-17 0-28.5-11.5T440-440q0-17 11.5-28.5T480-480q17 0 28.5 11.5T520-440q0 17-11.5 28.5T480-400Zm-160 0q-17 0-28.5-11.5T280-440q0-17 11.5-28.5T320-480q17 0 28.5 11.5T360-440q0 17-11.5 28.5T320-400Zm320 0q-17 0-28.5-11.5T600-440q0-17 11.5-28.5T640-480q17 0 28.5 11.5T680-440q0 17-11.5 28.5T640-400ZM480-240q-17 0-28.5-11.5T440-280q0-17 11.5-28.5T480-320q17 0 28.5 11.5T520-280q0 17-11.5 28.5T480-240Zm-160 0q-17 0-28.5-11.5T280-280q0-17 11.5-28.5T320-320q17 0 28.5 11.5T360-280q0 17-11.5 28.5T320-240Zm320 0q-17 0-28.5-11.5T600-280q0-17 11.5-28.5T640-320q17 0 28.5 11.5T680-280q0 17-11.5 28.5T640-240ZM200-80q-33 0-56.5-23.5T120-160v-560q0-33 23.5-56.5T200-800h40v-80h80v80h320v-80h80v80h40q33 0 56.5 23.5T840-720v560q0 33-23.5 56.5T760-80H200Zm0-80h560v-400H200v400Z"/>
  </symbol>

  <!-- Draw icons -->
  <symbol id="draw" viewBox="0 -960 960 960">
    <path d="M160-120v-170l527-526q12-12 27-18t30-6q16 0 30.5 6t25.5 18l56 56q12 11 18 25.5t6 30.5q0 15-6 30t-18 27L330-120H160Zm80-80h56l393-392-28-29-29-28-392 393v56Zm560-503-57-57 57 57Zm-139 82-29-28 57 57-28-29ZM560-120q74 0 137-37t63-103q0-36-19-62t-51-45l-59 59q23 10 36 22t13 26q0 23-36.5 41.5T560-200q-17 0-28.5 11.5T520-160q0 17 11.5 28.5T560-120ZM183-426l60-60q-20-8-31.5-16.5T200-520q0-12 18-24t76-37q88-38 117-69t29-70q0-55-44-87.5T280-840q-45 0-80.5 16T145-785q-11 13-9 29t15 26q13 11 29 9t27-13q14-14 31-20t42-6q41 0 60.5 12t19.5 28q0 14-17.5 25.5T262-654q-80 35-111 63.5T120-520q0 32 17 54.5t46 39.5Z"/>
  </symbol>
  <symbol id="draw-filled" viewBox="0 -960 960 960">
    <path d="M160-120v-170l527-526q12-12 27-18t30-6q16 0 30.5 6t25.5 18l56 56q12 11 18 25.5t6 30.5q0 15-6 30t-18 27L330-120H160Zm586-529 54-54-57-57-54 54 57 57ZM560-120q74 0 137-37t63-103q0-36-19-62t-51-45l-59 59q23 10 36 22t13 26q0 23-36.5 41.5T560-200q-17 0-28.5 11.5T520-160q0 17 11.5 28.5T560-120ZM183-426l60-60q-20-8-31.5-16.5T200-520q0-12 18-24t76-37q88-38 117-69t29-70q0-55-44-87.5T280-840q-45 0-80.5 16T145-785q-11 13-9 29t15 26q13 11 29 9t27-13q14-14 31-20t42-6q41 0 60.5 12t19.5 28q0 14-17.5 25.5T262-654q-80 35-111 63.5T120-520q0 32 17 54.5t46 39.5Z"/>
  </symbol>

  <!-- Head icons -->
  <symbol id="head" viewBox="0 -960 960 960">
    <path d="M309-389q29 29 71 29t71-29l160-160q29-29 29-71t-29-71q-29-29-71-29t-71 29q-37-13-73-6t-61 32q-25 25-32 61t6 73q-29 29-29 71t29 71ZM240-80v-172q-57-52-88.5-121.5T120-520q0-150 105-255t255-105q125 0 221.5 73.5T827-615l52 205q5 19-7 34.5T840-360h-80v120q0 33-23.5 56.5T680-160h-80v80h-80v-160h160v-200h108l-38-155q-23-91-98-148t-172-57q-116 0-198 81t-82 197q0 60 24.5 114t69.5 96l26 24v208h-80Zm254-360Z"/>
  </symbol>
  <symbol id="head-filled" viewBox="0 -960 960 960">
    <path d="M240-80v-172q-57-52-88.5-121.5T120-520q0-150 105-255t255-105q125 0 221.5 73.5T827-615l52 205q5 19-7 34.5T840-360h-80v120q0 33-23.5 56.5T680-160h-80v80H240Zm69-309q29 29 71 29t71-29l160-160q29-29 29-71t-29-71q-29-29-71-29t-71 29q-37-13-73-6t-61 32q-25 25-32 61t6 73q-29 29-29 71t29 71Z"/>
  </symbol>

  <!-- List icons -->
  <symbol id="list" viewBox="0 -960 960 960">
    <path d="M320-280q17 0 28.5-11.5T360-320q0-17-11.5-28.5T320-360q-17 0-28.5 11.5T280-320q0 17 11.5 28.5T320-280Zm0-160q17 0 28.5-11.5T360-480q0-17-11.5-28.5T320-520q-17 0-28.5 11.5T280-480q0 17 11.5 28.5T320-440Zm0-160q17 0 28.5-11.5T360-640q0-17-11.5-28.5T320-680q-17 0-28.5 11.5T280-640q0 17 11.5 28.5T320-600Zm120 320h240v-80H440v80Zm0-160h240v-80H440v80Zm0-160h240v-80H440v80ZM200-120q-33 0-56.5-23.5T120-200v-560q0-33 23.5-56.5T200-840h560q33 0 56.5 23.5T840-760v560q0 33-23.5 56.5T760-120H200Zm0-80h560v-560H200v560Zm0-560v560-560Z"/>
  </symbol>
  <symbol id="list-filled" viewBox="0 -960 960 960">
    <path d="M320-280q17 0 28.5-11.5T360-320q0-17-11.5-28.5T320-360q-17 0-28.5 11.5T280-320q0 17 11.5 28.5T320-280Zm0-160q17 0 28.5-11.5T360-480q0-17-11.5-28.5T320-520q-17 0-28.5 11.5T280-480q0 17 11.5 28.5T320-440Zm0-160q17 0 28.5-11.5T360-640q0-17-11.5-28.5T320-680q-17 0-28.5 11.5T280-640q0 17 11.5 28.5T320-600Zm120 320h240v-80H440v80Zm0-160h240v-80H440v80Zm0-160h240v-80H440v80ZM200-120q-33 0-56.5-23.5T120-200v-560q0-33 23.5-56.5T200-840h560q33 0 56.5 23.5T840-760v560q0 33-23.5 56.5T760-120H200Z"/>
  </symbol>

  <!-- Support icons -->
  <symbol id="support" viewBox="0 -960 960 960">
    <path d="M476-280q21 0 35.5-14.5T526-330q0-21-14.5-35.5T476-380q-21 0-35.5 14.5T426-330q0 21 14.5 35.5T476-280Zm-36-154h74q0-17 1.5-29t6.5-23q5-11 12.5-20.5T556-530q35-35 49.5-58.5T620-642q0-53-36-85.5T487-760q-55 0-93.5 27T340-658l66 26q7-27 28-43.5t49-16.5q27 0 45 14.5t18 38.5q0 17-11 36t-37 42q-17 14-27.5 27.5T453-505q-7 15-10 31.5t-3 39.5Zm40 394L360-160H200q-33 0-56.5-23.5T120-240v-560q0-33 23.5-56.5T200-880h560q33 0 56.5 23.5T840-800v560q0 33-23.5 56.5T760-160H600L480-40ZM200-240h192l88 88 88-88h192v-560H200v560Zm280-280Z"/>
  </symbol>
  <symbol id="support-filled" viewBox="0 -960 960 960">
    <path d="M480-40 360-160H200q-33 0-56.5-23.5T120-240v-560q0-33 23.5-56.5T200-880h560q33 0 56.5 23.5T840-800v560q0 33-23.5 56.5T760-160H600L480-40Zm-4-240q21 0 35.5-14.5T526-330q0-21-14.5-35.5T476-380q-21 0-35.5 14.5T426-330q0 21 14.5 35.5T476-280Zm-36-154h74q0-17 1.5-29t6.5-23q5-11 12.5-20.5T556-530q35-35 49.5-58.5T620-642q0-53-36-85.5T487-760q-55 0-93.5 27T340-658l66 26q7-27 28-43.5t49-16.5q27 0 45 14.5t18 38.5q0 17-11 36t-37 42q-17 14-27.5 27.5T453-505q-7 15-10 31.5t-3 39.5Z"/>
  </symbol>
</svg>