<?xml version="1.0" encoding="UTF-8"?>
<svg id="Layer_1" data-name="Layer 1" xmlns="http://www.w3.org/2000/svg" xmlns:xlink="http://www.w3.org/1999/xlink" version="1.1" viewBox="0 0 598.6 185.1">
  <defs>
    <style>
      .cls-1 {
        clip-path: url(#clippath);
      }

      .cls-2 {
        fill: none;
      }

      .cls-2, .cls-3, .cls-4, .cls-5, .cls-6, .cls-7, .cls-8, .cls-9, .cls-10, .cls-11, .cls-12, .cls-13, .cls-14, .cls-15 {
        stroke-width: 0px;
      }

      .cls-3 {
        fill: url(#radial-gradient);
      }

      .cls-4 {
        fill: url(#radial-gradient-12);
      }

      .cls-5 {
        fill: url(#radial-gradient-11);
      }

      .cls-6 {
        fill: url(#radial-gradient-10);
      }

      .cls-16 {
        clip-path: url(#clippath-1);
      }

      .cls-17 {
        clip-path: url(#clippath-4);
      }

      .cls-18 {
        clip-path: url(#clippath-3);
      }

      .cls-19 {
        clip-path: url(#clippath-2);
      }

      .cls-20 {
        clip-path: url(#clippath-7);
      }

      .cls-21 {
        clip-path: url(#clippath-8);
      }

      .cls-22 {
        clip-path: url(#clippath-6);
      }

      .cls-23 {
        clip-path: url(#clippath-5);
      }

      .cls-24 {
        clip-path: url(#clippath-9);
      }

      .cls-7 {
        fill: #010202;
      }

      .cls-25 {
        clip-path: url(#clippath-10);
      }

      .cls-26 {
        clip-path: url(#clippath-11);
      }

      .cls-8 {
        fill: url(#radial-gradient-2);
      }

      .cls-9 {
        fill: url(#radial-gradient-3);
      }

      .cls-10 {
        fill: url(#radial-gradient-4);
      }

      .cls-11 {
        fill: url(#radial-gradient-6);
      }

      .cls-12 {
        fill: url(#radial-gradient-9);
      }

      .cls-13 {
        fill: url(#radial-gradient-8);
      }

      .cls-14 {
        fill: url(#radial-gradient-5);
      }

      .cls-15 {
        fill: url(#radial-gradient-7);
      }
    </style>
    <clipPath id="clippath">
      <path class="cls-2" d="M67.9,0C67.7,0,67.6.1,67.4.3c-2.6,11.5-4.1,23.1-3.1,35,1.7,19.2,11,33.4,27.2,43.4.5.3,1.1.4,1.7.6,0-.7-.2-1-.5-1.2-15.9-17.2-23.5-37.7-24.5-60.8-.3-5.6.2-11.3.3-17C68.3.1,68.1,0,67.9,0h0Z"/>
    </clipPath>
    <radialGradient id="radial-gradient" cx="-120.2" cy="106.5" fx="-120.2" fy="106.5" r="1.5" gradientTransform="translate(-12344.1 540.9) rotate(-140.5) scale(77.5)" gradientUnits="userSpaceOnUse">
      <stop offset="0" stop-color="#3374a7"/>
      <stop offset=".4" stop-color="#258ece"/>
      <stop offset=".8" stop-color="#8cd1f4"/>
      <stop offset="1" stop-color="#fff"/>
    </radialGradient>
    <clipPath id="clippath-1">
      <path class="cls-2" d="M.1,87.8c-.1,0-.1.2-.1.3h0c0,0,0,.2.1.3.3.5.8,1,1.3,1.4,3.1,3.2,6,6.6,9.4,9.6,10.3,9.2,22.4,13.9,36.3,13.4,10.5-.4,20.4-3.7,30.1-7.5.4-.2.8-.2,1.4-.4-.8-.6-.9-.7-1-.7-.3,0-.6,0-.9,0-9.8,2.7-19.8,3.1-30,2.3-7.8-.6-15.2-2.4-22.4-5.3-8.1-3.1-15.4-7.6-22.1-13-.4-.3-1.2-.7-1.7-.7-.3,0-.4,0-.4.2"/>
    </clipPath>
    <radialGradient id="radial-gradient-2" cx="-120.2" cy="106.5" fx="-120.2" fy="106.5" r="1.5" gradientTransform="translate(-12344.1 540.9) rotate(-140.5) scale(77.5)" gradientUnits="userSpaceOnUse">
      <stop offset="0" stop-color="#3374a7"/>
      <stop offset=".4" stop-color="#258ece"/>
      <stop offset=".8" stop-color="#8cd1f4"/>
      <stop offset="1" stop-color="#fff"/>
    </radialGradient>
    <clipPath id="clippath-2">
      <path class="cls-2" d="M103.5,129c0,.3-.2.5-.2.8-.5,5.1-.9,10.3-1.5,15.4-.9,7.4-3,14.5-6.7,21-3.9,6.8-9.3,12.3-15.4,17-.6.5-1.5.8-.7,1.8h.7c.2-.1.4-.3.6-.4,13.7-4.5,21.4-14,24.1-27.9,1.6-8.2,1.1-16.5.2-24.7,0-1.1-.4-2.1-.7-3.1,0,0-.2,0-.4,0"/>
    </clipPath>
    <radialGradient id="radial-gradient-3" cx="-120.2" cy="106.5" fx="-120.2" fy="106.5" r="1.5" gradientTransform="translate(-12344.1 540.9) rotate(-140.5) scale(77.5)" gradientUnits="userSpaceOnUse">
      <stop offset="0" stop-color="#3374a7"/>
      <stop offset=".4" stop-color="#258ece"/>
      <stop offset=".8" stop-color="#8cd1f4"/>
      <stop offset="1" stop-color="#fff"/>
    </radialGradient>
    <clipPath id="clippath-3">
      <path class="cls-2" d="M6.1,59.6c0,.5,0,1.1.3,1.6,1.6,3.8,3.1,7.8,5.1,11.4,6.5,11.8,16.2,19.7,29.2,23.6,10.6,3.2,21.5,3.3,32.4,1.9,1.9-.2,3.7-.6,5.5-.9,0-.2,0-.5,0-.7-.3,0-.6-.2-1-.2-3.6-.2-7.2-.3-10.8-.6-11.5-.8-22.3-4-32.3-10-10.5-6.4-19-15.1-26.4-24.9-.4-.5-.9-1-1.4-1.5-.2.1-.3.2-.5.3"/>
    </clipPath>
    <radialGradient id="radial-gradient-4" cx="-120.2" cy="106.5" fx="-120.2" fy="106.5" r="1.5" gradientTransform="translate(-12344.1 540.9) rotate(-140.5) scale(77.5)" gradientUnits="userSpaceOnUse">
      <stop offset="0" stop-color="#3374a7"/>
      <stop offset=".4" stop-color="#258ece"/>
      <stop offset=".8" stop-color="#8cd1f4"/>
      <stop offset="1" stop-color="#fff"/>
    </radialGradient>
    <clipPath id="clippath-4">
      <path class="cls-2" d="M19.1,34.3c1,4.9,1.7,9.9,3.1,14.7,5,17.4,16.3,28.9,33.2,35.3,7.5,2.8,15.3,4.3,23.2,5.4,1,0,2,0,3,.2,0-.3,0-.5,0-.8-1.8-.5-3.6-1.1-5.4-1.6-18.1-5-32.9-14.7-43.6-30.4-4.6-6.8-8.4-14.1-11.5-21.7-.2-.6-.7-1-1.1-1.5-.3.1-.6.2-1,.4"/>
    </clipPath>
    <radialGradient id="radial-gradient-5" cx="-120.2" cy="106.5" fx="-120.2" fy="106.5" r="1.5" gradientTransform="translate(-12344.1 540.9) rotate(-140.5) scale(77.5)" gradientUnits="userSpaceOnUse">
      <stop offset="0" stop-color="#3374a7"/>
      <stop offset=".4" stop-color="#258ece"/>
      <stop offset=".8" stop-color="#8cd1f4"/>
      <stop offset="1" stop-color="#fff"/>
    </radialGradient>
    <clipPath id="clippath-5">
      <path class="cls-2" d="M42.5,12.4c-.8,7.6-.6,15.2.7,22.7,4.1,24.7,18.5,40.5,42,48.4.5.2,1.1,0,1.8,0-.2-.4-.2-.6-.3-.6-.6-.4-1.1-.7-1.7-1.1-16.9-9.9-28.6-23.9-35.1-42.3-3-8.4-5-17.1-6.1-25.9,0-.6-.4-1.1-.7-1.6-.2.1-.4.2-.6.3"/>
    </clipPath>
    <radialGradient id="radial-gradient-6" cx="-120.2" cy="106.5" fx="-120.2" fy="106.5" r="1.5" gradientTransform="translate(-12344.1 540.9) rotate(-140.5) scale(77.5)" gradientUnits="userSpaceOnUse">
      <stop offset="0" stop-color="#3374a7"/>
      <stop offset=".4" stop-color="#258ece"/>
      <stop offset=".8" stop-color="#8cd1f4"/>
      <stop offset="1" stop-color="#fff"/>
    </radialGradient>
    <clipPath id="clippath-6">
      <path class="cls-2" d="M78.5,112.3c-14.6,9.6-30.6,13-47.9,11.3-8.5-.9-16.7-3.3-24.6-6.6-.8-.3-1.6-.6-2.4-.8,0,.3-.2.5-.3.8,6.2,5.2,13,9.2,20.7,11.7,11.1,3.6,22.2,3.3,33.1-.9,9.5-3.6,22.7-13,22.3-15.8-.4,0-.7,0-.9.3"/>
    </clipPath>
    <radialGradient id="radial-gradient-7" cx="-120.2" cy="106.5" fx="-120.2" fy="106.5" r="1.5" gradientTransform="translate(-12344.1 540.9) rotate(-140.5) scale(77.5)" gradientUnits="userSpaceOnUse">
      <stop offset="0" stop-color="#3374a7"/>
      <stop offset=".4" stop-color="#258ece"/>
      <stop offset=".8" stop-color="#8cd1f4"/>
      <stop offset="1" stop-color="#fff"/>
    </radialGradient>
    <clipPath id="clippath-7">
      <path class="cls-2" d="M14.9,142.3c-.1.6.8,1.3,1.4,1.5,3.4,1.3,6.8,2.7,10.4,3.6,10.3,2.6,20.4,2,30-2.6,11.4-5.4,19.6-14.2,26.5-24.6.2-.3.3-.7.4-1.1,0-.2-.3-.4-.4-.6-18.5,20.3-41.3,28-68.3,23.8"/>
    </clipPath>
    <radialGradient id="radial-gradient-8" cx="-120.2" cy="106.5" fx="-120.2" fy="106.5" r="1.5" gradientTransform="translate(-12344.1 540.9) rotate(-140.5) scale(77.5)" gradientUnits="userSpaceOnUse">
      <stop offset="0" stop-color="#3374a7"/>
      <stop offset=".4" stop-color="#258ece"/>
      <stop offset=".8" stop-color="#8cd1f4"/>
      <stop offset="1" stop-color="#fff"/>
    </radialGradient>
    <clipPath id="clippath-8">
      <path class="cls-2" d="M88.5,124.5c-.2.4-.5.7-.7,1.1-10.1,17.4-24.7,29.4-44.1,35.2-3.3,1-6.8,1.5-10.2,2.3-.4.1-.7.4-1,.6.3.3.7.6,1.1.8.3.1.7.1,1.1.1,4.3-.1,8.7,0,13-.4,8.1-.8,15.4-4,21.8-9,9.8-7.7,15.6-18.1,19.7-29.6,0-.3,0-.7,0-1.3-.6,0-.8,0-.8.2"/>
    </clipPath>
    <radialGradient id="radial-gradient-9" cx="-120.2" cy="106.5" fx="-120.2" fy="106.5" r="1.5" gradientTransform="translate(-12344.1 540.9) rotate(-140.5) scale(77.5)" gradientUnits="userSpaceOnUse">
      <stop offset="0" stop-color="#3374a7"/>
      <stop offset=".4" stop-color="#258ece"/>
      <stop offset=".8" stop-color="#8cd1f4"/>
      <stop offset="1" stop-color="#fff"/>
    </radialGradient>
    <clipPath id="clippath-9">
      <path class="cls-2" d="M95.2,129.2c-1.5,4.5-2.8,9-4.7,13.4-4.6,10.5-11.4,19.4-20.5,26.3-4.5,3.4-9.4,6.3-14.6,8.5-.4.2-.7.7-1,1.1.5.1,1,.4,1.4.3,2-.4,3.9-.7,5.8-1.2,13.6-3.5,23.8-11,29.4-24.2,3.4-7.9,4.7-16.3,5.6-24.8,0-.2-.2-.5-.6-1.1-.5.9-.7,1.3-.8,1.7"/>
    </clipPath>
    <radialGradient id="radial-gradient-10" cx="-120.2" cy="106.5" fx="-120.2" fy="106.5" r="1.5" gradientTransform="translate(-12344.1 540.9) rotate(-140.5) scale(77.5)" gradientUnits="userSpaceOnUse">
      <stop offset="0" stop-color="#3374a7"/>
      <stop offset=".4" stop-color="#258ece"/>
      <stop offset=".8" stop-color="#8cd1f4"/>
      <stop offset="1" stop-color="#fff"/>
    </radialGradient>
    <clipPath id="clippath-10">
      <path class="cls-2" d="M111.2,129.2c.7,3.9,1.6,7.8,1.9,11.8.4,5.5.8,11.1.4,16.6-.6,8.3-3.7,15.8-8.3,22.7-.3.5-.3,1.1-.5,1.6.2.1.4.1.6.2,7.5-5.8,12.4-13.2,13.5-22.9,1.3-10.9-1.8-20.9-6.7-30.5-.2-.3-.5-.5-1-1,.2.8,0,1.2,0,1.5"/>
    </clipPath>
    <radialGradient id="radial-gradient-11" cx="-120.2" cy="106.5" fx="-120.2" fy="106.5" r="1.5" gradientTransform="translate(-12344.1 540.9) rotate(-140.5) scale(77.5)" gradientUnits="userSpaceOnUse">
      <stop offset="0" stop-color="#3374a7"/>
      <stop offset=".4" stop-color="#258ece"/>
      <stop offset=".8" stop-color="#8cd1f4"/>
      <stop offset="1" stop-color="#fff"/>
    </radialGradient>
    <clipPath id="clippath-11">
      <path class="cls-2" d="M118.1,125c9,14,11.1,29.4,9.2,45.6l.5.5c.4-.4,1.1-.8,1.3-1.3,3.5-7,4.4-14.4,3-22.1-1.6-8.6-5.2-16-11.7-22-.5-.5-1.2-.8-1.8-1.1-.2,0-.3.2-.5.4"/>
    </clipPath>
    <radialGradient id="radial-gradient-12" cx="-120.2" cy="106.5" fx="-120.2" fy="106.5" r="1.5" gradientTransform="translate(-12344.2 540.8) rotate(-140.5) scale(77.5)" gradientUnits="userSpaceOnUse">
      <stop offset="0" stop-color="#3374a7"/>
      <stop offset=".4" stop-color="#258ece"/>
      <stop offset=".8" stop-color="#8cd1f4"/>
      <stop offset="1" stop-color="#fff"/>
    </radialGradient>
  </defs>
  <g class="cls-1">
    <polygon class="cls-3" points="81.1 94 24.4 47.2 75.4 -14.7 132.1 32.1 81.1 94"/>
  </g>
  <g class="cls-16">
    <polygon class="cls-8" points="46.7 151.9 -12.6 103 31.8 49.1 91.1 98.1 46.7 151.9"/>
  </g>
  <g class="cls-19">
    <polygon class="cls-9" points="94.8 198.8 50.6 162.4 89.4 115.3 133.6 151.7 94.8 198.8"/>
  </g>
  <g class="cls-18">
    <polygon class="cls-10" points="49.3 135.1 -13.6 83.3 35.4 23.7 98.3 75.6 49.3 135.1"/>
  </g>
  <g class="cls-17">
    <polygon class="cls-14" points="56.4 120.5 -8.3 67.2 44.5 3.1 109.2 56.5 56.4 120.5"/>
  </g>
  <g class="cls-23">
    <polygon class="cls-11" points="68.6 105.8 6.6 54.7 59.9 -10.1 121.9 41 68.6 105.8"/>
  </g>
  <g class="cls-22">
    <polygon class="cls-15" points="48.8 169.7 -6.8 123.9 34.2 74.3 89.7 120.1 48.8 169.7"/>
  </g>
  <g class="cls-20">
    <polygon class="cls-13" points="55.7 183.7 -.6 137.3 42.6 84.8 99 131.3 55.7 183.7"/>
  </g>
  <g class="cls-21">
    <polygon class="cls-12" points="66.3 192.4 12.7 148.2 55.5 96.3 109.1 140.5 66.3 192.4"/>
  </g>
  <g class="cls-24">
    <polygon class="cls-6" points="79.4 199.6 29.1 158.1 71.4 106.8 121.7 148.3 79.4 199.6"/>
  </g>
  <g class="cls-25">
    <polygon class="cls-5" points="114 189.7 78.2 160.1 111.1 120.2 147 149.8 114 189.7"/>
  </g>
  <g class="cls-26">
    <polygon class="cls-4" points="127.3 178.7 95.3 152.3 124.3 117 156.3 143.4 127.3 178.7"/>
  </g>
  <path class="cls-7" d="M420,80.4h16c-.3-4.6-2.4-8.5-7.7-8.5s-7.9,3.7-8.3,8.5M442.4,92.4v7.7c-3.5,1.9-7.4,2.9-12.5,2.9-12,0-18.9-6.9-18.9-18.8s5.6-19.2,16.8-19.2,17.2,9.2,17.2,21.9h-25c.4,5.8,4.5,9.2,10.3,9.2s8.5-1.7,12.1-3.7"/>
  <path class="cls-7" d="M271,80.4h16.1c-.3-4.6-2.4-8.5-7.7-8.5s-8,3.7-8.4,8.5M293.4,92.4v7.7c-3.4,1.9-7.4,2.9-12.4,2.9-12,0-18.9-6.9-18.9-18.8s5.6-19.2,16.8-19.2,17.3,9.2,17.3,21.9h-25.2c.4,5.8,4.5,9.2,10.4,9.2s8.5-1.7,12-3.7"/>
  <path class="cls-7" d="M136.4,83.1l-7.1-20.3-7.3,20.3h14.4ZM104.7,102.1l19.2-49.1h11.1l19.3,49.2h-10.9l-4.2-11.3h-19.9l-4.3,11.3h-10.3Z"/>
  <path class="cls-7" d="M176,72.3c-6.1,0-8.5,6.5-8.5,11.6s2.1,11.8,8.3,11.8,8-6.8,8-11.8c0-4.9-1.6-11.6-7.8-11.6M158.1,116.9v-51.1h9v5.2c2.3-3.5,5.8-6,11.4-6,11.1,0,15.2,8.9,15.2,18.9s-4.1,19.1-15.4,19.1-7.3-1-10.6-5v18.9h-9.6Z"/>
  <path class="cls-7" d="M216.5,72.3c-6.1,0-8.5,6.5-8.5,11.6s2,11.8,8.3,11.8,8-6.8,8-11.8c0-4.9-1.6-11.6-7.8-11.6M198.6,116.9v-51.1h9v5.2c2.2-3.5,5.8-6,11.4-6,11.1,0,15.2,8.9,15.2,18.9s-4.1,19.1-15.4,19.1-7.3-1-10.6-5v18.9h-9.6Z"/>
  <path class="cls-7" d="M496.4,83.1l-7.1-20.3-7.3,20.3h14.4ZM464.7,102.1l19.2-49.1h11.1l19.3,49.2h-10.9l-4.2-11.3h-19.9l-4.3,11.3h-10.3Z"/>
  <path class="cls-7" d="M536,72.3c-6.1,0-8.5,6.5-8.5,11.6s2.1,11.8,8.3,11.8,8-6.8,8-11.8c0-4.9-1.6-11.6-7.8-11.6M518.1,116.9v-51.1h9v5.2c2.3-3.5,5.8-6,11.4-6,11.1,0,15.2,8.9,15.2,18.9s-4.1,19.1-15.4,19.1-7.3-1-10.6-5v18.9h-9.6Z"/>
  <path class="cls-7" d="M576.5,72.3c-6.1,0-8.5,6.5-8.5,11.6s2,11.8,8.3,11.8,8-6.8,8-11.8c0-4.9-1.6-11.6-7.8-11.6M558.6,116.9v-51.1h9v5.2c2.2-3.5,5.8-6,11.4-6,11.1,0,15.2,8.9,15.2,18.9s-4.1,19.1-15.4,19.1-7.3-1-10.6-5v18.9h-9.6Z"/>
  <path class="cls-7" d="M239.2,102.1v-36.3h8.4v8.2c.6-3.4,4.4-9.1,10.1-9.1s1.9,0,2.9.3v9.5c-.9-.5-2.5-.8-4.2-.8-7.7,0-7.7,9.6-7.7,14.8v13.3h-9.5Z"/>
  <path class="cls-7" d="M301.1,102.1v-36.3h8.9v4.9c3.1-4.2,7.1-5.8,12-5.8,8.6,0,12.3,6.1,12.3,14.2v22.9h-9.3v-19.3c0-4.4-.1-10.4-6.1-10.4s-8.3,7.4-8.3,12.1v17.8h-9.5Z"/>
  <path class="cls-7" d="M344.6,91.2v-18.5h-7v-6.9h7v-7.3l9.4-3v10.3h8.4v6.9h-8.4v16.9c0,3.1.8,6,4.4,6s3.3-.3,4.3-1l.3,7.5c-2,.6-4.2.8-7,.8-7.3,0-11.4-4.5-11.4-11.7"/>
  <path class="cls-7" d="M408.7,66.2l-.8,7.5c-1.7-.8-3.5-1.3-6.4-1.3-5.8,0-9.6,4.7-9.6,11.5s3.2,11.8,9.8,11.8,5.6-1,7.3-1.7l.4,7.8c-2.8.8-5.6,1.2-9.4,1.2-12,0-18-8.1-18-19.2s6.2-18.8,17.5-18.8,6.6.4,9.2,1.2"/>
  <rect class="cls-7" x="368" y="65.8" width="9.4" height="36.3"/>
  <rect class="cls-7" x="368" y="50.2" width="9.4" height="9"/>
</svg>