<svg width="151" height="40" viewBox="0 0 151 40" fill="none" xmlns="http://www.w3.org/2000/svg">
<rect width="150" height="40" transform="translate(0.5)" fill="#0B0C0C"/>
<g clip-path="url(#clip0_6419_133585)">
<path d="M23.1 14.4C22.1 14.8 21.1 14.3 20.7 13.4C20.3 12.5 20.8 11.4 21.7 11C22.6 10.6 23.7 11.1 24.1 12C24.5 12.9 24 14 23.1 14.4ZM17.2 21.1C16.3 21.5 15.2 21 14.8 20.1C14.4 19.2 14.9 18.1 15.8 17.7C16.7 17.3 17.8 17.8 18.2 18.7C18.6 19.6 18.1 20.7 17.2 21.1ZM28 17.4C27 17.8 26 17.3 25.6 16.4C25.2 15.5 25.7 14.4 26.6 14C27.5 13.6 28.6 14.1 29 15C29.4 15.9 29 17 28 17.4ZM31.3 22.2C30.3 22.6 29.3 22.1 28.9 21.2C28.5 20.3 29 19.2 29.9 18.8C30.8 18.4 31.9 18.9 32.3 19.8C32.7 20.7 32.2 21.8 31.3 22.2ZM17.5 8.7L19.8 9.9V6.5L17.5 7.2L17.3 7L18.2 4H14.8L15.7 7L15.5 7.2C15.4 7.3 13.2 6.5 13.2 6.5V9.9L15.5 8.7C15.6 8.8 15.6 8.9 15.7 8.9L14.4 12.9C14.3 13.1 14.3 13.3 14.3 13.5C14.3 14.6 15.1 15.5 16.2 15.7H16.9C17.9 15.5 18.8 14.6 18.8 13.6C18.8 13.4 18.8 13.2 18.7 13L17.4 9C17.3 8.8 17.4 8.8 17.5 8.7ZM9.9 14.4C10.8 14.8 11.9 14.3 12.3 13.4C12.7 12.5 12.2 11.4 11.3 11C10.4 10.6 9.3 11.1 8.9 12C8.5 12.9 8.9 14 9.9 14.4ZM4.9 17.4C5.8 17.8 6.9 17.3 7.3 16.4C7.7 15.5 7.2 14.4 6.3 14C5.4 13.6 4.3 14.1 3.9 15C3.5 15.9 4 17 4.9 17.4ZM1.7 22.2C2.6 22.6 3.7 22.1 4.1 21.2C4.5 20.3 4 19.2 3.1 18.8C2.2 18.4 1.1 18.9 0.7 19.8C0.3 20.7 0.7 21.8 1.7 22.2ZM16.5 33.2C20.9 33.2 25.1 33.5 28.8 34C29.9 29.5 31.2 27 32.5 25.2L30 24.3C30.2 25.6 30.3 26.2 30 27C29.6 26.6 29.2 25.9 28.9 24.7L27.7 28.7C28.4 28.2 29 27.9 29.7 27.8C28.6 30.3 27.1 30.9 26.2 30.8C25.1 30.6 24.5 29.6 24.7 28.7C25 27.5 26.2 27.2 26.8 28.6C27.9 26.3 26 25.6 24.8 26.3C26.7 24.4 26.9 22.8 25.4 20.7C23.3 22.3 23.3 23.9 24.2 26.2C23 24.8 21 25.6 21.7 27.8C22.6 26.4 23.8 27.3 23.6 28.6C23.4 29.7 21.9 30.7 20.1 30.5C17.4 30.3 17.2 28.4 17.2 26.9C17.9 26.8 19.1 27.4 20.1 28.8L20.5 24.5C19.4 25.6 18.4 25.9 17.3 25.9C17.7 24.7 19.4 22.9 19.4 22.9H14C14 22.9 15.7 24.8 16.1 25.9C15 25.9 14 25.7 12.9 24.5L13.3 28.8C14.3 27.4 15.5 26.8 16.2 26.9C16.1 28.4 16 30.3 13.3 30.5C11.4 30.7 9.9 29.7 9.8 28.6C9.6 27.3 10.8 26.4 11.7 27.8C12.4 25.5 10.5 24.8 9.2 26.2C10.1 24 10.1 22.3 8 20.7C6.5 22.7 6.7 24.4 8.6 26.3C7.4 25.6 5.5 26.3 6.6 28.6C7.2 27.2 8.4 27.5 8.7 28.7C8.9 29.6 8.4 30.6 7.2 30.8C6.3 31 4.8 30.3 3.7 27.8C4.3 27.8 4.9 28.1 5.7 28.7L4.5 24.7C4.2 25.8 3.8 26.6 3.4 27C3.1 26.2 3.2 25.6 3.4 24.3L0.5 25.2C1.8 27 3.1 29.5 4.2 34C7.9 33.5 12.1 33.2 16.5 33.2Z" fill="white"/>
</g>
<path d="M45.0225 22.5557C45.0225 23.4541 45.1348 24.3184 45.3594 25.1484C45.584 25.9785 45.9258 26.7109 46.3848 27.3457C46.8438 27.9805 47.4297 28.4932 48.1426 28.8838C48.8555 29.2646 49.7051 29.4551 50.6914 29.4551C51.6387 29.4551 52.4248 29.3037 53.0498 29.001C53.6846 28.6982 54.1875 28.3223 54.5586 27.873C54.9395 27.4141 55.2031 26.9209 55.3496 26.3936C55.5059 25.8662 55.584 25.3779 55.584 24.9287V24.7236H50.208V21.4863H59.7148V33H55.9941V30.5391C55.7305 30.9492 55.4033 31.3252 55.0127 31.667C54.6221 31.999 54.1826 32.2871 53.6943 32.5312C53.2061 32.7656 52.6689 32.9512 52.083 33.0879C51.5068 33.2246 50.8916 33.293 50.2373 33.293C48.7041 33.293 47.3418 33.0146 46.1504 32.458C44.959 31.9014 43.9531 31.1348 43.1328 30.1582C42.3223 29.1816 41.7021 28.0391 41.2725 26.7305C40.8525 25.4219 40.6426 24.0107 40.6426 22.4971C40.6426 20.9932 40.877 19.5869 41.3457 18.2783C41.8242 16.96 42.498 15.8174 43.3672 14.8506C44.2461 13.874 45.3008 13.1074 46.5312 12.5508C47.7715 11.9844 49.1582 11.7012 50.6914 11.7012C51.6875 11.7012 52.6299 11.8184 53.5186 12.0527C54.417 12.2773 55.2324 12.6045 55.9648 13.0342C56.707 13.4541 57.3613 13.9668 57.9277 14.5723C58.4941 15.168 58.9531 15.832 59.3047 16.5645L55.584 18.6592C55.3594 18.21 55.0957 17.7949 54.793 17.4141C54.4902 17.0234 54.1387 16.6914 53.7383 16.418C53.3477 16.1348 52.8984 15.915 52.3906 15.7588C51.8828 15.5928 51.3164 15.5098 50.6914 15.5098C49.7051 15.5098 48.8555 15.7051 48.1426 16.0957C47.4297 16.4766 46.8438 16.9844 46.3848 17.6191C45.9258 18.2539 45.584 18.9912 45.3594 19.8311C45.1348 20.6611 45.0225 21.5205 45.0225 22.4092V22.5557ZM72.4297 11.7012C73.9922 11.7012 75.3936 11.9844 76.6338 12.5508C77.874 13.1074 78.9238 13.874 79.7832 14.8506C80.6523 15.8174 81.3115 16.96 81.7607 18.2783C82.2197 19.5869 82.4492 20.9932 82.4492 22.4971C82.4492 24.0107 82.2197 25.4219 81.7607 26.7305C81.3115 28.0391 80.6523 29.1816 79.7832 30.1582C78.9238 31.1348 77.874 31.9014 76.6338 32.458C75.3936 33.0146 73.9922 33.293 72.4297 33.293C70.8574 33.293 69.4512 33.0146 68.2109 32.458C66.9805 31.9014 65.9307 31.1348 65.0615 30.1582C64.2021 29.1816 63.543 28.0391 63.084 26.7305C62.6348 25.4219 62.4102 24.0107 62.4102 22.4971C62.4102 20.9932 62.6348 19.5869 63.084 18.2783C63.543 16.96 64.2021 15.8174 65.0615 14.8506C65.9307 13.874 66.9805 13.1074 68.2109 12.5508C69.4512 11.9844 70.8574 11.7012 72.4297 11.7012ZM72.4297 29.4551C73.3477 29.4551 74.1533 29.2842 74.8467 28.9424C75.5498 28.5908 76.1406 28.1074 76.6191 27.4922C77.0977 26.877 77.459 26.1494 77.7031 25.3096C77.9473 24.4697 78.0693 23.5518 78.0693 22.5557V22.4385C78.0693 21.4521 77.9473 20.5391 77.7031 19.6992C77.459 18.8496 77.0977 18.1172 76.6191 17.502C76.1406 16.8867 75.5498 16.4082 74.8467 16.0664C74.1533 15.7148 73.3477 15.5391 72.4297 15.5391C71.5117 15.5391 70.7012 15.7148 69.998 16.0664C69.2949 16.4082 68.7041 16.8867 68.2256 17.502C67.7568 18.1172 67.4004 18.8496 67.1562 19.6992C66.9121 20.5391 66.79 21.4521 66.79 22.4385V22.5557C66.79 23.5518 66.9121 24.4697 67.1562 25.3096C67.4004 26.1494 67.7568 26.877 68.2256 27.4922C68.7041 28.1074 69.2949 28.5908 69.998 28.9424C70.7012 29.2842 71.5117 29.4551 72.4297 29.4551ZM90.0078 33L84.0752 11.9941H88.8359L92.8936 27.7852H93.04L97.0098 11.9941H101.712L95.7793 33H90.0078ZM102.312 30.627C102.312 30.2656 102.381 29.9287 102.518 29.6162C102.664 29.2939 102.859 29.0156 103.104 28.7812C103.348 28.5371 103.631 28.3467 103.953 28.21C104.285 28.0635 104.632 27.9902 104.993 27.9902C105.354 27.9902 105.696 28.0635 106.019 28.21C106.341 28.3467 106.624 28.5371 106.868 28.7812C107.112 29.0156 107.303 29.2939 107.439 29.6162C107.586 29.9287 107.659 30.2656 107.659 30.627C107.659 30.998 107.586 31.3447 107.439 31.667C107.303 31.9893 107.112 32.2725 106.868 32.5166C106.624 32.7607 106.341 32.9512 106.019 33.0879C105.696 33.2246 105.354 33.293 104.993 33.293C104.632 33.293 104.285 33.2246 103.953 33.0879C103.631 32.9512 103.348 32.7607 103.104 32.5166C102.859 32.2725 102.664 31.9893 102.518 31.667C102.381 31.3447 102.312 30.998 102.312 30.627ZM119.612 29.4551C120.228 29.4551 120.799 29.3672 121.326 29.1914C121.863 29.0059 122.322 28.7324 122.703 28.3711C123.094 28 123.401 27.5361 123.626 26.9795C123.851 26.4131 123.963 25.749 123.963 24.9873V11.9648H128.152V25.6172C128.152 26.7891 127.938 27.8486 127.508 28.7959C127.088 29.7432 126.497 30.5488 125.735 31.2129C124.983 31.877 124.085 32.3896 123.04 32.751C121.995 33.1123 120.853 33.293 119.612 33.293C118.372 33.293 117.229 33.1123 116.185 32.751C115.14 32.3896 114.236 31.877 113.475 31.2129C112.713 30.5488 112.117 29.7432 111.688 28.7959C111.268 27.8486 111.058 26.7891 111.058 25.6172V11.9648H115.262V24.9873C115.262 25.749 115.374 26.4131 115.599 26.9795C115.823 27.5361 116.126 28 116.507 28.3711C116.897 28.7324 117.356 29.0059 117.884 29.1914C118.421 29.3672 118.997 29.4551 119.612 29.4551ZM132.312 11.9941H136.561V21.0908L144.061 11.9941H149.29L141.995 20.3438L149.759 33H144.822L139.271 23.5811L136.561 26.6133V33H132.312V11.9941Z" fill="white"/>
<defs>
<clipPath id="clip0_6419_133585">
<rect width="32" height="30" fill="white" transform="translate(0.5 4)"/>
</clipPath>
</defs>
</svg>
