<?xml version="1.0" encoding="UTF-8"?>
<svg xmlns="http://www.w3.org/2000/svg">
    <defs>
            <style>
                .lineStyle {
                    fill: none;
                    stroke: currentColor;
                    stroke-linecap: round;
                    stroke-linejoin: round;
                    stroke-width: 2px;
                }
                .fillStyle {
                    fill: currentColor;
                }
            </style>
        <symbol viewBox="0 0 22 22" id="tasks" fill="none">
            <g>
                <path class="lineStyle" d="M1 11C1 6.286 1 3.929 2.464 2.464C3.93 1 6.286 1 11 1C15.714 1 18.071 1 19.535 2.464C21 3.93 21 6.286 21 11C21 15.714 21 18.071 19.535 19.535C18.072 21 15.714 21 11 21C6.286 21 3.929 21 2.464 19.535C1 18.072 1 15.714 1 11Z"/>
                <path class="lineStyle" d="M5 14.8L6.143 16L9 13M5 7.8L6.143 9L9 6" />
                <path class="lineStyle" d="M12 8H17M12 15H17"/>      </g>
        </symbol>
        <symbol viewBox="0 0 22 22" id="tasksActive">
            <g>
                <path d="M19.8,4.5c-.2-1.4-.6-2.3-1.3-3-.7-.7-1.6-1.1-3-1.3C14.1,0,12.4,0,10,0S5.9,0,4.5.2c-1.4.2-2.3.6-3,1.3C.8,2.2.4,3.1.2,4.5c-.2,1.4-.2,3.1-.2,5.5s0,4.1.2,5.5c.2,1.4.6,2.3,1.3,3,.7.7,1.6,1.1,3,1.3,1.4.2,3.1.2,5.5.2s4.1,0,5.5-.2c1.4-.2,2.3-.6,3-1.3.7-.7,1.1-1.6,1.3-3,.2-1.4.2-3.1.2-5.5s0-4.1-.2-5.5ZM5.1,6.9l2.3-2.4c0,0,.1-.1.2-.2,0,0,.2,0,.3,0,0,0,.2,0,.3,0,0,0,.2,0,.2.2,0,0,.1.1.2.2,0,0,0,.2,0,.3,0,0,0,.2,0,.3s0,.2-.2.2l-2.9,3c0,0-.2.1-.2.2-.2,0-.4,0-.6,0,0,0-.2,0-.2-.2l-1.1-1.2c0,0-.1-.2-.2-.2,0,0,0-.2,0-.3,0,0,0-.2,0-.3,0,0,0-.2.2-.2,0,0,.2-.1.3-.2,0,0,.2,0,.3,0s0,0,0,0c.1,0,.2,0,.3,0,0,0,.2.1.2.2l.6.6ZM3.3,13.5c0,0,0-.2.2-.2,0,0,.2-.1.3-.2,0,0,.2,0,.3,0s0,0,0,0c0,0,.2,0,.3,0,0,0,.2,0,.2.2l.6.6,2.3-2.4c0,0,.1-.1.2-.2,0,0,.2,0,.3,0,0,0,.2,0,.3,0,0,0,.2,0,.3.2,0,0,.1.2.2.2,0,0,0,.2,0,.3,0,0,0,.2,0,.3,0,0,0,.2-.2.3l-2.9,3c0,0-.2.1-.2.2-.2,0-.4,0-.6,0,0,0-.2,0-.2-.2l-1.1-1.2c0,0-.1-.2-.2-.2,0,0,0-.2,0-.3,0,0,0-.2,0-.3ZM10.5,13.5c.1-.1.3-.2.5-.2h5c.2,0,.4,0,.5.2s.2.3.2.5,0,.4-.2.5-.3.2-.5.2h-5c-.2,0-.4,0-.5-.2s-.2-.3-.2-.5,0-.4.2-.5ZM16.5,7.5c-.1.1-.3.2-.5.2h-5c-.2,0-.4,0-.5-.2s-.2-.3-.2-.5,0-.4.2-.5c.1-.1.3-.2.5-.2h5c.2,0,.4,0,.5.2.1.1.2.3.2.5s0,.4-.2.5Z"/> </g>
        </symbol>
        <symbol viewBox="0 0 22 24" id="ksbs" fill="none">
            <path class="lineStyle" d="M15.3,23.1v-4.3h3.4c.5,0,.9-.2,1.2-.5s.5-.8.5-1.2v-6.9c0-1.7-.4-3.3-1.3-4.8-.8-1.4-2.1-2.6-3.5-3.5-1.5-.8-3.1-1.2-4.8-1.2-1.7,0-3.3.5-4.7,1.4-1.4.9-2.6,2.1-3.4,3.6-.8,1.5-1.2,3.1-1.1,4.8,0,1.7.6,3.3,1.5,4.7.9,1.4,2.2,2.6,3.7,3.3v4.5"/>
            <path class="lineStyle" d="M8.4,5.7c-1.1.7-2,1.7-2.4,2.9-.4,1.2-.5,2.6,0,3.8.2.6.8.9,1.4.7,3-.8,6-2.9,7.9-4.6.5-.4.6-1.2.2-1.7-.9-1-2-1.6-3.3-1.8-1.3-.2-2.6,0-3.7.7Z"/>
        </symbol>
        <symbol viewBox="0 0 22 24" id="ksbsActive" fill="none">
            <path class="lineStyle" d="M15.3,23.1v-4.3h3.4c.5,0,.9-.2,1.2-.5s.5-.8.5-1.2v-6.9c0-1.7-.4-3.3-1.3-4.8-.8-1.4-2.1-2.6-3.5-3.5-1.5-.8-3.1-1.2-4.8-1.2-1.7,0-3.3.5-4.7,1.4-1.4.9-2.6,2.1-3.4,3.6-.8,1.5-1.2,3.1-1.1,4.8,0,1.7.6,3.3,1.5,4.7.9,1.4,2.2,2.6,3.7,3.3v4.5"/>
            <path class="lineStyle fillStyle" d="M8.4,5.7c-1.1.7-2,1.7-2.4,2.9-.4,1.2-.5,2.6,0,3.8.2.6.8.9,1.4.7,3-.8,6-2.9,7.9-4.6.5-.4.6-1.2.2-1.7-.9-1-2-1.6-3.3-1.8-1.3-.2-2.6,0-3.7.7Z"/>
        </symbol>
        <symbol viewBox="0 0 21 25" id="support">
            <g>
                <path class="fillStyle" d="M9.91666 24.5558V20.6558C4.48916 20.3742 0.166656 15.8675 0.166656 10.375C0.166656 4.69834 4.78166 0.0833435 10.4583 0.0833435C16.135 0.0833435 20.75 4.69834 20.75 10.375C20.75 15.7375 17.0233 21.1325 11.4658 23.8083L9.91666 24.5558ZM10.4583 2.25001C5.97332 2.25001 2.33332 5.89001 2.33332 10.375C2.33332 14.86 5.97332 18.5 10.4583 18.5H12.0833V20.9917C16.0267 18.5 18.5833 14.405 18.5833 10.375C18.5833 5.89001 14.9433 2.25001 10.4583 2.25001ZM9.37499 14.7083H11.5417V16.875H9.37499V14.7083ZM11.5417 13.0833H9.37499C9.37499 9.56251 12.625 9.83334 12.625 7.66668C12.625 6.47501 11.65 5.50001 10.4583 5.50001C9.26666 5.50001 8.29166 6.47501 8.29166 7.66668H6.12499C6.12499 5.27251 8.06416 3.33334 10.4583 3.33334C12.8525 3.33334 14.7917 5.27251 14.7917 7.66668C14.7917 10.375 11.5417 10.6458 11.5417 13.0833Z" />
            </g>
        </symbol>
        <symbol viewBox="0 0 21 25" id="supportActive">
            <g>
                <path class="fillStyle" d="M10.5417 0C4.86309 0 0.25 4.74662 0.25 10.5896C0.25 16.4325 4.86309 21.1792 10.5417 21.1792H11.1471V24.9167C17.0315 22.0014 20.8333 16.1958 20.8333 10.5896C20.8333 4.74662 16.2202 0 10.5417 0ZM11.7525 18.0646H9.33088V15.5729H11.7525V18.0646ZM11.7525 13.7042H9.33088C9.33088 9.65521 12.9632 9.96667 12.9632 7.475C12.9632 6.10458 11.8735 4.98333 10.5417 4.98333C9.2098 4.98333 8.1201 6.10458 8.1201 7.475H5.69853C5.69853 4.72171 7.86583 2.49167 10.5417 2.49167C13.2175 2.49167 15.3848 4.72171 15.3848 7.475C15.3848 10.5896 11.7525 10.901 11.7525 13.7042Z"/>
            </g>
        </symbol>
        <symbol viewBox="0 0 21 25" id="notifications">
        <g>
            <path class="fillStyle" d="M8.25 22.125H12.75C12.75 23.3625 11.7375 24.375 10.5 24.375C9.2625 24.375 8.25 23.3625 8.25 22.125ZM20.625 19.875V21H0.375V19.875L2.625 17.625V10.875C2.625 7.3875 4.875 4.35 8.25 3.3375V3C8.25 1.7625 9.2625 0.75 10.5 0.75C11.7375 0.75 12.75 1.7625 12.75 3V3.3375C16.125 4.35 18.375 7.3875 18.375 10.875V17.625L20.625 19.875ZM16.125 10.875C16.125 7.725 13.65 5.25 10.5 5.25C7.35 5.25 4.875 7.725 4.875 10.875V18.75H16.125V10.875Z"/>
        </g>
        </symbol>
        <symbol viewBox="0 0 21 25" id="notificationsActive">
            <g>
                <path class="fillStyle" d="M20.625 19.875V21H0.375V19.875L2.625 17.625V10.875C2.625 7.3875 4.90875 4.31625 8.25 3.32625V3C8.25 2.40326 8.48705 1.83097 8.90901 1.40901C9.33097 0.987053 9.90326 0.75 10.5 0.75C11.0967 0.75 11.669 0.987053 12.091 1.40901C12.5129 1.83097 12.75 2.40326 12.75 3V3.32625C16.0913 4.31625 18.375 7.3875 18.375 10.875V17.625L20.625 19.875ZM12.75 22.125C12.75 22.7217 12.5129 23.294 12.091 23.716C11.669 24.1379 11.0967 24.375 10.5 24.375C9.90326 24.375 9.33097 24.1379 8.90901 23.716C8.48705 23.294 8.25 22.7217 8.25 22.125"/>
            </g>
        </symbol>
        <symbol viewBox="0 0 24 24" id="account">
            <g>
                <path class="fillStyle" d="M12,23.5h0c-1.9,0-3.7-.5-5.4-1.4-1.7-.9-3.1-2.2-4.1-3.7-1-1.5-1.6-3.2-1.9-5-.2-1.8,0-3.6.6-5.3.6-1.7,1.6-3.2,2.9-4.5,1.3-1.2,2.9-2.2,4.6-2.7,1.7-.5,3.5-.6,5.3-.3,1.8.3,3.5,1,4.9,2.1,1.4,1.1,2.6,2.5,3.4,4.1.8,1.6,1.2,3.4,1.2,5.2h0c0,2.3-.7,4.5-2,6.4-1,1.6-2.5,2.9-4.1,3.7-1.7.9-3.5,1.4-5.4,1.4ZM12,21.5h0c1.6,0,3.1-.4,4.5-1.1,1.4-.7,2.6-1.8,3.4-3.1,1.1-1.6,1.6-3.4,1.6-5.3h0c0-1.5-.4-3-1-4.3-.7-1.3-1.6-2.5-2.8-3.4-1.2-.9-2.6-1.5-4-1.7-1.5-.3-3-.2-4.4.3-1.4.4-2.7,1.2-3.8,2.2-1.1,1-1.9,2.3-2.4,3.7s-.7,2.9-.5,4.4c.2,1.5.7,2.9,1.5,4.1.9,1.3,2,2.4,3.4,3.1,1.4.7,2.9,1.1,4.5,1.1h0Z"/>
                <g>
                    <path class="fillStyle" d="M15.5,13.6h-7c-2.5,0-4.9,1.7-5.6,4.2l2,.8c.5-1.4,2-2.6,3.6-2.6h7c1.6,0,3.1,1.2,3.5,2.6l2.1-.8c-.7-2.4-3.1-4.2-5.6-4.2Z"/>
                    <path class="fillStyle" d="M12,11.3c1.9,0,3.5-1.6,3.5-3.5,0-1.9-1.6-3.5-3.5-3.5-1.9,0-3.5,1.6-3.5,3.5,0,1.9,1.6,3.5,3.5,3.5ZM12,6.6c.6,0,1.2.5,1.2,1.2,0,.6-.5,1.2-1.2,1.2-.6,0-1.2-.5-1.2-1.2,0-.6.5-1.2,1.2-1.2Z"/>
                </g>
            </g>
        </symbol>
        <symbol viewBox="0 0 24 24" id="accountActive">
            <g>
                <path class="fillStyle" fill-rule="evenodd" clip-rule="evenodd" d="M12 2.66667C10.3675 2.66637 8.76357 3.09424 7.34816 3.90757C5.93275 4.7209 4.75542 5.89124 3.93368 7.30178C3.11194 8.71232 2.67452 10.3137 2.6651 11.9461C2.65568 13.5786 3.07458 15.1849 3.87999 16.6048C4.42437 15.8973 5.12416 15.3245 5.92526 14.9306C6.72636 14.5368 7.6073 14.3324 8.49999 14.3333H15.5C16.3927 14.3324 17.2736 14.5368 18.0747 14.9306C18.8758 15.3245 19.5756 15.8973 20.12 16.6048C20.9254 15.1849 21.3443 13.5786 21.3349 11.9461C21.3255 10.3137 20.8881 8.71232 20.0663 7.30178C19.2446 5.89124 18.0672 4.7209 16.6518 3.90757C15.2364 3.09424 13.6324 2.66637 12 2.66667ZM21.2668 19.0887C22.8267 17.0551 23.6704 14.5629 23.6667 12C23.6667 5.5565 18.4435 0.333334 12 0.333334C5.55649 0.333334 0.333326 5.5565 0.333326 12C0.329474 14.5629 1.17322 17.0552 2.73316 19.0887L2.72733 19.1097L3.14149 19.5915C4.23569 20.8708 5.59427 21.8975 7.1236 22.6011C8.65292 23.3046 10.3166 23.6682 12 23.6667C14.3652 23.671 16.6753 22.9526 18.6208 21.6075C19.4502 21.0344 20.2023 20.3569 20.8585 19.5915L21.2727 19.1097L21.2668 19.0887ZM12 5C11.0717 5 10.1815 5.36875 9.52512 6.02513C8.86874 6.6815 8.49999 7.57174 8.49999 8.5C8.49999 9.42826 8.86874 10.3185 9.52512 10.9749C10.1815 11.6313 11.0717 12 12 12C12.9283 12 13.8185 11.6313 14.4749 10.9749C15.1312 10.3185 15.5 9.42826 15.5 8.5C15.5 7.57174 15.1312 6.6815 14.4749 6.02513C13.8185 5.36875 12.9283 5 12 5Z"/>
            </g>
        </symbol>
    </defs>
</svg>