<?xml version="1.0" encoding="UTF-8"?>
<svg xmlns="http://www.w3.org/2000/svg">
    <defs>
        <style>
            .lineStyle {
                fill: none;
                stroke-linecap: round;
                stroke-linejoin: round;
                stroke-width: 2;
                stroke: currentColor;
            }
            .fillStyle {
                fill: currentColor;
                stroke-width: 0;
            }
        </style>
        <symbol viewBox="0 0 22 22" id="tasks" fill="none">
            <g>
                <path stroke-width="2" class="lineStyle"
                      d="M1 11C1 6.286 1 3.929 2.464 2.464C3.93 1 6.286 1 11 1C15.714 1 18.071 1 19.535 2.464C21 3.93 21 6.286 21 11C21 15.714 21 18.071 19.535 19.535C18.072 21 15.714 21 11 21C6.286 21 3.929 21 2.464 19.535C1 18.072 1 15.714 1 11Z"/>
                <path stroke-width="2" class="lineStyle" d="M5 14.8L6.143 16L9 13M5 7.8L6.143 9L9 6"/>
                <path stroke-width="2" class="lineStyle" d="M12 8H17M12 15H17"/>
            </g>
        </symbol>
        <symbol viewBox="0 0 22 22" id="tasksActive" fill="none">
            <g>
                <path class="fillStyle" d="M19.8,4.5c-.2-1.4-.6-2.3-1.3-3-.7-.7-1.6-1.1-3-1.3C14.1,0,12.4,0,10,0S5.9,0,4.5.2c-1.4.2-2.3.6-3,1.3C.8,2.2.4,3.1.2,4.5c-.2,1.4-.2,3.1-.2,5.5s0,4.1.2,5.5c.2,1.4.6,2.3,1.3,3,.7.7,1.6,1.1,3,1.3,1.4.2,3.1.2,5.5.2s4.1,0,5.5-.2c1.4-.2,2.3-.6,3-1.3.7-.7,1.1-1.6,1.3-3,.2-1.4.2-3.1.2-5.5s0-4.1-.2-5.5ZM5.1,6.9l2.3-2.4c0,0,.1-.1.2-.2,0,0,.2,0,.3,0,0,0,.2,0,.3,0,0,0,.2,0,.2.2,0,0,.1.1.2.2,0,0,0,.2,0,.3,0,0,0,.2,0,.3s0,.2-.2.2l-2.9,3c0,0-.2.1-.2.2-.2,0-.4,0-.6,0,0,0-.2,0-.2-.2l-1.1-1.2c0,0-.1-.2-.2-.2,0,0,0-.2,0-.3,0,0,0-.2,0-.3,0,0,0-.2.2-.2,0,0,.2-.1.3-.2,0,0,.2,0,.3,0s0,0,0,0c.1,0,.2,0,.3,0,0,0,.2.1.2.2l.6.6ZM3.3,13.5c0,0,0-.2.2-.2,0,0,.2-.1.3-.2,0,0,.2,0,.3,0s0,0,0,0c0,0,.2,0,.3,0,0,0,.2,0,.2.2l.6.6,2.3-2.4c0,0,.1-.1.2-.2,0,0,.2,0,.3,0,0,0,.2,0,.3,0,0,0,.2,0,.3.2,0,0,.1.2.2.2,0,0,0,.2,0,.3,0,0,0,.2,0,.3,0,0,0,.2-.2.3l-2.9,3c0,0-.2.1-.2.2-.2,0-.4,0-.6,0,0,0-.2,0-.2-.2l-1.1-1.2c0,0-.1-.2-.2-.2,0,0,0-.2,0-.3,0,0,0-.2,0-.3ZM10.5,13.5c.1-.1.3-.2.5-.2h5c.2,0,.4,0,.5.2s.2.3.2.5,0,.4-.2.5-.3.2-.5.2h-5c-.2,0-.4,0-.5-.2s-.2-.3-.2-.5,0-.4.2-.5ZM16.5,7.5c-.1.1-.3.2-.5.2h-5c-.2,0-.4,0-.5-.2s-.2-.3-.2-.5,0-.4.2-.5c.1-.1.3-.2.5-.2h5c.2,0,.4,0,.5.2.1.1.2.3.2.5s0,.4-.2.5Z"/>
            </g>
        </symbol>
        <symbol viewBox="0 0 22 24" id="ksbs" fill="none">
        <g>
            <path stroke-width="2" class="lineStyle" d="M15.2857 23.1429V18.8571H18.7143C19.169 18.8571 19.605 18.6765 19.9265 18.355C20.248 18.0335 20.4286 17.5975 20.4286 17.1429V10.2857C20.4283 8.61004 19.9814 6.96473 19.134 5.51914C18.2865 4.07356 17.0692 2.87993 15.6072 2.06114C14.1452 1.24235 12.4914 0.82798 10.816 0.860683C9.14066 0.893385 7.50429 1.37198 6.07536 2.2472C4.64642 3.12242 3.47656 4.36265 2.68618 5.8402C1.8958 7.31776 1.51348 8.97925 1.57856 10.6537C1.64364 12.3281 2.15378 13.9549 3.05646 15.3666C3.95914 16.7784 5.22174 17.924 6.7143 18.6857V23.1429" />
            <path stroke-width="2" class="lineStyle" d="M8.42858 5.6777C7.30154 6.32868 6.43816 7.35392 5.98845 8.57529C5.53873 9.79667 5.53109 11.137 5.96686 12.3634C6.17258 12.9377 6.78972 13.2257 7.37943 13.0697C10.3571 12.2811 13.388 10.1468 15.2309 8.48398C15.7194 8.04341 15.8189 7.30627 15.3851 6.81255C14.5345 5.84993 13.3772 5.21106 12.1093 5.00423C10.8414 4.7974 9.54106 5.03533 8.42858 5.6777Z"/>
        </g>        
        </symbol>
        <symbol viewBox="0 0 22 24" id="ksbsActive" fill="none">
            <path stroke-width="2" class="lineStyle"
                  d="M15.3,23.1v-4.3h3.4c.5,0,.9-.2,1.2-.5s.5-.8.5-1.2v-6.9c0-1.7-.4-3.3-1.3-4.8-.8-1.4-2.1-2.6-3.5-3.5-1.5-.8-3.1-1.2-4.8-1.2-1.7,0-3.3.5-4.7,1.4-1.4.9-2.6,2.1-3.4,3.6-.8,1.5-1.2,3.1-1.1,4.8,0,1.7.6,3.3,1.5,4.7.9,1.4,2.2,2.6,3.7,3.3v4.5"/>
            <path class="fillStyle"
                  d="M8.4,5.7c-1.1.7-2,1.7-2.4,2.9-.4,1.2-.5,2.6,0,3.8.2.6.8.9,1.4.7,3-.8,6-2.9,7.9-4.6.5-.4.6-1.2.2-1.7-.9-1-2-1.6-3.3-1.8-1.3-.2-2.6,0-3.7.7Z"/>
        </symbol>
        <symbol viewBox="0 0 21 25" id="support">
            <g>
                <path class="fillStyle"
                      d="M9.91666 24.5558V20.6558C4.48916 20.3742 0.166656 15.8675 0.166656 10.375C0.166656 4.69834 4.78166 0.0833435 10.4583 0.0833435C16.135 0.0833435 20.75 4.69834 20.75 10.375C20.75 15.7375 17.0233 21.1325 11.4658 23.8083L9.91666 24.5558ZM10.4583 2.25001C5.97332 2.25001 2.33332 5.89001 2.33332 10.375C2.33332 14.86 5.97332 18.5 10.4583 18.5H12.0833V20.9917C16.0267 18.5 18.5833 14.405 18.5833 10.375C18.5833 5.89001 14.9433 2.25001 10.4583 2.25001ZM9.37499 14.7083H11.5417V16.875H9.37499V14.7083ZM11.5417 13.0833H9.37499C9.37499 9.56251 12.625 9.83334 12.625 7.66668C12.625 6.47501 11.65 5.50001 10.4583 5.50001C9.26666 5.50001 8.29166 6.47501 8.29166 7.66668H6.12499C6.12499 5.27251 8.06416 3.33334 10.4583 3.33334C12.8525 3.33334 14.7917 5.27251 14.7917 7.66668C14.7917 10.375 11.5417 10.6458 11.5417 13.0833Z"/>
            </g>
        </symbol>
        <symbol viewBox="0 0 21 25" id="supportActive">
            <g>
                <path class="fillStyle"
                      d="M10.5417 0C4.86309 0 0.25 4.74662 0.25 10.5896C0.25 16.4325 4.86309 21.1792 10.5417 21.1792H11.1471V24.9167C17.0315 22.0014 20.8333 16.1958 20.8333 10.5896C20.8333 4.74662 16.2202 0 10.5417 0ZM11.7525 18.0646H9.33088V15.5729H11.7525V18.0646ZM11.7525 13.7042H9.33088C9.33088 9.65521 12.9632 9.96667 12.9632 7.475C12.9632 6.10458 11.8735 4.98333 10.5417 4.98333C9.2098 4.98333 8.1201 6.10458 8.1201 7.475H5.69853C5.69853 4.72171 7.86583 2.49167 10.5417 2.49167C13.2175 2.49167 15.3848 4.72171 15.3848 7.475C15.3848 10.5896 11.7525 10.901 11.7525 13.7042Z"/>
            </g>
        </symbol>
        <symbol viewBox="0 0 21 25" id="notifications">
            <g>
                <path class="fillStyle"
                      d="M8.25 22.125H12.75C12.75 23.3625 11.7375 24.375 10.5 24.375C9.2625 24.375 8.25 23.3625 8.25 22.125ZM20.625 19.875V21H0.375V19.875L2.625 17.625V10.875C2.625 7.3875 4.875 4.35 8.25 3.3375V3C8.25 1.7625 9.2625 0.75 10.5 0.75C11.7375 0.75 12.75 1.7625 12.75 3V3.3375C16.125 4.35 18.375 7.3875 18.375 10.875V17.625L20.625 19.875ZM16.125 10.875C16.125 7.725 13.65 5.25 10.5 5.25C7.35 5.25 4.875 7.725 4.875 10.875V18.75H16.125V10.875Z"/>
            </g>
        </symbol>
        <symbol viewBox="0 0 21 25" id="notificationsActive">
            <g>
                <path class="fillStyle"
                      d="M20.625 19.875V21H0.375V19.875L2.625 17.625V10.875C2.625 7.3875 4.90875 4.31625 8.25 3.32625V3C8.25 2.40326 8.48705 1.83097 8.90901 1.40901C9.33097 0.987053 9.90326 0.75 10.5 0.75C11.0967 0.75 11.669 0.987053 12.091 1.40901C12.5129 1.83097 12.75 2.40326 12.75 3V3.32625C16.0913 4.31625 18.375 7.3875 18.375 10.875V17.625L20.625 19.875ZM12.75 22.125C12.75 22.7217 12.5129 23.294 12.091 23.716C11.669 24.1379 11.0967 24.375 10.5 24.375C9.90326 24.375 9.33097 24.1379 8.90901 23.716C8.48705 23.294 8.25 22.7217 8.25 22.125"/>
            </g>
        </symbol>
        <symbol viewBox="0 0 24 24" id="account">
            <g>
                <path class="fillStyle"
                      d="M12,23.5h0c-1.9,0-3.7-.5-5.4-1.4-1.7-.9-3.1-2.2-4.1-3.7-1-1.5-1.6-3.2-1.9-5-.2-1.8,0-3.6.6-5.3.6-1.7,1.6-3.2,2.9-4.5,1.3-1.2,2.9-2.2,4.6-2.7,1.7-.5,3.5-.6,5.3-.3,1.8.3,3.5,1,4.9,2.1,1.4,1.1,2.6,2.5,3.4,4.1.8,1.6,1.2,3.4,1.2,5.2h0c0,2.3-.7,4.5-2,6.4-1,1.6-2.5,2.9-4.1,3.7-1.7.9-3.5,1.4-5.4,1.4ZM12,21.5h0c1.6,0,3.1-.4,4.5-1.1,1.4-.7,2.6-1.8,3.4-3.1,1.1-1.6,1.6-3.4,1.6-5.3h0c0-1.5-.4-3-1-4.3-.7-1.3-1.6-2.5-2.8-3.4-1.2-.9-2.6-1.5-4-1.7-1.5-.3-3-.2-4.4.3-1.4.4-2.7,1.2-3.8,2.2-1.1,1-1.9,2.3-2.4,3.7s-.7,2.9-.5,4.4c.2,1.5.7,2.9,1.5,4.1.9,1.3,2,2.4,3.4,3.1,1.4.7,2.9,1.1,4.5,1.1h0Z"/>
                <g>
                    <path class="fillStyle"
                          d="M15.5,13.6h-7c-2.5,0-4.9,1.7-5.6,4.2l2,.8c.5-1.4,2-2.6,3.6-2.6h7c1.6,0,3.1,1.2,3.5,2.6l2.1-.8c-.7-2.4-3.1-4.2-5.6-4.2Z"/>
                    <path class="fillStyle"
                          d="M12,11.3c1.9,0,3.5-1.6,3.5-3.5,0-1.9-1.6-3.5-3.5-3.5-1.9,0-3.5,1.6-3.5,3.5,0,1.9,1.6,3.5,3.5,3.5ZM12,6.6c.6,0,1.2.5,1.2,1.2,0,.6-.5,1.2-1.2,1.2-.6,0-1.2-.5-1.2-1.2,0-.6.5-1.2,1.2-1.2Z"/>
                </g>
            </g>
        </symbol>
        <symbol viewBox="0 0 24 24" id="accountActive">
            <g>
                <path class="fillStyle" fill-rule="evenodd" clip-rule="evenodd"
                      d="M12 2.66667C10.3675 2.66637 8.76357 3.09424 7.34816 3.90757C5.93275 4.7209 4.75542 5.89124 3.93368 7.30178C3.11194 8.71232 2.67452 10.3137 2.6651 11.9461C2.65568 13.5786 3.07458 15.1849 3.87999 16.6048C4.42437 15.8973 5.12416 15.3245 5.92526 14.9306C6.72636 14.5368 7.6073 14.3324 8.49999 14.3333H15.5C16.3927 14.3324 17.2736 14.5368 18.0747 14.9306C18.8758 15.3245 19.5756 15.8973 20.12 16.6048C20.9254 15.1849 21.3443 13.5786 21.3349 11.9461C21.3255 10.3137 20.8881 8.71232 20.0663 7.30178C19.2446 5.89124 18.0672 4.7209 16.6518 3.90757C15.2364 3.09424 13.6324 2.66637 12 2.66667ZM21.2668 19.0887C22.8267 17.0551 23.6704 14.5629 23.6667 12C23.6667 5.5565 18.4435 0.333334 12 0.333334C5.55649 0.333334 0.333326 5.5565 0.333326 12C0.329474 14.5629 1.17322 17.0552 2.73316 19.0887L2.72733 19.1097L3.14149 19.5915C4.23569 20.8708 5.59427 21.8975 7.1236 22.6011C8.65292 23.3046 10.3166 23.6682 12 23.6667C14.3652 23.671 16.6753 22.9526 18.6208 21.6075C19.4502 21.0344 20.2023 20.3569 20.8585 19.5915L21.2727 19.1097L21.2668 19.0887ZM12 5C11.0717 5 10.1815 5.36875 9.52512 6.02513C8.86874 6.6815 8.49999 7.57174 8.49999 8.5C8.49999 9.42826 8.86874 10.3185 9.52512 10.9749C10.1815 11.6313 11.0717 12 12 12C12.9283 12 13.8185 11.6313 14.4749 10.9749C15.1312 10.3185 15.5 9.42826 15.5 8.5C15.5 7.57174 15.1312 6.6815 14.4749 6.02513C13.8185 5.36875 12.9283 5 12 5Z"/>
            </g>
        </symbol>
        <symbol viewBox="0 0 28 28" id="edit">
            <g>
                <path stroke-width="2" class="lineStyle"
                      d="M20.0775 4.60875L22.1862 2.49875C22.6258 2.05916 23.2221 1.81219 23.8438 1.81219C24.4654 1.81219 25.0617 2.05916 25.5013 2.49875C25.9408 2.93835 26.1878 3.53457 26.1878 4.15625C26.1878 4.77794 25.9408 5.37416 25.5013 5.81375L7.54 23.775C6.87916 24.4355 6.06421 24.9209 5.16875 25.1875L1.8125 26.1875L2.8125 22.8313C3.0791 21.9358 3.56454 21.1208 4.225 20.46L20.0775 4.60875ZM20.0775 4.60875L23.375 7.90625"/>
            </g>
        </symbol>
        <symbol viewBox="0 0 20 17" id="arrowLeft">
            <g>
                <path class="fillStyle"
                      d="M6.6.8l1.9,1.9-2.9,2.9h6.7c2,0,3.8.8,5.2,2.2,1.4,1.4,2.2,3.2,2.2,5.2v2c0,.4-.1.7-.4,1-.3.3-.6.4-1,.4s-.7-.1-1-.4c-.3-.3-.4-.6-.4-1v-2c0-1.2-.5-2.4-1.4-3.3-.9-.9-2-1.4-3.3-1.4h-6.7s2.9,2.9,2.9,2.9l-1.9,1.9L.4,7,6.6.8Z"/>
            </g>
        </symbol>
        <symbol viewBox="0 0 20 17" id="arrowRight">
            <g>
                <path class="fillStyle"
                      d="M13.7.8l-1.9,1.9,2.9,2.9h-6.7c-2,0-3.8.8-5.2,2.2-1.4,1.4-2.2,3.2-2.2,5.2v2c0,.4.1.7.4,1,.3.3.6.4,1,.4s.7-.1,1-.4c.3-.3.4-.6.4-1v-2c0-1.2.5-2.4,1.4-3.3.9-.9,2-1.4,3.3-1.4h6.7l-2.9,2.9,1.9,1.9,6.2-6.2L13.7.8Z"/>
            </g>
        </symbol>
        <symbol viewBox="0 0 18 23" id="share">
            <g>
                <path class="fillStyle"
                      d="M2.625 9.75C2.52554 9.75 2.43016 9.78951 2.35984 9.85983C2.28951 9.93016 2.25 10.0255 2.25 10.125V19.875C2.25 20.082 2.418 20.25 2.625 20.25H15.375C15.4745 20.25 15.5698 20.2105 15.6402 20.1402C15.7105 20.0698 15.75 19.9745 15.75 19.875V10.125C15.75 10.0255 15.7105 9.93016 15.6402 9.85983C15.5698 9.78951 15.4745 9.75 15.375 9.75H13.875C13.5766 9.75 13.2905 9.63147 13.0795 9.42049C12.8685 9.20951 12.75 8.92337 12.75 8.625C12.75 8.32663 12.8685 8.04048 13.0795 7.8295C13.2905 7.61852 13.5766 7.5 13.875 7.5H15.375C16.824 7.5 18 8.676 18 10.125V19.875C18 20.5712 17.7234 21.2389 17.2312 21.7312C16.7389 22.2234 16.0712 22.5 15.375 22.5H2.625C1.92881 22.5 1.26113 22.2234 0.768845 21.7312C0.276562 21.2389 0 20.5712 0 19.875V10.125C0 8.676 1.176 7.5 2.625 7.5H4.125C4.42337 7.5 4.70952 7.61852 4.9205 7.8295C5.13147 8.04048 5.25 8.32663 5.25 8.625C5.25 8.92337 5.13147 9.20951 4.9205 9.42049C4.70952 9.63147 4.42337 9.75 4.125 9.75H2.625ZM8.7345 0.265499C8.76933 0.230577 8.81072 0.20287 8.85628 0.183965C8.90183 0.16506 8.95067 0.155329 9 0.155329C9.04933 0.155329 9.09817 0.16506 9.14372 0.183965C9.18928 0.20287 9.23067 0.230577 9.2655 0.265499L13.6095 4.6095C13.6621 4.66195 13.6979 4.72882 13.7124 4.80166C13.727 4.87449 13.7195 4.94999 13.6911 5.0186C13.6626 5.0872 13.6145 5.14582 13.5527 5.18701C13.4909 5.22821 13.4183 5.25013 13.344 5.25H10.125V13.875C10.125 14.1734 10.0065 14.4595 9.79549 14.6705C9.58452 14.8815 9.29837 15 9 15C8.70163 15 8.41548 14.8815 8.2045 14.6705C7.99353 14.4595 7.875 14.1734 7.875 13.875V5.25H4.656C4.58173 5.25013 4.5091 5.22821 4.44731 5.18701C4.38552 5.14582 4.33735 5.0872 4.30891 5.0186C4.28047 4.94999 4.27305 4.87449 4.28757 4.80166C4.3021 4.72882 4.33792 4.66195 4.3905 4.6095L8.7345 0.265499Z"/>
            </g>
        </symbol>
        <symbol viewBox="0 0 18 20" id="trash">
            <g>
                <path stroke-width="2" class="lineStyle"
                      d="M1 5H17M7 9V15M11 9V15M2 5L3 17C3 17.5304 3.21071 18.0391 3.58579 18.4142C3.96086 18.7893 4.46957 19 5 19H13C13.5304 19 14.0391 18.7893 14.4142 18.4142C14.7893 18.0391 15 17.5304 15 17L16 5M6 5V2C6 1.73478 6.10536 1.48043 6.29289 1.29289C6.48043 1.10536 6.73478 1 7 1H11C11.2652 1 11.5196 1.10536 11.7071 1.29289C11.8946 1.48043 12 1.73478 12 2V5"/>
            </g>
        </symbol>
        <symbol viewBox="0 0 16 15" id="calendar">
            <g>
                <path class="fillStyle" fill-rule="evenodd"
                      d="M4.7.2c.1,0,.3,0,.4.1,0,0,.1.2.1.4v.5c.4,0,.9,0,1.5,0h2.7c.5,0,1,0,1.5,0v-.5c0-.1,0-.3.1-.4,0,0,.2-.1.4-.1s.3,0,.4.1c0,0,.1.2.1.4v.6c.2,0,.3,0,.5,0,.8.1,1.4.3,1.9.8.5.5.7,1.1.8,1.9.1.8.1,1.7.1,3v1.4c0,1.2,0,2.2-.1,3-.1.8-.3,1.4-.8,1.9-.5.5-1.1.7-1.9.8-.8.1-1.7.1-3,.1h-2.7c-1.2,0-2.2,0-3-.1-.8-.1-1.4-.3-1.9-.8-.5-.5-.7-1.1-.8-1.9-.1-.8-.1-1.7-.1-3v-1.4c0-1.2,0-2.2.1-3,.1-.8.3-1.4.8-1.9.5-.5,1.1-.7,1.9-.8.2,0,.3,0,.5,0v-.6c0-.1,0-.3.1-.4,0,0,.2-.1.4-.1ZM3.8,2.3c-.7,0-1.1.3-1.3.5s-.5.7-.5,1.3c0,.1,0,.2,0,.4h12.2c0-.1,0-.2,0-.4,0-.7-.3-1.1-.5-1.3-.3-.3-.7-.5-1.3-.5-.7,0-1.6,0-2.9,0h-2.7c-1.3,0-2.2,0-2.9,0ZM1.8,7c0-.6,0-1.1,0-1.5h12.3c0,.4,0,.9,0,1.5v1.3c0,1.3,0,2.2,0,2.9,0,.7-.3,1.1-.5,1.3-.3.3-.7.5-1.3.5-.7,0-1.6,0-2.9,0h-2.7c-1.3,0-2.2,0-2.9,0-.7,0-1.1-.3-1.3-.5-.3-.3-.5-.7-.5-1.3,0-.7,0-1.6,0-2.9v-1.3Z"/>
                <path class="fillStyle"
                      d="M11.3,8.5c.2,0,.3,0,.5-.2s.2-.3.2-.5,0-.3-.2-.5c-.1-.1-.3-.2-.5-.2s-.3,0-.5.2c-.1.1-.2.3-.2.5s0,.3.2.5c.1.1.3.2.5.2ZM11.3,11.2c.2,0,.3,0,.5-.2.1-.1.2-.3.2-.5s0-.3-.2-.5c-.1-.1-.3-.2-.5-.2s-.3,0-.5.2c-.1.1-.2.3-.2.5s0,.3.2.5.3.2.5.2ZM8.7,7.8c0,.2,0,.3-.2.5-.1.1-.3.2-.5.2s-.3,0-.5-.2c-.1-.1-.2-.3-.2-.5s0-.3.2-.5c.1-.1.3-.2.5-.2s.3,0,.5.2c.1.1.2.3.2.5ZM8.7,10.5c0,.2,0,.3-.2.5-.1.1-.3.2-.5.2s-.3,0-.5-.2-.2-.3-.2-.5,0-.3.2-.5c.1-.1.3-.2.5-.2s.3,0,.5.2c.1.1.2.3.2.5ZM4.7,8.5c.2,0,.3,0,.5-.2.1-.1.2-.3.2-.5s0-.3-.2-.5c-.1-.1-.3-.2-.5-.2s-.3,0-.5.2c-.1.1-.2.3-.2.5s0,.3.2.5c.1.1.3.2.5.2ZM4.7,11.2c.2,0,.3,0,.5-.2s.2-.3.2-.5,0-.3-.2-.5c-.1-.1-.3-.2-.5-.2s-.3,0-.5.2c-.1.1-.2.3-.2.5s0,.3.2.5c.1.1.3.2.5.2Z"/>
            </g>
        </symbol>
        <symbol viewBox="0 0 15 16" id="attachment">
            <g>
                <path stroke-width="2" class="lineStyle"
                      d="M14.2919 7.77467L8.16523 13.9013C7.41467 14.6519 6.39669 15.0736 5.33523 15.0736C4.27378 15.0736 3.25579 14.6519 2.50523 13.9013C1.75467 13.1508 1.33301 12.1328 1.33301 11.0713C1.33301 10.0099 1.75467 8.9919 2.50523 8.24133L8.6319 2.11467C9.13227 1.61429 9.81093 1.33318 10.5186 1.33318C11.2262 1.33318 11.9049 1.61429 12.4052 2.11467C12.9056 2.61504 13.1867 3.2937 13.1867 4.00133C13.1867 4.70897 12.9056 5.38762 12.4052 5.888L6.2719 12.0147C6.14802 12.1385 6.00095 12.2368 5.83909 12.3039C5.67724 12.3709 5.50376 12.4054 5.32857 12.4054C5.15337 12.4054 4.97989 12.3709 4.81804 12.3039C4.65618 12.2368 4.50911 12.1385 4.38523 12.0147C4.26135 11.8908 4.16308 11.7437 4.09604 11.5819C4.029 11.42 3.99449 11.2465 3.99449 11.0713C3.99449 10.8961 4.029 10.7227 4.09604 10.5608C4.16308 10.3989 4.26135 10.2519 4.38523 10.128L10.0452 4.47467"/>
            </g>
        </symbol>
        <symbol viewBox="0 0 25 24" id="unlink">
            <g>
                <path stroke-width="2" class="lineStyle" 
                        d="M5,2.4c-.4-.4-1.2-.4-1.6,0-.2.2-.3.5-.3.8s.1.6.3.8l17.6,17.6c.2.2.5.3.8.3s.6-.1.8-.3c.2-.2.3-.5.3-.8s-.1-.6-.3-.8L5,2.4Z"/>
                <path stroke-width="2" class="lineStyle" 
                        d="M9.8,15.7h-1.4c-1,0-1.3,0-1.6,0-1.1-.2-2-1-2.2-2.1,0-.2,0-.6,0-1.5s0-1.2,0-1.5c.1-.5.3-.9.7-1.3.3-.4.7-.6,1.2-.8l.5-.2-1.8-1.8h-.2c-.7.5-1.2.9-1.7,1.5-.4.6-.8,1.3-.9,2-.1.5-.1,1-.1,1.8v.2c0,.8,0,1.4.1,1.8.4,2,2,3.5,4.1,3.9.5,0,1.1,0,1.9,0h1.5c.3,0,.6-.1.8-.3.2-.2.3-.5.3-.8s-.1-.6-.3-.8c-.2-.2-.5-.3-.8-.3Z"/>
                <path stroke-width="2" class="lineStyle"
                        d="M23.6,10.1c-.4-2-2-3.5-4.1-3.9-.5,0-1,0-1.9,0h-1.5c-.3,0-.6.1-.8.3-.2.2-.3.5-.3.8s.1.6.3.8c.2.2.5.3.8.3h1.4c.9,0,1.3,0,1.6,0,1.1.2,2,1,2.2,2.1,0,.2,0,.6,0,1.5s0,1.2,0,1.5c-.2.9-.9,1.7-1.8,2l-.5.2,1.8,1.8h.2c.7-.5,1.2-.9,1.7-1.5.4-.6.8-1.3.9-2,.1-.5.1-1,.1-1.8v-.2c0-.8,0-1.4-.1-1.8Z"/>
            </g>
        </symbol>
        <symbol viewBox="0 0 20 15" id="filter">
            <path class="fillStyle" d="M0 1.5C0 1.10218 0.158035 0.720644 0.43934 0.43934C0.720644 0.158035 1.10218 0 1.5 0L18.5 0C18.8978 8.38353e-09 19.2794 0.158035 19.5607 0.43934C19.842 0.720644 20 1.10218 20 1.5C20 1.89782 19.842 2.27936 19.5607 2.56066C19.2794 2.84196 18.8978 3 18.5 3L1.5 3C1.10218 3 0.720644 2.84196 0.43934 2.56066C0.158035 2.27936 0 1.89782 0 1.5ZM4 7.5C4 7.10218 4.15804 6.72064 4.43934 6.43934C4.72064 6.15804 5.10218 6 5.5 6L14.5 6C14.8978 6 15.2794 6.15804 15.5607 6.43934C15.842 6.72064 16 7.10218 16 7.5C16 7.89782 15.842 8.27936 15.5607 8.56066C15.2794 8.84196 14.8978 9 14.5 9L5.5 9C5.10218 9 4.72064 8.84196 4.43934 8.56066C4.15804 8.27936 4 7.89782 4 7.5ZM8.5 12C8.10218 12 7.72064 12.158 7.43934 12.4393C7.15804 12.7206 7 13.1022 7 13.5C7 13.8978 7.15804 14.2794 7.43934 14.5607C7.72064 14.842 8.10218 15 8.5 15H11.5C11.8978 15 12.2794 14.842 12.5607 14.5607C12.842 14.2794 13 13.8978 13 13.5C13 13.1022 12.842 12.7206 12.5607 12.4393C12.2794 12.158 11.8978 12 11.5 12H8.5Z" />
        </symbol>
    </defs>
</svg>