<svg width="323" height="91" viewBox="0 0 323 91" fill="none" xmlns="http://www.w3.org/2000/svg">
<path d="M65.8594 43.2735L59.2344 34.9922V50.5078H54.7031V28.1016H59.2969L65.9219 36.8516L72.75 28.1016H77.1562V50.5078H72.6094V34.9922L66.0156 43.2735H65.8594ZM83.6719 52.461C84.1615 52.461 84.5208 52.3724 84.75 52.1953C84.9896 52.0183 85.1771 51.7318 85.3125 51.336L85.4688 50.8203L79.6719 33.7735H84.4688L87.7969 45.3203L90.5625 33.7735H95.2969L89.6562 52.586C89.4688 53.211 89.2083 53.7474 88.875 54.1953C88.5417 54.6433 88.1458 55.0078 87.6875 55.2891C87.2292 55.5808 86.7188 55.7943 86.1562 55.9297C85.6042 56.0651 85.0104 56.1328 84.375 56.1328C84.1146 56.1328 83.8125 56.1224 83.4688 56.1016C83.1354 56.0808 82.7865 56.0495 82.4219 56.0078C82.0677 55.9766 81.7135 55.9349 81.3594 55.8828C81.0156 55.8308 80.6979 55.7683 80.4062 55.6953L81.2188 52.1641C81.4688 52.2266 81.7292 52.2787 82 52.3203C82.2396 52.362 82.5 52.3933 82.7812 52.4141C83.0729 52.4453 83.3698 52.461 83.6719 52.461ZM114.422 46.3516H106.125L104.859 50.5078H100.047L107.375 28.1016H113.328L120.766 50.5078H115.703L114.422 46.3516ZM107.344 42.3516H113.203L110.297 32.8828H110.234L107.344 42.3516ZM127.219 55.7891H122.906V33.7735H127.219V35.211C127.688 34.7214 128.266 34.3047 128.953 33.961C129.641 33.6172 130.474 33.4453 131.453 33.4453C132.557 33.4453 133.557 33.6693 134.453 34.1172C135.359 34.5547 136.135 35.1641 136.781 35.9453C137.427 36.7162 137.927 37.6328 138.281 38.6953C138.635 39.7578 138.812 40.9089 138.812 42.1485C138.812 43.3881 138.63 44.5391 138.266 45.6016C137.901 46.6641 137.391 47.5808 136.734 48.3516C136.078 49.1224 135.292 49.7266 134.375 50.1641C133.458 50.6016 132.448 50.8203 131.344 50.8203C130.854 50.8203 130.406 50.7735 130 50.6797C129.604 50.5964 129.24 50.4766 128.906 50.3203C128.573 50.1641 128.266 49.9818 127.984 49.7735C127.703 49.5547 127.448 49.3203 127.219 49.0703V55.7891ZM127.094 43.6953C127.094 44.1433 127.172 44.5599 127.328 44.9453C127.495 45.3203 127.729 45.6485 128.031 45.9297C128.333 46.211 128.693 46.4297 129.109 46.586C129.536 46.7422 130.016 46.8203 130.547 46.8203C131.161 46.8203 131.703 46.711 132.172 46.4922C132.651 46.2631 133.052 45.9453 133.375 45.5391C133.698 45.1328 133.943 44.6537 134.109 44.1016C134.276 43.5391 134.359 42.9245 134.359 42.2578V42.0547C134.359 41.3881 134.276 40.7735 134.109 40.211C133.943 39.6485 133.698 39.1641 133.375 38.7578C133.052 38.3412 132.651 38.0183 132.172 37.7891C131.703 37.5599 131.161 37.4453 130.547 37.4453C130.016 37.4453 129.536 37.5235 129.109 37.6797C128.693 37.836 128.333 38.0547 128.031 38.336C127.729 38.6172 127.495 38.9506 127.328 39.336C127.172 39.7214 127.094 40.1381 127.094 40.586V43.6953ZM146 55.7891H141.688V33.7735H146V35.211C146.469 34.7214 147.047 34.3047 147.734 33.961C148.422 33.6172 149.255 33.4453 150.234 33.4453C151.339 33.4453 152.339 33.6693 153.234 34.1172C154.141 34.5547 154.917 35.1641 155.562 35.9453C156.208 36.7162 156.708 37.6328 157.062 38.6953C157.417 39.7578 157.594 40.9089 157.594 42.1485C157.594 43.3881 157.411 44.5391 157.047 45.6016C156.682 46.6641 156.172 47.5808 155.516 48.3516C154.859 49.1224 154.073 49.7266 153.156 50.1641C152.24 50.6016 151.229 50.8203 150.125 50.8203C149.635 50.8203 149.188 50.7735 148.781 50.6797C148.385 50.5964 148.021 50.4766 147.688 50.3203C147.354 50.1641 147.047 49.9818 146.766 49.7735C146.484 49.5547 146.229 49.3203 146 49.0703V55.7891ZM145.875 43.6953C145.875 44.1433 145.953 44.5599 146.109 44.9453C146.276 45.3203 146.51 45.6485 146.812 45.9297C147.115 46.211 147.474 46.4297 147.891 46.586C148.318 46.7422 148.797 46.8203 149.328 46.8203C149.943 46.8203 150.484 46.711 150.953 46.4922C151.432 46.2631 151.833 45.9453 152.156 45.5391C152.479 45.1328 152.724 44.6537 152.891 44.1016C153.057 43.5391 153.141 42.9245 153.141 42.2578V42.0547C153.141 41.3881 153.057 40.7735 152.891 40.211C152.724 39.6485 152.479 39.1641 152.156 38.7578C151.833 38.3412 151.432 38.0183 150.953 37.7891C150.484 37.5599 149.943 37.4453 149.328 37.4453C148.797 37.4453 148.318 37.5235 147.891 37.6797C147.474 37.836 147.115 38.0547 146.812 38.336C146.51 38.6172 146.276 38.9506 146.109 39.336C145.953 39.7214 145.875 40.1381 145.875 40.586V43.6953ZM169.875 37.961H169.422C168.807 37.961 168.219 38.0235 167.656 38.1485C167.104 38.2735 166.615 38.5026 166.188 38.836C165.76 39.1589 165.417 39.6068 165.156 40.1797C164.906 40.7526 164.781 41.487 164.781 42.3828V50.5078H160.469V33.7735H164.781V35.6641C164.958 35.3828 165.188 35.112 165.469 34.8516C165.75 34.5912 166.078 34.362 166.453 34.1641C166.828 33.9558 167.25 33.7891 167.719 33.6641C168.188 33.5391 168.693 33.4766 169.234 33.4766H169.875V37.961ZM176.172 43.6328C176.245 44.1328 176.401 44.5912 176.641 45.0078C176.891 45.4245 177.203 45.7839 177.578 46.086C177.953 46.3776 178.385 46.6068 178.875 46.7735C179.365 46.9401 179.885 47.0235 180.438 47.0235C181.073 47.0235 181.76 46.9037 182.5 46.6641C183.24 46.4141 183.917 46.0547 184.531 45.586L186.609 48.6172C185.828 49.2735 184.87 49.8047 183.734 50.211C182.599 50.6172 181.391 50.8203 180.109 50.8203C178.953 50.8203 177.865 50.6224 176.844 50.2266C175.823 49.8308 174.927 49.2578 174.156 48.5078C173.396 47.7578 172.792 46.8464 172.344 45.7735C171.906 44.7006 171.688 43.4922 171.688 42.1485C171.688 40.9193 171.88 39.7735 172.266 38.711C172.661 37.6485 173.208 36.7266 173.906 35.9453C174.615 35.1641 175.458 34.5547 176.438 34.1172C177.417 33.6693 178.5 33.4453 179.688 33.4453C180.792 33.4453 181.818 33.6485 182.766 34.0547C183.714 34.4506 184.536 35.0131 185.234 35.7422C185.932 36.461 186.479 37.3256 186.875 38.336C187.271 39.3464 187.469 40.461 187.469 41.6797V43.6328H176.172ZM179.672 37.1953C178.745 37.1953 177.958 37.5078 177.312 38.1328C176.677 38.7474 176.307 39.4922 176.203 40.3672H182.953C182.932 39.4818 182.609 38.7318 181.984 38.1172C181.359 37.5026 180.589 37.1953 179.672 37.1953ZM190.219 33.7735H194.531V35.211C194.76 34.9818 195.016 34.7631 195.297 34.5547C195.589 34.336 195.906 34.1485 196.25 33.9922C196.594 33.8256 196.974 33.6953 197.391 33.6016C197.818 33.4974 198.286 33.4453 198.797 33.4453C199.703 33.4453 200.516 33.5964 201.234 33.8985C201.953 34.1901 202.557 34.5964 203.047 35.1172C203.547 35.6381 203.927 36.2474 204.188 36.9453C204.448 37.6433 204.578 38.3985 204.578 39.211V50.5078H200.266V40.7735C200.266 40.1797 200.198 39.6797 200.062 39.2735C199.927 38.8568 199.74 38.5235 199.5 38.2735C199.271 38.0131 198.995 37.8256 198.672 37.711C198.359 37.586 198.016 37.5235 197.641 37.5235C197.203 37.5235 196.792 37.6016 196.406 37.7578C196.031 37.9141 195.703 38.1537 195.422 38.4766C195.141 38.7891 194.922 39.1849 194.766 39.6641C194.609 40.1433 194.531 40.7058 194.531 41.3516V50.5078H190.219V33.7735ZM214.359 45.5235C214.359 45.7214 214.385 45.9089 214.438 46.086C214.49 46.2631 214.578 46.4193 214.703 46.5547C214.839 46.6797 215.026 46.7787 215.266 46.8516C215.505 46.9245 215.812 46.961 216.188 46.961C216.344 46.961 216.521 46.9558 216.719 46.9453C216.917 46.9245 217.115 46.9037 217.312 46.8828C217.51 46.862 217.693 46.836 217.859 46.8047C218.036 46.7735 218.182 46.7474 218.297 46.7266L218.688 50.5391C218.281 50.5912 217.859 50.6381 217.422 50.6797C217.047 50.7214 216.63 50.7526 216.172 50.7735C215.714 50.8047 215.25 50.8203 214.781 50.8203C213.292 50.8203 212.13 50.4818 211.297 49.8047C210.464 49.1276 210.047 48.0495 210.047 46.5703V37.5235H207.031V33.7735H210.047V29.0391L214.359 27.8828V33.7735H218.75V37.5235H214.359V45.5235ZM225.781 50.5078H221.469V33.7735H225.781V50.5078ZM221.016 29.3828C221.016 29.0287 221.083 28.6953 221.219 28.3828C221.354 28.0599 221.536 27.7839 221.766 27.5547C222.005 27.3151 222.281 27.1276 222.594 26.9922C222.906 26.8568 223.245 26.7891 223.609 26.7891C223.964 26.7891 224.297 26.8568 224.609 26.9922C224.932 27.1276 225.208 27.3151 225.438 27.5547C225.677 27.7839 225.865 28.0599 226 28.3828C226.135 28.6953 226.203 29.0287 226.203 29.3828C226.203 29.7474 226.135 30.086 226 30.3985C225.865 30.711 225.677 30.987 225.438 31.2266C225.208 31.4558 224.932 31.6381 224.609 31.7735C224.297 31.9089 223.964 31.9766 223.609 31.9766C223.245 31.9766 222.906 31.9089 222.594 31.7735C222.281 31.6381 222.005 31.4558 221.766 31.2266C221.536 30.987 221.354 30.711 221.219 30.3985C221.083 30.086 221.016 29.7474 221.016 29.3828ZM233.078 42.2266C233.078 42.7683 233.151 43.3151 233.297 43.8672C233.443 44.4089 233.667 44.8985 233.969 45.336C234.271 45.7735 234.656 46.1328 235.125 46.4141C235.604 46.6849 236.172 46.8203 236.828 46.8203C237.255 46.8203 237.641 46.7631 237.984 46.6485C238.339 46.5339 238.651 46.3776 238.922 46.1797C239.203 45.9714 239.448 45.7318 239.656 45.461C239.875 45.1797 240.062 44.8776 240.219 44.5547L244 46.5078C243.729 47.1641 243.354 47.7578 242.875 48.2891C242.406 48.8203 241.859 49.2735 241.234 49.6485C240.609 50.0235 239.917 50.3099 239.156 50.5078C238.396 50.7162 237.589 50.8203 236.734 50.8203C235.557 50.8203 234.474 50.6016 233.484 50.1641C232.495 49.7162 231.641 49.1068 230.922 48.336C230.203 47.5651 229.641 46.6537 229.234 45.6016C228.828 44.5391 228.625 43.3881 228.625 42.1485C228.625 40.9193 228.828 39.7735 229.234 38.711C229.641 37.6485 230.203 36.7266 230.922 35.9453C231.641 35.1641 232.495 34.5547 233.484 34.1172C234.474 33.6693 235.557 33.4453 236.734 33.4453C237.589 33.4453 238.396 33.5495 239.156 33.7578C239.917 33.9558 240.609 34.2474 241.234 34.6328C241.859 35.0078 242.406 35.461 242.875 35.9922C243.354 36.5235 243.729 37.1172 244 37.7735L240.219 39.7266C240.062 39.4037 239.875 39.1068 239.656 38.836C239.448 38.5547 239.203 38.3151 238.922 38.1172C238.651 37.9089 238.339 37.7474 237.984 37.6328C237.641 37.5078 237.255 37.4453 236.828 37.4453C236.172 37.4453 235.604 37.586 235.125 37.8672C234.656 38.1381 234.271 38.4974 233.969 38.9453C233.667 39.3828 233.443 39.8776 233.297 40.4297C233.151 40.9818 233.078 41.5339 233.078 42.086V42.2266ZM250.266 43.6328C250.339 44.1328 250.495 44.5912 250.734 45.0078C250.984 45.4245 251.297 45.7839 251.672 46.086C252.047 46.3776 252.479 46.6068 252.969 46.7735C253.458 46.9401 253.979 47.0235 254.531 47.0235C255.167 47.0235 255.854 46.9037 256.594 46.6641C257.333 46.4141 258.01 46.0547 258.625 45.586L260.703 48.6172C259.922 49.2735 258.964 49.8047 257.828 50.211C256.693 50.6172 255.484 50.8203 254.203 50.8203C253.047 50.8203 251.958 50.6224 250.938 50.2266C249.917 49.8308 249.021 49.2578 248.25 48.5078C247.49 47.7578 246.885 46.8464 246.438 45.7735C246 44.7006 245.781 43.4922 245.781 42.1485C245.781 40.9193 245.974 39.7735 246.359 38.711C246.755 37.6485 247.302 36.7266 248 35.9453C248.708 35.1641 249.552 34.5547 250.531 34.1172C251.51 33.6693 252.594 33.4453 253.781 33.4453C254.885 33.4453 255.911 33.6485 256.859 34.0547C257.807 34.4506 258.63 35.0131 259.328 35.7422C260.026 36.461 260.573 37.3256 260.969 38.336C261.365 39.3464 261.562 40.461 261.562 41.6797V43.6328H250.266ZM253.766 37.1953C252.839 37.1953 252.052 37.5078 251.406 38.1328C250.771 38.7474 250.401 39.4922 250.297 40.3672H257.047C257.026 39.4818 256.703 38.7318 256.078 38.1172C255.453 37.5026 254.682 37.1953 253.766 37.1953ZM265.5 45.1641C266.115 45.7162 266.849 46.1901 267.703 46.586C268.557 46.9818 269.422 47.1797 270.297 47.1797C270.932 47.1797 271.432 47.0599 271.797 46.8203C272.161 46.5703 272.344 46.2526 272.344 45.8672C272.344 45.211 271.641 44.7006 270.234 44.336L269.016 44.0078C268.411 43.862 267.802 43.6641 267.188 43.4141C266.573 43.1537 266.005 42.8151 265.484 42.3985C264.974 41.9818 264.557 41.4766 264.234 40.8828C263.922 40.2787 263.766 39.5391 263.766 38.6641C263.766 37.9662 263.917 37.3047 264.219 36.6797C264.531 36.0443 264.969 35.487 265.531 35.0078C266.104 34.5287 266.797 34.1485 267.609 33.8672C268.422 33.586 269.328 33.4453 270.328 33.4453C271.755 33.4453 273.026 33.6693 274.141 34.1172C275.266 34.5651 276.151 35.0703 276.797 35.6328L274.547 38.5078C274.016 38.1224 273.385 37.7943 272.656 37.5235C271.938 37.2422 271.214 37.1016 270.484 37.1016C269.807 37.1016 269.281 37.2266 268.906 37.4766C268.531 37.7162 268.344 38.0078 268.344 38.3516C268.344 38.7162 268.505 39.0131 268.828 39.2422C269.161 39.461 269.641 39.6537 270.266 39.8203L272.078 40.336C273.807 40.8256 275.047 41.487 275.797 42.3203C276.547 43.1537 276.922 44.2058 276.922 45.4766C276.922 46.1849 276.776 46.862 276.484 47.5078C276.193 48.1433 275.766 48.711 275.203 49.211C274.641 49.711 273.943 50.1068 273.109 50.3985C272.276 50.6797 271.328 50.8203 270.266 50.8203C269.453 50.8203 268.688 50.7474 267.969 50.6016C267.26 50.4558 266.599 50.2578 265.984 50.0078C265.38 49.7474 264.833 49.4558 264.344 49.1328C263.854 48.8099 263.438 48.487 263.094 48.1641L265.5 45.1641ZM279.719 28.1016H284.031V35.211C284.26 34.9818 284.516 34.7631 284.797 34.5547C285.089 34.336 285.406 34.1485 285.75 33.9922C286.094 33.8256 286.474 33.6953 286.891 33.6016C287.318 33.4974 287.786 33.4453 288.297 33.4453C289.203 33.4453 290.016 33.5964 290.734 33.8985C291.453 34.1901 292.057 34.5964 292.547 35.1172C293.047 35.6381 293.427 36.2474 293.688 36.9453C293.948 37.6433 294.078 38.3985 294.078 39.211V50.5078H289.766V40.7735C289.766 40.1797 289.698 39.6797 289.562 39.2735C289.427 38.8568 289.24 38.5235 289 38.2735C288.771 38.0131 288.495 37.8256 288.172 37.711C287.859 37.586 287.516 37.5235 287.141 37.5235C286.703 37.5235 286.292 37.6016 285.906 37.7578C285.531 37.9141 285.203 38.1537 284.922 38.4766C284.641 38.7891 284.422 39.1849 284.266 39.6641C284.109 40.1433 284.031 40.7058 284.031 41.3516V50.5078H279.719V28.1016ZM302 50.5078H297.688V33.7735H302V50.5078ZM297.234 29.3828C297.234 29.0287 297.302 28.6953 297.438 28.3828C297.573 28.0599 297.755 27.7839 297.984 27.5547C298.224 27.3151 298.5 27.1276 298.812 26.9922C299.125 26.8568 299.464 26.7891 299.828 26.7891C300.182 26.7891 300.516 26.8568 300.828 26.9922C301.151 27.1276 301.427 27.3151 301.656 27.5547C301.896 27.7839 302.083 28.0599 302.219 28.3828C302.354 28.6953 302.422 29.0287 302.422 29.3828C302.422 29.7474 302.354 30.086 302.219 30.3985C302.083 30.711 301.896 30.987 301.656 31.2266C301.427 31.4558 301.151 31.6381 300.828 31.7735C300.516 31.9089 300.182 31.9766 299.828 31.9766C299.464 31.9766 299.125 31.9089 298.812 31.7735C298.5 31.6381 298.224 31.4558 297.984 31.2266C297.755 30.987 297.573 30.711 297.438 30.3985C297.302 30.086 297.234 29.7474 297.234 29.3828ZM310.031 55.7891H305.719V33.7735H310.031V35.211C310.5 34.7214 311.078 34.3047 311.766 33.961C312.453 33.6172 313.286 33.4453 314.266 33.4453C315.37 33.4453 316.37 33.6693 317.266 34.1172C318.172 34.5547 318.948 35.1641 319.594 35.9453C320.24 36.7162 320.74 37.6328 321.094 38.6953C321.448 39.7578 321.625 40.9089 321.625 42.1485C321.625 43.3881 321.443 44.5391 321.078 45.6016C320.714 46.6641 320.203 47.5808 319.547 48.3516C318.891 49.1224 318.104 49.7266 317.188 50.1641C316.271 50.6016 315.26 50.8203 314.156 50.8203C313.667 50.8203 313.219 50.7735 312.812 50.6797C312.417 50.5964 312.052 50.4766 311.719 50.3203C311.385 50.1641 311.078 49.9818 310.797 49.7735C310.516 49.5547 310.26 49.3203 310.031 49.0703V55.7891ZM309.906 43.6953C309.906 44.1433 309.984 44.5599 310.141 44.9453C310.307 45.3203 310.542 45.6485 310.844 45.9297C311.146 46.211 311.505 46.4297 311.922 46.586C312.349 46.7422 312.828 46.8203 313.359 46.8203C313.974 46.8203 314.516 46.711 314.984 46.4922C315.464 46.2631 315.865 45.9453 316.188 45.5391C316.51 45.1328 316.755 44.6537 316.922 44.1016C317.089 43.5391 317.172 42.9245 317.172 42.2578V42.0547C317.172 41.3881 317.089 40.7735 316.922 40.211C316.755 39.6485 316.51 39.1641 316.188 38.7578C315.865 38.3412 315.464 38.0183 314.984 37.7891C314.516 37.5599 313.974 37.4453 313.359 37.4453C312.828 37.4453 312.349 37.5235 311.922 37.6797C311.505 37.836 311.146 38.0547 310.844 38.336C310.542 38.6172 310.307 38.9506 310.141 39.336C309.984 39.7214 309.906 40.1381 309.906 40.586V43.6953Z" fill="black"/>
<mask id="mask0_4900_7415" style="mask-type:luminance" maskUnits="userSpaceOnUse" x="31" y="0" width="15" height="40">
<path d="M32.9267 0.507843C32.8297 0.507843 32.7812 0.556483 32.6842 0.653764C31.4234 6.24738 30.696 11.8896 31.181 17.6778C32.0053 27.0167 36.5152 33.9236 44.371 38.7877C44.6135 38.9336 44.9045 38.9822 45.1954 39.0795C45.1954 38.739 45.0984 38.5931 44.953 38.4958C37.2426 30.1297 33.5571 20.1585 33.0722 8.92259C32.9267 6.19874 33.1692 3.42625 33.2177 0.653764C33.1207 0.556483 33.0237 0.507843 32.9267 0.507843Z" fill="white"/>
</mask>
<g mask="url(#mask0_4900_7415)">
<path d="M39.3278 46.2296L11.8323 23.466L36.5637 -6.64226L64.0592 16.1213L39.3278 46.2296Z" fill="url(#paint0_radial_4900_7415)"/>
</g>
<mask id="mask1_4900_7415" style="mask-type:luminance" maskUnits="userSpaceOnUse" x="0" y="43" width="39" height="13">
<path d="M0.0484929 43.2139C0 43.2626 0 43.3112 0 43.3598C0 43.4085 0 43.4571 0.0484929 43.5058C0.193972 43.749 0.436436 43.9922 0.678901 44.1867C2.18218 45.7432 3.58848 47.397 5.23724 48.8562C10.232 53.3311 16.0997 55.6172 22.8402 55.374C27.9319 55.1794 32.7327 53.5743 37.4365 51.7259C37.6305 51.6287 37.8245 51.6287 38.1154 51.5314C37.7275 51.2395 37.679 51.1909 37.6305 51.1909C37.485 51.1909 37.3396 51.1909 37.1941 51.2395C32.4418 52.5528 27.5925 52.7474 22.6462 52.3583C18.8638 52.0664 15.2753 51.1909 11.7838 49.7803C7.85586 48.2725 4.31587 46.0837 1.06684 43.4571C0.872873 43.3112 0.484929 43.1166 0.242465 43.1166C0.0969859 43.1653 0.0484929 43.1653 0.0484929 43.2139Z" fill="white"/>
</mask>
<g mask="url(#mask1_4900_7415)">
<path d="M22.6462 74.3923L-6.11011 50.6072L15.4208 24.3902L44.1771 48.2238L22.6462 74.3923Z" fill="url(#paint1_radial_4900_7415)"/>
</g>
<mask id="mask2_4900_7415" style="mask-type:luminance" maskUnits="userSpaceOnUse" x="38" y="63" width="14" height="28">
<path d="M50.1902 63.2537C50.1417 63.3996 50.0932 63.4969 50.0932 63.6428C49.8507 66.1234 49.6568 68.6527 49.3658 71.1334C48.9294 74.7327 47.911 78.1862 46.1168 81.3478C44.2255 84.6553 41.6069 87.3306 38.6489 89.6166C38.3579 89.8598 37.9215 90.0058 38.3094 90.4922H38.6489C38.7458 90.4435 38.8428 90.3462 38.9398 90.2976C45.5833 88.1088 49.3173 83.488 50.6266 76.727C51.4025 72.7385 51.16 68.7014 50.7236 64.7129C50.6751 64.1778 50.5296 63.6914 50.3841 63.205C50.3841 63.2537 50.2872 63.2537 50.1902 63.2537Z" fill="white"/>
</mask>
<g mask="url(#mask2_4900_7415)">
<path d="M45.9713 97.2045L24.5374 79.4995L43.3527 56.59L64.7866 74.295L45.9713 97.2045Z" fill="url(#paint2_radial_4900_7415)"/>
</g>
<mask id="mask3_4900_7415" style="mask-type:luminance" maskUnits="userSpaceOnUse" x="2" y="29" width="37" height="20">
<path d="M2.95807 29.4974C3.00656 29.7406 3.00656 30.0324 3.10355 30.2756C3.87943 32.124 4.60683 34.0696 5.57669 35.8206C8.72873 41.5601 13.4325 45.4027 19.7366 47.2997C24.8769 48.8562 30.1626 48.9048 35.4483 48.2239C36.3697 48.1266 37.2426 47.932 38.1154 47.7861C38.1154 47.6888 38.1154 47.5429 38.067 47.4456C37.9215 47.397 37.776 47.3483 37.582 47.3483C35.8363 47.251 34.0905 47.2024 32.3448 47.0565C26.7681 46.6674 21.5309 45.1109 16.6816 42.1925C11.5898 39.0795 7.46791 34.8478 3.87943 30.0811C3.68546 29.8379 3.443 29.5947 3.20053 29.3515C3.10355 29.4001 3.05505 29.4487 2.95807 29.4974Z" fill="white"/>
</mask>
<g mask="url(#mask3_4900_7415)">
<path d="M23.907 66.2207L-6.59506 41.0251L17.1665 12.0356L47.6685 37.2798L23.907 66.2207Z" fill="url(#paint3_radial_4900_7415)"/>
</g>
<mask id="mask4_4900_7415" style="mask-type:luminance" maskUnits="userSpaceOnUse" x="9" y="16" width="31" height="29">
<path d="M9.26215 17.1914C9.74708 19.5748 10.0865 22.0068 10.7654 24.3415C13.1901 32.8049 18.6698 38.3985 26.8651 41.5115C30.5021 42.8734 34.2845 43.603 38.1154 44.1381C38.6004 44.1867 39.0853 44.1867 39.5702 44.2354C39.5702 44.0894 39.6187 43.9922 39.6187 43.8462C38.7458 43.603 37.873 43.3112 37.0001 43.068C28.2229 40.636 21.0459 35.9179 15.8572 28.2814C13.6265 24.9739 11.7838 21.4231 10.2805 17.7265C10.1835 17.4346 9.94105 17.2401 9.74708 16.9969C9.6016 17.0455 9.45612 17.0941 9.26215 17.1914Z" fill="white"/>
</mask>
<g mask="url(#mask4_4900_7415)">
<path d="M27.35 59.1193L-4.0249 33.194L21.5794 2.01569L52.9543 27.9895L27.35 59.1193Z" fill="url(#paint4_radial_4900_7415)"/>
</g>
<mask id="mask5_4900_7415" style="mask-type:luminance" maskUnits="userSpaceOnUse" x="20" y="6" width="23" height="36">
<path d="M20.6095 6.53923C20.2216 10.2359 20.3186 13.9325 20.949 17.5806C22.9372 29.5947 29.9202 37.2798 41.316 41.1224C41.5585 41.2197 41.8494 41.171 42.1889 41.171C42.0919 40.9765 42.0919 40.8792 42.0434 40.8792C41.7524 40.6846 41.51 40.5387 41.219 40.3442C33.0237 35.5288 27.35 28.7192 24.198 19.7694C22.7432 15.6836 21.7733 11.4519 21.2399 7.17155C21.1914 6.87971 21.0459 6.63651 20.9005 6.39331C20.8035 6.44195 20.7065 6.49059 20.6095 6.53923Z" fill="white"/>
</mask>
<g mask="url(#mask5_4900_7415)">
<path d="M33.2662 51.9692L3.20056 27.114L29.0473 -4.40481L59.1129 20.4503L33.2662 51.9692Z" fill="url(#paint5_radial_4900_7415)"/>
</g>
<mask id="mask6_4900_7415" style="mask-type:luminance" maskUnits="userSpaceOnUse" x="1" y="54" width="38" height="11">
<path d="M38.067 55.1308C30.987 59.8002 23.2281 61.454 14.8389 60.6271C10.717 60.1893 6.74053 59.022 2.90959 57.4168C2.52165 57.2709 2.1337 57.125 1.74576 57.0277C1.69727 57.1736 1.64877 57.2709 1.60028 57.4168C4.60684 59.9461 7.90436 61.8917 11.6383 63.1077C17.021 64.8588 22.4037 64.7129 27.6895 62.67C32.2963 60.9189 38.6974 56.3468 38.5034 54.9848C38.3094 54.9848 38.164 55.0335 38.067 55.1308Z" fill="white"/>
</mask>
<g mask="url(#mask6_4900_7415)">
<path d="M23.6646 83.0502L-3.29749 60.773L16.5846 36.6475L43.4982 58.9247L23.6646 83.0502Z" fill="url(#paint6_radial_4900_7415)"/>
</g>
<mask id="mask7_4900_7415" style="mask-type:luminance" maskUnits="userSpaceOnUse" x="7" y="58" width="34" height="15">
<path d="M7.22546 69.7228C7.17697 70.0147 7.6134 70.3551 7.90436 70.4524C9.55312 71.0847 11.2019 71.7657 12.9476 72.2035C17.9424 73.4681 22.8402 73.1763 27.4955 70.9388C33.0237 68.3122 37.0001 64.0319 40.3461 58.9733C40.4431 58.8274 40.4916 58.6328 40.5401 58.4383C40.4916 58.341 40.3946 58.2437 40.3461 58.1464C31.3749 68.0204 20.3186 71.7657 7.22546 69.7228Z" fill="white"/>
</mask>
<g mask="url(#mask7_4900_7415)">
<path d="M27.0106 89.8598L-0.290955 67.2908L20.658 41.7547L48.008 64.3724L27.0106 89.8598Z" fill="url(#paint7_radial_4900_7415)"/>
</g>
<mask id="mask8_4900_7415" style="mask-type:luminance" maskUnits="userSpaceOnUse" x="15" y="60" width="29" height="21">
<path d="M42.9162 61.0649C42.8193 61.2594 42.6738 61.4053 42.5768 61.5999C37.679 70.0633 30.599 75.9001 21.1914 78.7212C19.5911 79.2076 17.8939 79.4508 16.2451 79.84C16.0512 79.8886 15.9057 80.0345 15.7602 80.1318C15.9057 80.2777 16.0996 80.4237 16.2936 80.5209C16.4391 80.5696 16.6331 80.5696 16.827 80.5696C18.9122 80.5209 21.0459 80.5696 23.1311 80.375C27.059 79.9859 30.599 78.4294 33.7026 75.9974C38.4549 72.2521 41.2675 67.1935 43.2557 61.5999C43.3042 61.454 43.3042 61.2594 43.3042 60.9676C43.0132 61.0162 42.9162 61.0162 42.9162 61.0649Z" fill="white"/>
</mask>
<g mask="url(#mask8_4900_7415)">
<path d="M32.1508 94.0915L6.15857 72.5926L26.9135 47.3483L52.9058 68.8473L32.1508 94.0915Z" fill="url(#paint8_radial_4900_7415)"/>
</g>
<mask id="mask9_4900_7415" style="mask-type:luminance" maskUnits="userSpaceOnUse" x="26" y="62" width="21" height="26">
<path d="M46.1652 63.3509C45.4378 65.5398 44.8074 67.7286 43.8861 69.8687C41.6554 74.976 38.3579 79.3049 33.945 82.6611C31.7628 84.3149 29.3867 85.7254 26.8651 86.7955C26.6711 86.8928 26.5256 87.136 26.3801 87.3306C26.6226 87.3792 26.8651 87.5251 27.059 87.4765C28.0289 87.2819 28.9503 87.136 29.8716 86.8928C36.4667 85.1904 41.4129 81.5424 44.1285 75.1219C45.7773 71.2793 46.4077 67.1935 46.8441 63.0591C46.8441 62.9618 46.7472 62.8159 46.5532 62.5241C46.3107 62.9618 46.2137 63.1564 46.1652 63.3509Z" fill="white"/>
</mask>
<g mask="url(#mask9_4900_7415)">
<path d="M38.5033 97.5936L14.1114 77.408L34.6239 52.4555L59.0158 72.6412L38.5033 97.5936Z" fill="url(#paint9_radial_4900_7415)"/>
</g>
<mask id="mask10_4900_7415" style="mask-type:luminance" maskUnits="userSpaceOnUse" x="50" y="62" width="8" height="28">
<path d="M53.9241 63.3509C54.2636 65.2479 54.7 67.1449 54.8455 69.0905C55.0395 71.7657 55.2334 74.4896 55.0395 77.1648C54.7485 81.2019 53.2452 84.8499 51.0146 88.2061C50.8691 88.4493 50.8691 88.7411 50.7721 88.9843C50.8691 89.033 50.9661 89.033 51.0631 89.0816C54.7 86.2605 57.0762 82.6611 57.6096 77.943C58.24 72.6412 56.7367 67.7772 54.3606 63.1077C54.2636 62.9618 54.1181 62.8645 53.8756 62.6213C53.9726 63.0105 53.9241 63.205 53.9241 63.3509Z" fill="white"/>
</mask>
<g mask="url(#mask10_4900_7415)">
<path d="M55.2819 92.7782L37.9214 78.3808L53.8756 58.9733L71.2846 73.3708L55.2819 92.7782Z" fill="url(#paint10_radial_4900_7415)"/>
</g>
<mask id="mask11_4900_7415" style="mask-type:luminance" maskUnits="userSpaceOnUse" x="57" y="61" width="8" height="23">
<path d="M57.2701 61.3081C61.6345 68.1177 62.6529 75.6083 61.7315 83.488C61.8285 83.5853 61.877 83.6339 61.974 83.7312C62.1679 83.5366 62.5074 83.3421 62.6044 83.0989C64.3016 79.694 64.7381 76.0947 64.0592 72.3494C63.2833 68.1663 61.5375 64.5669 58.3855 61.6485C58.143 61.4053 57.8036 61.2594 57.5126 61.1135C57.4156 61.1621 57.3671 61.2108 57.2701 61.3081Z" fill="white"/>
</mask>
<g mask="url(#mask11_4900_7415)">
<path d="M61.7315 87.4278L46.2137 74.5868L60.2767 57.4168L75.7944 70.2578L61.7315 87.4278Z" fill="url(#paint11_radial_4900_7415)"/>
</g>
<defs>
<radialGradient id="paint0_radial_4900_7415" cx="0" cy="0" r="1" gradientUnits="userSpaceOnUse" gradientTransform="translate(49.6865 49.7956) rotate(-140.409) scale(57.2305 57.2633)">
<stop stop-color="#3374A7"/>
<stop offset="0.3701" stop-color="#258ECE"/>
<stop offset="0.751" stop-color="#8CD1F4"/>
<stop offset="1" stop-color="white"/>
</radialGradient>
<radialGradient id="paint1_radial_4900_7415" cx="0" cy="0" r="1" gradientUnits="userSpaceOnUse" gradientTransform="translate(49.6865 49.7956) rotate(-140.409) scale(57.2305 57.2633)">
<stop stop-color="#3374A7"/>
<stop offset="0.3701" stop-color="#258ECE"/>
<stop offset="0.751" stop-color="#8CD1F4"/>
<stop offset="1" stop-color="white"/>
</radialGradient>
<radialGradient id="paint2_radial_4900_7415" cx="0" cy="0" r="1" gradientUnits="userSpaceOnUse" gradientTransform="translate(49.6864 49.7956) rotate(-140.409) scale(57.2305 57.2633)">
<stop stop-color="#3374A7"/>
<stop offset="0.3701" stop-color="#258ECE"/>
<stop offset="0.751" stop-color="#8CD1F4"/>
<stop offset="1" stop-color="white"/>
</radialGradient>
<radialGradient id="paint3_radial_4900_7415" cx="0" cy="0" r="1" gradientUnits="userSpaceOnUse" gradientTransform="translate(49.6864 49.7956) rotate(-140.409) scale(57.2305 57.2633)">
<stop stop-color="#3374A7"/>
<stop offset="0.3701" stop-color="#258ECE"/>
<stop offset="0.751" stop-color="#8CD1F4"/>
<stop offset="1" stop-color="white"/>
</radialGradient>
<radialGradient id="paint4_radial_4900_7415" cx="0" cy="0" r="1" gradientUnits="userSpaceOnUse" gradientTransform="translate(49.6865 49.7956) rotate(-140.409) scale(57.2305 57.2633)">
<stop stop-color="#3374A7"/>
<stop offset="0.3701" stop-color="#258ECE"/>
<stop offset="0.751" stop-color="#8CD1F4"/>
<stop offset="1" stop-color="white"/>
</radialGradient>
<radialGradient id="paint5_radial_4900_7415" cx="0" cy="0" r="1" gradientUnits="userSpaceOnUse" gradientTransform="translate(49.6865 49.7956) rotate(-140.409) scale(57.2305 57.2633)">
<stop stop-color="#3374A7"/>
<stop offset="0.3701" stop-color="#258ECE"/>
<stop offset="0.751" stop-color="#8CD1F4"/>
<stop offset="1" stop-color="white"/>
</radialGradient>
<radialGradient id="paint6_radial_4900_7415" cx="0" cy="0" r="1" gradientUnits="userSpaceOnUse" gradientTransform="translate(49.6865 49.7956) rotate(-140.409) scale(57.2305 57.2633)">
<stop stop-color="#3374A7"/>
<stop offset="0.3701" stop-color="#258ECE"/>
<stop offset="0.751" stop-color="#8CD1F4"/>
<stop offset="1" stop-color="white"/>
</radialGradient>
<radialGradient id="paint7_radial_4900_7415" cx="0" cy="0" r="1" gradientUnits="userSpaceOnUse" gradientTransform="translate(49.6865 49.7956) rotate(-140.409) scale(57.2305 57.2633)">
<stop stop-color="#3374A7"/>
<stop offset="0.3701" stop-color="#258ECE"/>
<stop offset="0.751" stop-color="#8CD1F4"/>
<stop offset="1" stop-color="white"/>
</radialGradient>
<radialGradient id="paint8_radial_4900_7415" cx="0" cy="0" r="1" gradientUnits="userSpaceOnUse" gradientTransform="translate(49.6864 49.7956) rotate(-140.409) scale(57.2305 57.2633)">
<stop stop-color="#3374A7"/>
<stop offset="0.3701" stop-color="#258ECE"/>
<stop offset="0.751" stop-color="#8CD1F4"/>
<stop offset="1" stop-color="white"/>
</radialGradient>
<radialGradient id="paint9_radial_4900_7415" cx="0" cy="0" r="1" gradientUnits="userSpaceOnUse" gradientTransform="translate(49.6864 49.7956) rotate(-140.409) scale(57.2305 57.2633)">
<stop stop-color="#3374A7"/>
<stop offset="0.3701" stop-color="#258ECE"/>
<stop offset="0.751" stop-color="#8CD1F4"/>
<stop offset="1" stop-color="white"/>
</radialGradient>
<radialGradient id="paint10_radial_4900_7415" cx="0" cy="0" r="1" gradientUnits="userSpaceOnUse" gradientTransform="translate(49.6864 49.7956) rotate(-140.409) scale(57.2305 57.2633)">
<stop stop-color="#3374A7"/>
<stop offset="0.3701" stop-color="#258ECE"/>
<stop offset="0.751" stop-color="#8CD1F4"/>
<stop offset="1" stop-color="white"/>
</radialGradient>
<radialGradient id="paint11_radial_4900_7415" cx="0" cy="0" r="1" gradientUnits="userSpaceOnUse" gradientTransform="translate(49.679 49.7855) rotate(-140.409) scale(57.2312 57.264)">
<stop stop-color="#3374A7"/>
<stop offset="0.3701" stop-color="#258ECE"/>
<stop offset="0.751" stop-color="#8CD1F4"/>
<stop offset="1" stop-color="white"/>
</radialGradient>
</defs>
</svg>
