<svg width="126" height="176" viewBox="0 0 126 176" fill="none" xmlns="http://www.w3.org/2000/svg">
<mask id="mask0_25834_37559" style="mask-type:luminance" maskUnits="userSpaceOnUse" x="60" y="0" width="29" height="76">
<path d="M64.1781 0C63.9891 0 63.8945 0.0949658 63.7055 0.284898C61.2482 11.206 59.8305 22.222 60.7756 33.5229C62.3823 51.7564 71.1721 65.2415 86.4833 74.7381C86.9559 75.023 87.5229 75.118 88.09 75.3079C88.09 74.6432 87.901 74.3583 87.6175 74.1683C72.5898 57.8342 65.4068 38.3662 64.4616 16.4291C64.1781 11.111 64.6507 5.69795 64.7452 0.284898C64.5561 0.0949658 64.3671 0 64.1781 0Z" fill="white"/>
</mask>
<g mask="url(#mask0_25834_37559)">
<path d="M76.6556 89.2708L23.0664 44.8268L71.2684 -13.957L124.858 30.487L76.6556 89.2708Z" fill="#00FFE0"/>
</g>
<mask id="mask1_25834_37559" style="mask-type:luminance" maskUnits="userSpaceOnUse" x="0" y="83" width="75" height="25">
<path d="M0.0945136 83.3774C0 83.4724 0 83.5674 0 83.6623C0 83.7573 0 83.8523 0.0945136 83.9472C0.378055 84.4221 0.850623 84.8969 1.32319 85.2768C4.25311 88.3157 6.99401 91.5445 10.2075 94.3935C19.9424 103.13 31.3785 107.594 44.5159 107.119C54.4398 106.739 63.7967 103.605 72.9645 99.9965C73.3426 99.8065 73.7206 99.8065 74.2877 99.6166C73.5316 99.0468 73.4371 98.9518 73.3426 98.9518C73.059 98.9518 72.7755 98.9518 72.492 99.0468C63.2296 101.611 53.7783 101.991 44.1379 101.231C36.7658 100.661 29.7718 98.9518 22.9668 96.1978C15.3112 93.2539 8.41171 88.9804 2.0793 83.8523C1.70125 83.5674 0.945136 83.1875 0.472568 83.1875C0.189027 83.2825 0.0945136 83.2825 0.0945136 83.3774Z" fill="white"/>
</mask>
<g mask="url(#mask1_25834_37559)">
<path d="M44.1423 144.25L-11.9043 97.8116L30.0598 46.625L86.1063 93.1583L44.1423 144.25Z" fill="#00FFE0"/>
</g>
<mask id="mask2_25834_37559" style="mask-type:luminance" maskUnits="userSpaceOnUse" x="74" y="122" width="26" height="54">
<path d="M97.8276 122.509C97.7331 122.794 97.6386 122.984 97.6386 123.269C97.166 128.112 96.788 133.05 96.2209 137.893C95.3703 144.921 93.3855 151.664 89.8885 157.836C86.2024 164.294 81.0987 169.517 75.3334 173.981C74.7663 174.455 73.9157 174.74 74.6718 175.69H75.3334C75.5224 175.595 75.7114 175.405 75.9005 175.31C88.8488 171.037 96.1264 162.015 98.6783 148.815C100.19 141.027 99.7179 133.145 98.8673 125.358C98.7728 124.313 98.4892 123.364 98.2057 122.414C98.2057 122.509 98.0167 122.509 97.8276 122.509Z" fill="white"/>
</mask>
<g mask="url(#mask2_25834_37559)">
<path d="M89.6071 188.796L47.832 154.229L84.5033 109.5L126.278 144.068L89.6071 188.796Z" fill="#00FFE0"/>
</g>
<mask id="mask3_25834_37559" style="mask-type:luminance" maskUnits="userSpaceOnUse" x="5" y="56" width="70" height="38">
<path d="M5.76172 56.6052C5.85623 57.08 5.85623 57.6498 6.04526 58.1247C7.55748 61.7334 8.97518 65.532 10.8655 68.9508C17.0088 80.1567 26.1767 87.659 38.4634 91.3627C48.4819 94.4016 58.7839 94.4966 69.0859 93.167C70.8816 92.9771 72.5829 92.5972 74.2841 92.3124C74.2841 92.1224 74.2841 91.8375 74.1896 91.6476C73.9061 91.5526 73.6225 91.4577 73.2445 91.4577C69.842 91.2677 66.4395 91.1728 63.037 90.8879C52.1679 90.1281 41.9604 87.0892 32.5091 81.3913C22.5851 75.3135 14.5515 67.0514 7.55748 57.7448C7.17942 57.27 6.70686 56.7951 6.23429 56.3203C6.04526 56.4153 5.95075 56.5102 5.76172 56.6052Z" fill="white"/>
</mask>
<g mask="url(#mask3_25834_37559)">
<path d="M46.5917 128.304L-12.8574 79.1113L33.4543 22.5117L92.9034 71.799L46.5917 128.304Z" fill="#00FFE0"/>
</g>
<mask id="mask4_25834_37559" style="mask-type:luminance" maskUnits="userSpaceOnUse" x="18" y="32" width="60" height="54">
<path d="M18.0566 32.5752C19.0018 37.2285 19.6634 41.9768 20.9866 46.5352C25.7122 63.0592 36.3923 73.9803 52.3651 80.0581C59.4536 82.7171 66.8257 84.1416 74.2922 85.1862C75.2374 85.2812 76.1825 85.2812 77.1277 85.3762C77.1277 85.0913 77.2222 84.9014 77.2222 84.6165C75.5209 84.1416 73.8197 83.5718 72.1184 83.097C55.0115 78.3487 41.0235 69.137 30.9105 54.2274C26.5629 47.7697 22.9713 40.8372 20.0414 33.6198C19.8524 33.05 19.3798 32.6701 19.0018 32.1953C18.7182 32.2903 18.4347 32.3852 18.0566 32.5752Z" fill="white"/>
</mask>
<g mask="url(#mask4_25834_37559)">
<path d="M53.3085 114.435L-7.8418 63.8184L42.0614 2.94531L103.212 53.6571L53.3085 114.435Z" fill="#00FFE0"/>
</g>
<mask id="mask5_25834_37559" style="mask-type:luminance" maskUnits="userSpaceOnUse" x="39" y="11" width="44" height="69">
<path d="M40.1724 11.7771C39.4163 18.9945 39.6053 26.2119 40.834 33.3343C44.7091 56.7909 58.319 71.7955 80.5297 79.2978C81.0023 79.4877 81.5694 79.3928 82.231 79.3928C82.0419 79.0129 82.0419 78.823 81.9474 78.823C81.3803 78.4431 80.9078 78.1582 80.3407 77.7783C64.3679 68.3767 53.3098 55.0815 47.1664 37.6078C44.331 29.6307 42.4407 21.3686 41.4011 13.0116C41.3066 12.4418 41.023 11.967 40.7395 11.4922C40.5505 11.5872 40.3614 11.6821 40.1724 11.7771Z" fill="white"/>
</mask>
<g mask="url(#mask5_25834_37559)">
<path d="M64.8387 100.476L6.24023 51.948L56.616 -9.58984L115.214 38.9377L64.8387 100.476Z" fill="#00FFE0"/>
</g>
<mask id="mask6_25834_37559" style="mask-type:luminance" maskUnits="userSpaceOnUse" x="3" y="106" width="73" height="19">
<path d="M74.1934 106.648C60.3944 115.765 45.2722 118.994 28.9214 117.379C20.8877 116.525 13.1376 114.245 5.67101 111.112C4.9149 110.827 4.15879 110.542 3.40268 110.352C3.30817 110.637 3.21365 110.827 3.11914 111.112C8.97899 116.05 15.4059 119.848 22.6835 122.223C33.1745 125.641 43.6655 125.356 53.9675 121.368C62.9463 117.949 75.4221 109.022 75.044 106.363C74.666 106.363 74.3824 106.458 74.1934 106.648Z" fill="white"/>
</mask>
<g mask="url(#mask6_25834_37559)">
<path d="M46.1238 161.156L-6.42578 117.662L32.3248 70.5586L84.7799 114.053L46.1238 161.156Z" fill="#00FFE0"/>
</g>
<mask id="mask7_25834_37559" style="mask-type:luminance" maskUnits="userSpaceOnUse" x="14" y="112" width="66" height="30">
<path d="M14.0912 135.141C13.9967 135.711 14.8473 136.375 15.4144 136.565C18.6279 137.8 21.8414 139.129 25.2438 139.984C34.9788 142.453 44.5246 141.884 53.5979 137.515C64.3725 132.387 72.1226 124.03 78.6441 114.153C78.8331 113.869 78.9276 113.489 79.0221 113.109C78.9276 112.919 78.7386 112.729 78.6441 112.539C61.159 131.817 39.6099 139.13 14.0912 135.141Z" fill="white"/>
</mask>
<g mask="url(#mask7_25834_37559)">
<path d="M52.6506 174.456L-0.560547 130.392L40.2693 80.5352L93.575 124.694L52.6506 174.456Z" fill="#00FFE0"/>
</g>
<mask id="mask8_25834_37559" style="mask-type:luminance" maskUnits="userSpaceOnUse" x="30" y="118" width="55" height="39">
<path d="M83.6464 118.229C83.4574 118.609 83.1738 118.894 82.9848 119.274C73.4389 135.798 59.6399 147.194 41.3043 152.702C38.1853 153.651 34.8773 154.126 31.6639 154.886C31.2858 154.981 31.0023 155.266 30.7188 155.456C31.0023 155.74 31.3803 156.025 31.7584 156.215C32.0419 156.31 32.42 156.31 32.7981 156.31C36.8621 156.215 41.0207 156.31 45.0848 155.93C52.7404 155.171 59.6399 152.132 65.6888 147.383C74.9511 140.071 80.4329 130.195 84.308 119.274C84.4025 118.989 84.4025 118.609 84.4025 118.039C83.8354 118.134 83.6464 118.134 83.6464 118.229Z" fill="white"/>
</mask>
<g mask="url(#mask8_25834_37559)">
<path d="M62.6652 182.711L12.0059 140.736L52.4577 91.4492L103.117 133.424L62.6652 182.711Z" fill="#00FFE0"/>
</g>
<mask id="mask9_25834_37559" style="mask-type:luminance" maskUnits="userSpaceOnUse" x="51" y="121" width="41" height="49">
<path d="M89.9815 122.696C88.5638 126.97 87.3351 131.243 85.5393 135.422C81.1917 145.393 74.7648 153.845 66.164 160.398C61.9109 163.627 57.2798 166.381 52.3651 168.47C51.987 168.66 51.7035 169.135 51.4199 169.515C51.8925 169.61 52.3651 169.894 52.7431 169.8C54.6334 169.42 56.4291 169.135 58.2249 168.66C71.0788 165.336 80.7191 158.214 86.0119 145.678C89.2254 138.176 90.454 130.199 91.3047 122.127C91.3047 121.937 91.1156 121.652 90.7376 121.082C90.265 121.937 90.076 122.317 89.9815 122.696Z" fill="white"/>
</mask>
<g mask="url(#mask9_25834_37559)">
<path d="M75.0462 189.554L27.5059 150.143L67.4851 101.426L115.025 140.837L75.0462 189.554Z" fill="#00FFE0"/>
</g>
<mask id="mask10_25834_37559" style="mask-type:luminance" maskUnits="userSpaceOnUse" x="98" y="121" width="15" height="52">
<path d="M105.097 122.698C105.758 126.402 106.609 130.105 106.892 133.904C107.27 139.127 107.648 144.445 107.27 149.668C106.703 157.55 103.773 164.673 99.4257 171.225C99.1422 171.7 99.1422 172.27 98.9531 172.745C99.1422 172.84 99.3312 172.84 99.5202 172.935C106.609 167.427 111.24 160.399 112.28 151.188C113.508 140.836 110.578 131.34 105.947 122.223C105.758 121.938 105.475 121.748 105.002 121.273C105.191 122.033 105.097 122.413 105.097 122.698Z" fill="white"/>
</mask>
<g mask="url(#mask10_25834_37559)">
<path d="M107.746 180.154L73.9102 152.044L105.005 114.152L138.936 142.262L107.746 180.154Z" fill="#00FFE0"/>
</g>
<mask id="mask11_25834_37559" style="mask-type:luminance" maskUnits="userSpaceOnUse" x="111" y="118" width="15" height="45">
<path d="M111.621 118.704C120.127 131.999 122.112 146.624 120.316 162.008C120.505 162.198 120.6 162.293 120.789 162.483C121.167 162.103 121.829 161.724 122.018 161.249C125.326 154.601 126.176 147.574 124.853 140.261C123.341 132.094 119.938 125.067 113.795 119.369C113.322 118.894 112.661 118.609 112.094 118.324C111.905 118.419 111.81 118.514 111.621 118.704Z" fill="white"/>
</mask>
<g mask="url(#mask11_25834_37559)">
<path d="M120.319 169.703L90.0742 144.632L117.483 111.109L147.728 136.18L120.319 169.703Z" fill="#00FFE0"/>
</g>
</svg>
