<svg width="360" height="184" viewBox="0 0 360 184" fill="none" xmlns="http://www.w3.org/2000/svg">
<g id="Combines Your apprenticeship logo">
<g id="Wing">
<g id="Logo">
<g id="Group">
<g id="Logo_2">
<g id="Group_2">
<g id="Clip path group">
<mask id="mask0_27355_46628" style="mask-type:luminance" maskUnits="userSpaceOnUse" x="63" y="0" width="30" height="79">
<g id="SVGID_1_">
<path id="Vector" d="M67.6311 0C67.4338 0 67.3352 0.0990948 67.138 0.297284C64.5738 11.6932 63.0944 23.1882 64.0807 34.9805C65.7573 54.0067 74.9292 68.0781 90.9061 77.9876C91.3992 78.2849 91.9909 78.384 92.5827 78.5822C92.5827 77.8885 92.3854 77.5912 92.0896 77.393C76.4085 60.3487 68.9132 40.0343 67.927 17.1434C67.6311 11.5941 68.1242 5.94569 68.2228 0.297284C68.0256 0.0990948 67.8283 0 67.6311 0Z" fill="white"/>
</g>

                                    </mask>
<g mask="url(#mask0_27355_46628)">
<path id="Vector_2" d="M80.6521 93.1496L24.7329 46.7733L75.0306 -14.5664L130.95 31.8099L80.6521 93.1496Z" fill="white">
                                    <animate attributeName="fill" values="white;white;white;white;white;white;white;white;white;white;white;white;white;white;white;white;white;white;white;white;white;#00FFE0" begin="0s" dur="2s" repeatCount="0" fill="freeze" calcMode="linear" keyTimes="0;0.048;0.095;0.143;0.19;0.238;0.286;0.333;0.381;0.429;0.476;0.524;0.571;0.619;0.667;0.714;0.762;0.81;0.857;0.905;0.952;1"/></path>
</g>
</g>
</g>
<g id="Group_3">
<g id="Clip path group_2">
<mask id="mask1_27355_46628" style="mask-type:luminance" maskUnits="userSpaceOnUse" x="0" y="86" width="79" height="26">
<g id="SVGID_3_">
<path id="Vector_3" d="M0.760976 87.0009C0.662354 87.1 0.662354 87.1991 0.662354 87.2982C0.662354 87.3973 0.662354 87.4964 0.760976 87.5955C1.05685 88.091 1.54996 88.5864 2.04307 88.9828C5.10038 92.1539 7.96045 95.5231 11.3136 98.4959C21.4718 107.613 33.4052 112.27 47.1137 111.775C57.4692 111.378 67.2328 108.108 76.7992 104.343C77.1937 104.144 77.5882 104.144 78.18 103.946C77.391 103.352 77.2924 103.252 77.1937 103.252C76.8979 103.252 76.602 103.252 76.3061 103.352C66.6411 106.027 56.7788 106.423 46.7193 105.631C39.0267 105.036 31.7286 103.252 24.6277 100.379C16.6393 97.3068 9.43979 92.8475 2.83206 87.4964C2.43757 87.1991 1.64858 86.8027 1.15547 86.8027C0.859599 86.9018 0.760976 86.9018 0.760976 87.0009Z" fill="white"/>
</g>

                                    </mask>
<g mask="url(#mask1_27355_46628)">
<path id="Vector_4" d="M46.7234 150.522L-11.76 102.064L32.0286 48.6523L90.512 97.2088L46.7234 150.522Z" fill="white">
                                    <animate attributeName="fill" values="white;white;white;white;white;white;white;white;white;white;white;white;white;white;white;white;white;#00FFE0;#00FFE0;#00FFE0;#00FFE0;#00FFE0" begin="0s" dur="2s" repeatCount="0" fill="freeze" calcMode="linear" keyTimes="0;0.048;0.095;0.143;0.19;0.238;0.286;0.333;0.381;0.429;0.476;0.524;0.571;0.619;0.667;0.714;0.762;0.81;0.857;0.905;0.952;1"/></path>
</g>
</g>
</g>
<g id="Group_4">
<g id="Clip path group_3">
<mask id="mask2_27355_46628" style="mask-type:luminance" maskUnits="userSpaceOnUse" x="78" y="127" width="27" height="57">
<g id="SVGID_5_">
<path id="Vector_5" d="M102.743 127.833C102.645 128.131 102.546 128.329 102.546 128.626C102.053 133.68 101.659 138.833 101.067 143.887C100.179 151.22 98.1081 158.256 94.4591 164.697C90.6128 171.435 85.2871 176.885 79.2711 181.543C78.6794 182.038 77.7918 182.336 78.5808 183.327H79.2711C79.4684 183.227 79.6656 183.029 79.8629 182.93C93.3742 178.471 100.968 169.057 103.631 155.283C105.209 147.157 104.716 138.932 103.828 130.806C103.73 129.716 103.434 128.725 103.138 127.734C103.138 127.833 102.941 127.833 102.743 127.833Z" fill="white"/>
</g>

                                    </mask>
<g mask="url(#mask2_27355_46628)">
<path id="Vector_6" d="M94.1651 197.002L50.5737 160.931L88.8394 114.258L132.431 150.328L94.1651 197.002Z" fill="white">
                                    <animate attributeName="fill" values="white;white;white;white;white;white;white;white;white;white;white;white;#00FFE0;#00FFE0;#00FFE0;#00FFE0;#00FFE0;#00FFE0;#00FFE0;#00FFE0;#00FFE0;#00FFE0" begin="0s" dur="2s" repeatCount="0" fill="freeze" calcMode="linear" keyTimes="0;0.048;0.095;0.143;0.19;0.238;0.286;0.333;0.381;0.429;0.476;0.524;0.571;0.619;0.667;0.714;0.762;0.81;0.857;0.905;0.952;1"/></path>
</g>
</g>
</g>
<g id="Group_5">
<g id="Clip path group_4">
<mask id="mask3_27355_46628" style="mask-type:luminance" maskUnits="userSpaceOnUse" x="6" y="58" width="73" height="41">
<g id="SVGID_7_">
<path id="Vector_7" d="M6.67456 59.0668C6.77318 59.5623 6.77318 60.1569 6.97043 60.6523C8.5484 64.4179 10.0277 68.3817 12.0002 71.9491C18.4107 83.6423 27.9771 91.4708 40.7981 95.3355C51.2521 98.5065 62.002 98.6056 72.7519 97.2183C74.6258 97.0201 76.401 96.6237 78.1762 96.3264C78.1762 96.1283 78.1762 95.831 78.0776 95.6328C77.7817 95.5337 77.4858 95.4346 77.0913 95.4346C73.5409 95.2364 69.9905 95.1373 66.44 94.84C55.0984 94.0473 44.4471 90.8762 34.5848 84.9305C24.2294 78.5885 15.8465 69.9672 8.5484 60.256C8.1539 59.7605 7.66079 59.265 7.16768 58.7695C6.97043 58.8686 6.87181 58.9677 6.67456 59.0668Z" fill="white"/>
</g>

                                    </mask>
<g mask="url(#mask3_27355_46628)">
<path id="Vector_8" d="M49.2792 133.884L-12.7546 82.5527L35.5706 23.4922L97.6044 74.9224L49.2792 133.884Z" fill="white">
                                    <animate attributeName="fill" values="white;white;white;white;white;white;white;white;white;white;white;white;white;white;white;white;white;white;#00FFE0;#00FFE0;#00FFE0;#00FFE0" begin="0s" dur="2s" repeatCount="0" fill="freeze" calcMode="linear" keyTimes="0;0.048;0.095;0.143;0.19;0.238;0.286;0.333;0.381;0.429;0.476;0.524;0.571;0.619;0.667;0.714;0.762;0.81;0.857;0.905;0.952;1"/></path>
</g>
</g>
</g>
<g id="Group_6">
<g id="Clip path group_5">
<mask id="mask4_27355_46628" style="mask-type:luminance" maskUnits="userSpaceOnUse" x="19" y="33" width="63" height="57">
<g id="SVGID_9_">
<path id="Vector_9" d="M19.5034 33.9901C20.4896 38.8458 21.18 43.8005 22.5607 48.5571C27.4919 65.7996 38.6363 77.1955 55.3035 83.5375C62.7003 86.3122 70.3928 87.7986 78.1841 88.8886C79.1703 88.9877 80.1565 88.9877 81.1427 89.0868C81.1427 88.7895 81.2414 88.5914 81.2414 88.2941C79.4661 87.7986 77.6909 87.204 75.9157 86.7086C58.065 81.7538 43.4688 72.1416 32.9161 56.5837C28.3795 49.8453 24.6318 42.6114 21.5745 35.0802C21.3773 34.4856 20.8841 34.0892 20.4896 33.5938C20.1938 33.6928 19.8979 33.7919 19.5034 33.9901Z" fill="white"/>
</g>

                                    </mask>
<g mask="url(#mask4_27355_46628)">
<path id="Vector_10" d="M56.2876 119.41L-7.52148 66.592L44.5514 3.07227L108.36 55.9889L56.2876 119.41Z" fill="white">
                                    <animate attributeName="fill" values="white;white;white;white;white;white;white;white;white;white;white;white;white;white;white;white;white;white;white;#00FFE0;#00FFE0;#00FFE0" begin="0s" dur="2s" repeatCount="0" fill="freeze" calcMode="linear" keyTimes="0;0.048;0.095;0.143;0.19;0.238;0.286;0.333;0.381;0.429;0.476;0.524;0.571;0.619;0.667;0.714;0.762;0.81;0.857;0.905;0.952;1"/></path>
</g>
</g>
</g>
<g id="Group_7">
<g id="Clip path group_6">
<mask id="mask5_27355_46628" style="mask-type:luminance" maskUnits="userSpaceOnUse" x="42" y="11" width="45" height="72">
<g id="SVGID_11_">
<path id="Vector_11" d="M42.581 12.2895C41.792 19.8207 41.9893 27.3519 43.2714 34.784C47.3149 59.2604 61.5166 74.9174 84.693 82.7459C85.1861 82.9441 85.7779 82.845 86.4682 82.845C86.271 82.4486 86.271 82.2504 86.1724 82.2504C85.5806 81.854 85.0875 81.5567 84.4958 81.1604C67.8285 71.35 56.2896 57.4767 49.8791 39.2433C46.9204 30.9193 44.948 22.298 43.8631 13.5777C43.7645 12.9831 43.4686 12.4877 43.1728 11.9922C42.9755 12.0913 42.7783 12.1904 42.581 12.2895Z" fill="white"/>
</g>

                                    </mask>
<g mask="url(#mask5_27355_46628)">
<path id="Vector_12" d="M68.3205 104.843L7.17432 54.2056L59.7403 -10.0078L120.887 40.6296L68.3205 104.843Z" fill="white">
                                    <animate attributeName="fill" values="white;white;white;white;white;white;white;white;white;white;white;white;white;white;white;white;white;white;white;white;#00FFE0;#00FFE0" begin="0s" dur="2s" repeatCount="0" fill="freeze" calcMode="linear" keyTimes="0;0.048;0.095;0.143;0.19;0.238;0.286;0.333;0.381;0.429;0.476;0.524;0.571;0.619;0.667;0.714;0.762;0.81;0.857;0.905;0.952;1"/></path>
</g>
</g>
</g>
<g id="Group_8">
<g id="Clip path group_7">
<mask id="mask6_27355_46628" style="mask-type:luminance" maskUnits="userSpaceOnUse" x="3" y="110" width="76" height="21">
<g id="SVGID_13_">
<path id="Vector_13" d="M78.0817 111.286C63.6827 120.799 47.9031 124.168 30.8413 122.483C22.4583 121.591 14.3713 119.213 6.58006 115.943C5.79107 115.646 5.00209 115.348 4.21311 115.15C4.11448 115.448 4.01586 115.646 3.91724 115.943C10.0319 121.096 16.7382 125.06 24.3322 127.537C35.2793 131.105 46.2265 130.807 56.9764 126.645C66.3455 123.078 79.3638 113.763 78.9693 110.988C78.5748 110.988 78.2789 111.087 78.0817 111.286Z" fill="white"/>
</g>

                                    </mask>
<g mask="url(#mask6_27355_46628)">
<path id="Vector_14" d="M48.7916 168.163L-6.04272 122.778L34.3927 73.627L89.1284 119.012L48.7916 168.163Z" fill="white">
                                    <animate attributeName="fill" values="white;white;white;white;white;white;white;white;white;white;white;white;white;white;white;white;#00FFE0;#00FFE0;#00FFE0;#00FFE0;#00FFE0;#00FFE0" begin="0s" dur="2s" repeatCount="0" fill="freeze" calcMode="linear" keyTimes="0;0.048;0.095;0.143;0.19;0.238;0.286;0.333;0.381;0.429;0.476;0.524;0.571;0.619;0.667;0.714;0.762;0.81;0.857;0.905;0.952;1"/></path>
</g>
</g>
</g>
<g id="Group_9">
<g id="Clip path group_8">
<mask id="mask7_27355_46628" style="mask-type:luminance" maskUnits="userSpaceOnUse" x="15" y="117" width="69" height="31">
<g id="SVGID_15_">
<path id="Vector_15" d="M15.366 141.014C15.2673 141.609 16.1549 142.302 16.7467 142.501C20.0999 143.789 23.453 145.176 27.0035 146.068C37.1616 148.645 47.1226 148.05 56.5904 143.492C67.8334 138.141 75.9204 129.42 82.7254 119.114C82.9227 118.817 83.0213 118.421 83.1199 118.024C83.0213 117.826 82.8241 117.628 82.7254 117.43C64.4802 137.546 41.9942 145.176 15.366 141.014Z" fill="white"/>
</g>

                                    </mask>
<g mask="url(#mask7_27355_46628)">
<path id="Vector_16" d="M55.6011 182.038L0.076416 136.058L42.6815 84.0332L98.3048 130.112L55.6011 182.038Z" fill="white">
                                    <animate attributeName="fill" values="white;white;white;white;white;white;white;white;white;white;white;white;white;white;white;#00FFE0;#00FFE0;#00FFE0;#00FFE0;#00FFE0;#00FFE0;#00FFE0" begin="0s" dur="2s" repeatCount="0" fill="freeze" calcMode="linear" keyTimes="0;0.048;0.095;0.143;0.19;0.238;0.286;0.333;0.381;0.429;0.476;0.524;0.571;0.619;0.667;0.714;0.762;0.81;0.857;0.905;0.952;1"/></path>
</g>
</g>
</g>
<g id="Group_10">
<g id="Clip path group_9">
<mask id="mask8_27355_46628" style="mask-type:luminance" maskUnits="userSpaceOnUse" x="32" y="123" width="57" height="41">
<g id="SVGID_17_">
<path id="Vector_17" d="M87.9459 123.37C87.7486 123.766 87.4528 124.064 87.2555 124.46C77.2946 141.703 62.8957 153.594 43.7628 159.341C40.5083 160.332 37.0564 160.828 33.7033 161.621C33.3088 161.72 33.0129 162.017 32.717 162.215C33.0129 162.512 33.4074 162.81 33.8019 163.008C34.0978 163.107 34.4923 163.107 34.8867 163.107C39.1275 163.008 43.4669 163.107 47.7077 162.711C55.6962 161.918 62.8957 158.747 69.2075 153.792C78.8726 146.162 84.5927 135.856 88.6362 124.46C88.7349 124.163 88.7349 123.766 88.7349 123.172C88.1431 123.271 87.9459 123.271 87.9459 123.37Z" fill="white"/>
</g>

                                    </mask>
<g mask="url(#mask8_27355_46628)">
<path id="Vector_18" d="M66.0531 190.656L13.1912 146.856L55.4018 95.4258L108.264 139.226L66.0531 190.656Z" fill="white">
                                    <animate attributeName="fill" values="white;white;white;white;white;white;white;white;white;white;white;white;white;white;#00FFE0;#00FFE0;#00FFE0;#00FFE0;#00FFE0;#00FFE0;#00FFE0;#00FFE0" begin="0s" dur="2s" repeatCount="0" fill="freeze" calcMode="linear" keyTimes="0;0.048;0.095;0.143;0.19;0.238;0.286;0.333;0.381;0.429;0.476;0.524;0.571;0.619;0.667;0.714;0.762;0.81;0.857;0.905;0.952;1"/></path>
</g>
</g>
</g>
<g id="Group_11">
<g id="Clip path group_10">
<mask id="mask9_27355_46628" style="mask-type:luminance" maskUnits="userSpaceOnUse" x="54" y="126" width="42" height="52">
<g id="SVGID_19_">
<path id="Vector_19" d="M94.5563 128.032C93.0769 132.492 91.7948 136.951 89.921 141.311C85.3843 151.716 78.678 160.535 69.7033 167.373C65.2653 170.742 60.4327 173.616 55.3043 175.796C54.9099 175.994 54.614 176.49 54.3181 176.886C54.8112 176.985 55.3043 177.282 55.6988 177.183C57.6713 176.787 59.5451 176.49 61.419 175.994C74.8317 172.526 84.8912 165.094 90.4141 152.013C93.7673 144.185 95.0494 135.861 95.937 127.438C95.937 127.24 95.7397 126.942 95.3453 126.348C94.8521 127.24 94.6549 127.636 94.5563 128.032Z" fill="white"/>
</g>

                                    </mask>
<g mask="url(#mask9_27355_46628)">
<path id="Vector_20" d="M78.9718 197.798L29.3645 156.674L71.082 105.838L120.689 146.962L78.9718 197.798Z" fill="white">
                                    <animate attributeName="fill" values="white;white;white;white;white;white;white;white;white;white;white;white;white;#00FFE0;#00FFE0;#00FFE0;#00FFE0;#00FFE0;#00FFE0;#00FFE0;#00FFE0;#00FFE0" begin="0s" dur="2s" repeatCount="0" fill="freeze" calcMode="linear" keyTimes="0;0.048;0.095;0.143;0.19;0.238;0.286;0.333;0.381;0.429;0.476;0.524;0.571;0.619;0.667;0.714;0.762;0.81;0.857;0.905;0.952;1"/></path>
</g>
</g>
</g>
<g id="Group_12">
<g id="Clip path group_11">
<mask id="mask10_27355_46628" style="mask-type:luminance" maskUnits="userSpaceOnUse" x="103" y="126" width="16" height="55">
<g id="SVGID_21_">
<path id="Vector_21" d="M110.328 128.031C111.019 131.896 111.906 135.761 112.202 139.725C112.597 145.175 112.991 150.724 112.597 156.174C112.005 164.399 108.948 171.831 104.411 178.669C104.115 179.164 104.115 179.759 103.918 180.254C104.115 180.353 104.312 180.353 104.51 180.452C111.906 174.705 116.739 167.372 117.824 157.76C119.106 146.958 116.049 137.049 111.216 127.536C111.019 127.239 110.723 127.04 110.23 126.545C110.427 127.338 110.328 127.734 110.328 128.031Z" fill="white"/>
</g>

                                    </mask>
<g mask="url(#mask10_27355_46628)">
<path id="Vector_22" d="M113.092 187.984L77.7854 158.652L110.232 119.113L145.638 148.445L113.092 187.984Z" fill="white">
                                    <animate attributeName="fill" values="white;white;white;white;white;white;white;white;white;white;white;#00FFE0;#00FFE0;#00FFE0;#00FFE0;#00FFE0;#00FFE0;#00FFE0;#00FFE0;#00FFE0;#00FFE0;#00FFE0" begin="0s" dur="2s" repeatCount="0" fill="freeze" calcMode="linear" keyTimes="0;0.048;0.095;0.143;0.19;0.238;0.286;0.333;0.381;0.429;0.476;0.524;0.571;0.619;0.667;0.714;0.762;0.81;0.857;0.905;0.952;1"/></path>
</g>
</g>
</g>
<g id="Group_13">
<g id="Clip path group_12">
<mask id="mask11_27355_46628" style="mask-type:luminance" maskUnits="userSpaceOnUse" x="117" y="123" width="15" height="47">
<g id="SVGID_23_">
<path id="Vector_23" d="M117.137 123.865C126.013 137.738 128.084 152.999 126.21 169.052C126.407 169.251 126.506 169.35 126.703 169.548C127.098 169.151 127.788 168.755 127.985 168.26C131.437 161.323 132.325 153.99 130.944 146.36C129.366 137.837 125.816 130.504 119.405 124.559C118.912 124.063 118.222 123.766 117.63 123.469C117.433 123.568 117.334 123.667 117.137 123.865Z" fill="white"/>
</g>

                                    </mask>
<g mask="url(#mask11_27355_46628)">
<path id="Vector_24" d="M126.212 177.081L94.6526 150.92L123.253 115.939L154.813 142.1L126.212 177.081Z" fill="white">
                                    <animate attributeName="fill" values="white;white;white;white;white;white;white;white;white;white;#00FFE0;#00FFE0;#00FFE0;#00FFE0;#00FFE0;#00FFE0;#00FFE0;#00FFE0;#00FFE0;#00FFE0;#00FFE0;#00FFE0" begin="0s" dur="2s" repeatCount="0" fill="freeze" calcMode="linear" keyTimes="0;0.048;0.095;0.143;0.19;0.238;0.286;0.333;0.381;0.429;0.476;0.524;0.571;0.619;0.667;0.714;0.762;0.81;0.857;0.905;0.952;1"/></path>
</g>
</g>
</g>
</g>
</g>
</g>
</g>
<g id="Your Apprenticeship text">
<g id="Your Apprenticeship">
<path d="M90.4417 91.7766H95.0862L99.5583 100.237H99.7499L104.222 91.7766H108.867L101.713 104.476V111.421H97.5952V104.476L90.4417 91.7766Z" fill="white"/>
<path d="M114.62 111.709C113.132 111.709 111.846 111.392 110.76 110.759C109.681 110.12 108.848 109.231 108.261 108.092C107.673 106.948 107.38 105.621 107.38 104.112C107.38 102.59 107.673 101.26 108.261 100.122C108.848 98.9769 109.681 98.0881 110.76 97.455C111.846 96.8155 113.132 96.4958 114.62 96.4958C116.107 96.4958 117.39 96.8155 118.469 97.455C119.555 98.0881 120.391 98.9769 120.978 100.122C121.566 101.26 121.859 102.59 121.859 104.112C121.859 105.621 121.566 106.948 120.978 108.092C120.391 109.231 119.555 110.12 118.469 110.759C117.39 111.392 116.107 111.709 114.62 111.709ZM114.639 108.543C115.315 108.543 115.88 108.351 116.334 107.968C116.787 107.578 117.129 107.047 117.358 106.376C117.595 105.704 117.713 104.94 117.713 104.083C117.713 103.226 117.595 102.462 117.358 101.791C117.129 101.119 116.787 100.588 116.334 100.198C115.88 99.8082 115.315 99.6132 114.639 99.6132C113.956 99.6132 113.381 99.8082 112.915 100.198C112.455 100.588 112.107 101.119 111.871 101.791C111.641 102.462 111.526 103.226 111.526 104.083C111.526 104.94 111.641 105.704 111.871 106.376C112.107 107.047 112.455 107.578 112.915 107.968C113.381 108.351 113.956 108.543 114.639 108.543Z" fill="white"/>
<path d="M133.945 105.148V96.6876H138.024V111.421H134.107V108.745H133.954C133.622 109.608 133.07 110.302 132.297 110.826C131.531 111.351 130.596 111.613 129.492 111.613C128.508 111.613 127.643 111.389 126.896 110.941C126.149 110.494 125.565 109.857 125.144 109.033C124.729 108.208 124.518 107.22 124.512 106.069V96.6876H128.591V105.34C128.598 106.209 128.831 106.897 129.29 107.402C129.75 107.907 130.366 108.16 131.139 108.16C131.63 108.16 132.09 108.048 132.518 107.824C132.945 107.594 133.29 107.255 133.552 106.807C133.82 106.36 133.951 105.806 133.945 105.148Z" fill="white"/>
<path d="M141.287 111.421V96.6876H145.242V99.2583H145.395C145.664 98.3439 146.114 97.6532 146.746 97.1864C147.378 96.7132 148.106 96.4766 148.929 96.4766C149.133 96.4766 149.354 96.4894 149.59 96.515C149.826 96.5406 150.034 96.5757 150.212 96.6205V100.246C150.021 100.189 149.756 100.138 149.418 100.093C149.079 100.048 148.77 100.026 148.489 100.026C147.889 100.026 147.352 100.157 146.88 100.419C146.414 100.675 146.043 101.033 145.769 101.493C145.501 101.954 145.367 102.484 145.367 103.085V111.421H141.287Z" fill="white"/>
<path d="M162.02 111.421H157.577L164.347 91.7766H169.691L176.452 111.421H172.008L167.095 96.2656H166.942L162.02 111.421ZM161.742 103.699H172.238V106.941H161.742V103.699Z" fill="white"/>
<path d="M178.736 116.946V96.6876H182.758V99.1624H182.94C183.118 98.7659 183.377 98.363 183.715 97.9538C184.06 97.5381 184.507 97.1928 185.056 96.9179C185.611 96.6365 186.301 96.4958 187.124 96.4958C188.197 96.4958 189.187 96.7772 190.093 97.3399C191 97.8962 191.724 98.7371 192.267 99.8626C192.81 100.982 193.081 102.385 193.081 104.073C193.081 105.717 192.816 107.105 192.286 108.236C191.763 109.362 191.048 110.216 190.141 110.797C189.241 111.373 188.232 111.661 187.115 111.661C186.323 111.661 185.65 111.53 185.094 111.267C184.545 111.005 184.095 110.676 183.744 110.279C183.393 109.877 183.125 109.471 182.94 109.061H182.815V116.946H178.736ZM182.729 104.054C182.729 104.93 182.85 105.695 183.093 106.347C183.335 106.999 183.686 107.507 184.146 107.872C184.606 108.23 185.164 108.409 185.822 108.409C186.486 108.409 187.048 108.227 187.507 107.862C187.967 107.491 188.315 106.98 188.551 106.328C188.794 105.669 188.915 104.911 188.915 104.054C188.915 103.204 188.797 102.456 188.561 101.81C188.325 101.164 187.977 100.659 187.517 100.294C187.057 99.9297 186.492 99.7475 185.822 99.7475C185.158 99.7475 184.596 99.9233 184.137 100.275C183.683 100.627 183.335 101.126 183.093 101.771C182.85 102.417 182.729 103.178 182.729 104.054Z" fill="white"/>
<path d="M195.801 116.946V96.6876H199.823V99.1624H200.005C200.183 98.7659 200.442 98.363 200.78 97.9538C201.125 97.5381 201.572 97.1928 202.121 96.9179C202.676 96.6365 203.366 96.4958 204.189 96.4958C205.262 96.4958 206.252 96.7772 207.158 97.3399C208.065 97.8962 208.789 98.7371 209.332 99.8626C209.875 100.982 210.146 102.385 210.146 104.073C210.146 105.717 209.881 107.105 209.351 108.236C208.828 109.362 208.113 110.216 207.206 110.797C206.306 111.373 205.297 111.661 204.18 111.661C203.388 111.661 202.715 111.53 202.159 111.267C201.61 111.005 201.16 110.676 200.809 110.279C200.458 109.877 200.19 109.471 200.005 109.061H199.88V116.946H195.801ZM199.794 104.054C199.794 104.93 199.915 105.695 200.158 106.347C200.4 106.999 200.752 107.507 201.211 107.872C201.671 108.23 202.229 108.409 202.887 108.409C203.551 108.409 204.113 108.227 204.572 107.862C205.032 107.491 205.38 106.98 205.616 106.328C205.859 105.669 205.98 104.911 205.98 104.054C205.98 103.204 205.862 102.456 205.626 101.81C205.39 101.164 205.042 100.659 204.582 100.294C204.122 99.9297 203.557 99.7475 202.887 99.7475C202.223 99.7475 201.661 99.9233 201.202 100.275C200.748 100.627 200.4 101.126 200.158 101.771C199.915 102.417 199.794 103.178 199.794 104.054Z" fill="white"/>
<path d="M212.866 111.421V96.6876H216.821V99.2583H216.974C217.242 98.3439 217.692 97.6532 218.324 97.1864C218.956 96.7132 219.684 96.4766 220.508 96.4766C220.712 96.4766 220.932 96.4894 221.168 96.515C221.405 96.5406 221.612 96.5757 221.791 96.6205V100.246C221.599 100.189 221.334 100.138 220.996 100.093C220.658 100.048 220.348 100.026 220.067 100.026C219.467 100.026 218.931 100.157 218.458 100.419C217.992 100.675 217.622 101.033 217.347 101.493C217.079 101.954 216.945 102.484 216.945 103.085V111.421H212.866Z" fill="white"/>
<path d="M229.919 111.709C228.406 111.709 227.103 111.402 226.012 110.788C224.926 110.168 224.09 109.291 223.503 108.16C222.915 107.021 222.622 105.675 222.622 104.121C222.622 102.606 222.915 101.276 223.503 100.131C224.09 98.9865 224.917 98.0945 225.983 97.455C227.055 96.8155 228.313 96.4958 229.756 96.4958C230.726 96.4958 231.63 96.6525 232.466 96.9658C233.309 97.2728 234.043 97.7364 234.669 98.3566C235.301 98.9769 235.792 99.7571 236.143 100.697C236.494 101.631 236.67 102.724 236.67 103.978V105.1H224.249V102.568H232.83C232.83 101.979 232.702 101.458 232.447 101.004C232.191 100.55 231.837 100.195 231.384 99.9393C230.937 99.6771 230.417 99.5461 229.823 99.5461C229.204 99.5461 228.655 99.6899 228.176 99.9777C227.703 100.259 227.333 100.64 227.065 101.119C226.797 101.592 226.66 102.12 226.653 102.702V105.109C226.653 105.838 226.787 106.468 227.055 106.999C227.33 107.53 227.716 107.939 228.214 108.227C228.712 108.515 229.303 108.658 229.986 108.658C230.439 108.658 230.854 108.594 231.231 108.467C231.607 108.339 231.93 108.147 232.198 107.891C232.466 107.635 232.67 107.322 232.811 106.951L236.584 107.2C236.392 108.108 236 108.901 235.406 109.579C234.819 110.251 234.059 110.775 233.127 111.152C232.201 111.523 231.132 111.709 229.919 111.709Z" fill="white"/>
<path d="M243.412 102.903V111.421H239.332V96.6876H243.22V99.2871H243.393C243.718 98.4302 244.264 97.7524 245.03 97.2536C245.796 96.7484 246.725 96.4958 247.817 96.4958C248.838 96.4958 249.729 96.7196 250.489 97.1672C251.248 97.6149 251.839 98.2543 252.26 99.0856C252.682 99.9105 252.892 100.895 252.892 102.04V111.421H248.813V102.769C248.819 101.867 248.589 101.164 248.123 100.659C247.657 100.147 247.016 99.8914 246.198 99.8914C245.649 99.8914 245.164 100.01 244.743 100.246C244.328 100.483 244.002 100.828 243.766 101.282C243.536 101.73 243.418 102.27 243.412 102.903Z" fill="white"/>
<path d="M263.931 96.6876V99.7571H255.073V96.6876H263.931ZM257.084 93.1578H261.164V106.894C261.164 107.271 261.221 107.565 261.336 107.776C261.451 107.981 261.611 108.124 261.815 108.208C262.026 108.291 262.268 108.332 262.543 108.332C262.734 108.332 262.926 108.316 263.117 108.284C263.309 108.246 263.456 108.217 263.558 108.198L264.2 111.239C263.995 111.303 263.708 111.376 263.338 111.459C262.967 111.549 262.517 111.603 261.987 111.622C261.004 111.661 260.142 111.53 259.402 111.229C258.668 110.929 258.096 110.462 257.688 109.829C257.279 109.196 257.078 108.396 257.084 107.431V93.1578Z" fill="white"/>
<path d="M266.589 111.421V96.6876H270.668V111.421H266.589ZM268.638 94.7884C268.032 94.7884 267.511 94.587 267.077 94.1841C266.65 93.7749 266.436 93.2857 266.436 92.7166C266.436 92.1538 266.65 91.671 267.077 91.2682C267.511 90.8589 268.032 90.6543 268.638 90.6543C269.245 90.6543 269.762 90.8589 270.19 91.2682C270.624 91.671 270.841 92.1538 270.841 92.7166C270.841 93.2857 270.624 93.7749 270.19 94.1841C269.762 94.587 269.245 94.7884 268.638 94.7884Z" fill="white"/>
<path d="M280.582 111.709C279.076 111.709 277.78 111.389 276.694 110.749C275.615 110.104 274.785 109.208 274.204 108.064C273.63 106.919 273.343 105.602 273.343 104.112C273.343 102.603 273.633 101.279 274.214 100.141C274.801 98.9961 275.635 98.1041 276.713 97.4646C277.792 96.8187 279.076 96.4958 280.563 96.4958C281.846 96.4958 282.97 96.7292 283.934 97.196C284.898 97.6628 285.661 98.3183 286.223 99.1624C286.785 100.006 287.094 100.998 287.152 102.136H283.302C283.193 101.401 282.906 100.809 282.44 100.361C281.98 99.9074 281.377 99.6803 280.63 99.6803C279.998 99.6803 279.446 99.853 278.973 100.198C278.507 100.537 278.144 101.033 277.882 101.685C277.62 102.337 277.489 103.127 277.489 104.054C277.489 104.994 277.617 105.794 277.872 106.452C278.134 107.111 278.501 107.613 278.973 107.958C279.446 108.304 279.998 108.476 280.63 108.476C281.096 108.476 281.514 108.38 281.885 108.188C282.261 107.997 282.571 107.718 282.814 107.354C283.063 106.983 283.225 106.539 283.302 106.021H287.152C287.088 107.146 286.781 108.137 286.232 108.994C285.69 109.845 284.94 110.51 283.982 110.989C283.024 111.469 281.891 111.709 280.582 111.709Z" fill="white"/>
<path d="M296.467 111.709C294.954 111.709 293.652 111.402 292.56 110.788C291.475 110.168 290.638 109.291 290.051 108.16C289.464 107.021 289.17 105.675 289.17 104.121C289.17 102.606 289.464 101.276 290.051 100.131C290.638 98.9865 291.465 98.0945 292.531 97.455C293.604 96.8155 294.861 96.4958 296.304 96.4958C297.275 96.4958 298.178 96.6525 299.014 96.9658C299.857 97.2728 300.591 97.7364 301.217 98.3566C301.849 98.9769 302.341 99.7571 302.692 100.697C303.043 101.631 303.218 102.724 303.218 103.978V105.1H290.798V102.568H299.378C299.378 101.979 299.251 101.458 298.995 101.004C298.74 100.55 298.386 100.195 297.932 99.9393C297.485 99.6771 296.965 99.5461 296.371 99.5461C295.752 99.5461 295.203 99.6899 294.724 99.9777C294.252 100.259 293.881 100.64 293.613 101.119C293.345 101.592 293.208 102.12 293.202 102.702V105.109C293.202 105.838 293.336 106.468 293.604 106.999C293.878 107.53 294.265 107.939 294.762 108.227C295.26 108.515 295.851 108.658 296.534 108.658C296.987 108.658 297.402 108.594 297.779 108.467C298.156 108.339 298.478 108.147 298.746 107.891C299.014 107.635 299.219 107.322 299.359 106.951L303.132 107.2C302.941 108.108 302.548 108.901 301.954 109.579C301.367 110.251 300.607 110.775 299.675 111.152C298.749 111.523 297.68 111.709 296.467 111.709Z" fill="white"/>
<path d="M318.119 100.889L314.384 101.119C314.321 100.799 314.183 100.512 313.973 100.256C313.762 99.9937 313.484 99.7859 313.139 99.6324C312.801 99.4725 312.396 99.3926 311.923 99.3926C311.291 99.3926 310.758 99.5269 310.324 99.7954C309.89 100.058 309.673 100.409 309.673 100.851C309.673 101.202 309.813 101.5 310.094 101.743C310.375 101.986 310.857 102.181 311.54 102.328L314.202 102.865C315.633 103.159 316.699 103.632 317.401 104.284C318.103 104.937 318.454 105.794 318.454 106.855C318.454 107.821 318.17 108.668 317.602 109.397C317.04 110.126 316.268 110.695 315.285 111.104C314.308 111.507 313.181 111.709 311.904 111.709C309.957 111.709 308.406 111.303 307.25 110.49C306.101 109.672 305.427 108.559 305.229 107.152L309.242 106.941C309.363 107.536 309.657 107.99 310.123 108.304C310.589 108.61 311.186 108.764 311.914 108.764C312.629 108.764 313.203 108.626 313.637 108.351C314.078 108.07 314.301 107.709 314.308 107.268C314.301 106.897 314.145 106.593 313.839 106.356C313.532 106.113 313.06 105.928 312.421 105.8L309.874 105.292C308.437 105.004 307.368 104.505 306.666 103.795C305.97 103.085 305.622 102.181 305.622 101.081C305.622 100.134 305.877 99.319 306.388 98.6348C306.905 97.9506 307.63 97.423 308.562 97.0521C309.5 96.6813 310.599 96.4958 311.856 96.4958C313.714 96.4958 315.176 96.8891 316.242 97.6756C317.315 98.4622 317.94 99.5333 318.119 100.889Z" fill="white"/>
<path d="M325.103 102.903V111.421H321.023V91.7766H324.988V99.2871H325.16C325.492 98.4174 326.028 97.7364 326.769 97.244C327.51 96.7452 328.438 96.4958 329.556 96.4958C330.577 96.4958 331.468 96.7196 332.228 97.1672C332.994 97.6085 333.587 98.2447 334.009 99.076C334.436 99.901 334.647 100.889 334.641 102.04V111.421H330.561V102.769C330.568 101.861 330.338 101.154 329.872 100.649C329.412 100.144 328.767 99.8914 327.937 99.8914C327.382 99.8914 326.89 100.01 326.463 100.246C326.041 100.483 325.709 100.828 325.467 101.282C325.23 101.73 325.109 102.27 325.103 102.903Z" fill="white"/>
<path d="M337.851 111.421V96.6876H341.931V111.421H337.851ZM339.901 94.7884C339.294 94.7884 338.774 94.587 338.34 94.1841C337.912 93.7749 337.698 93.2857 337.698 92.7166C337.698 92.1538 337.912 91.671 338.34 91.2682C338.774 90.8589 339.294 90.6543 339.901 90.6543C340.507 90.6543 341.024 90.8589 341.452 91.2682C341.886 91.671 342.103 92.1538 342.103 92.7166C342.103 93.2857 341.886 93.7749 341.452 94.1841C341.024 94.587 340.507 94.7884 339.901 94.7884Z" fill="white"/>
<path d="M345.199 116.946V96.6876H349.221V99.1624H349.403C349.581 98.7659 349.84 98.363 350.178 97.9538C350.523 97.5381 350.97 97.1928 351.519 96.9179C352.074 96.6365 352.764 96.4958 353.588 96.4958C354.66 96.4958 355.65 96.7772 356.556 97.3399C357.463 97.8962 358.187 98.7371 358.73 99.8626C359.273 100.982 359.544 102.385 359.544 104.073C359.544 105.717 359.279 107.105 358.749 108.236C358.226 109.362 357.511 110.216 356.604 110.797C355.704 111.373 354.695 111.661 353.578 111.661C352.786 111.661 352.113 111.53 351.557 111.267C351.008 111.005 350.558 110.676 350.207 110.279C349.856 109.877 349.588 109.471 349.403 109.061H349.278V116.946H345.199ZM349.192 104.054C349.192 104.93 349.313 105.695 349.556 106.347C349.799 106.999 350.15 107.507 350.609 107.872C351.069 108.23 351.628 108.409 352.285 108.409C352.949 108.409 353.511 108.227 353.971 107.862C354.43 107.491 354.778 106.98 355.014 106.328C355.257 105.669 355.378 104.911 355.378 104.054C355.378 103.204 355.26 102.456 355.024 101.81C354.788 101.164 354.44 100.659 353.98 100.294C353.521 99.9297 352.956 99.7475 352.285 99.7475C351.621 99.7475 351.059 99.9233 350.6 100.275C350.146 100.627 349.799 101.126 349.556 101.771C349.313 102.417 349.192 103.178 349.192 104.054Z" fill="white"/>
</g>
</g>
</g>
</svg>