<svg width="18" height="16" viewBox="0 0 18 16" fill="none" xmlns="http://www.w3.org/2000/svg">
    <path d="M7.98028 14.687C7.73916 14.9281 7.41219 15.0635 7.07126 15.0635C6.73033 15.0635 6.40336 14.9281 6.16225 14.687L0.376446 8.90123C0.135407 8.66012 5.88384e-07 8.33314 6.18189e-07 7.99221C6.47994e-07 7.65128 0.135407 7.32431 0.376446 7.0832L6.16225 1.2974C6.40474 1.06319 6.72952 0.933596 7.06664 0.936525C7.40375 0.939455 7.72623 1.07467 7.96461 1.31306C8.203 1.55145 8.33822 1.87392 8.34115 2.21104C8.34408 2.54815 8.21448 2.87293 7.98028 3.11542L4.49979 6.70648L16.7143 6.70648C17.0553 6.70648 17.3823 6.84194 17.6234 7.08306C17.8645 7.32419 18 7.65122 18 7.99221C18 8.33321 17.8645 8.66024 17.6234 8.90137C17.3823 9.14249 17.0553 9.27795 16.7143 9.27795L4.49979 9.27795L7.98028 12.869C8.22131 13.1101 8.35672 13.4371 8.35672 13.778C8.35672 14.1189 8.22131 14.4459 7.98028 14.687Z" fill="#00703C"/>
</svg>
