<svg width="16" height="16" viewBox="0 0 16 16" fill="none" xmlns="http://www.w3.org/2000/svg">
<path d="M14.292 7.77467L8.16535 13.9013C7.41479 14.6519 6.39681 15.0736 5.33535 15.0736C4.2739 15.0736 3.25592 14.6519 2.50535 13.9013C1.75479 13.1508 1.33313 12.1328 1.33313 11.0713C1.33313 10.0099 1.75479 8.9919 2.50535 8.24133L8.63202 2.11467C9.1324 1.61429 9.81105 1.33318 10.5187 1.33318C11.2263 1.33318 11.905 1.61429 12.4054 2.11467C12.9057 2.61504 13.1868 3.2937 13.1868 4.00133C13.1868 4.70897 12.9057 5.38762 12.4054 5.888L6.27202 12.0147C6.14814 12.1385 6.00107 12.2368 5.83922 12.3039C5.67736 12.3709 5.50388 12.4054 5.32869 12.4054C5.15349 12.4054 4.98002 12.3709 4.81816 12.3039C4.6563 12.2368 4.50923 12.1385 4.38535 12.0147C4.26147 11.8908 4.16321 11.7437 4.09616 11.5819C4.02912 11.42 3.99461 11.2465 3.99461 11.0713C3.99461 10.8961 4.02912 10.7227 4.09616 10.5608C4.16321 10.3989 4.26147 10.2519 4.38535 10.128L10.0454 4.47467" stroke="#6B6B6B" stroke-linecap="round" stroke-linejoin="round"/>
</svg>
