<svg width="19" height="18" viewBox="0 0 19 18" fill="none" xmlns="http://www.w3.org/2000/svg">
<path d="M7 11L7.986 11.164C8.00981 11.0208 8.00215 10.8741 7.96357 10.7342C7.92499 10.5943 7.8564 10.4644 7.76258 10.3536C7.66875 10.2429 7.55194 10.1539 7.42025 10.0928C7.28856 10.0317 7.14516 10.0001 7 10L7 11ZM18 11L18 12C18.2652 12 18.5196 11.8946 18.7071 11.7071C18.8946 11.5196 19 11.2652 19 11L18 11ZM16 -2.62268e-07L4.64 -1.25539e-06L4.64 2L16 2L16 -2.62268e-07ZM3.44 12L7 12L7 10L3.44 10L3.44 12ZM6.013 10.836L5.208 15.671L7.18 16L7.986 11.164L6.013 10.836ZM7.18 18L7.394 18L7.394 16L7.18 16L7.18 18ZM10.723 16.219L13.237 12.445L11.573 11.335L9.057 15.109L10.723 16.219ZM14.07 12L18 12L18 10L14.07 10L14.07 12ZM19 11L19 3L17 3L17 11L19 11ZM1.698 2.412L0.498 8.412L2.458 8.804L3.658 2.804L1.698 2.412ZM13.237 12.445C13.3283 12.3081 13.4531 12.1958 13.5982 12.1182C13.7434 12.0406 13.9054 12 14.07 12L14.07 10C13.5761 10 13.0899 10.122 12.6545 10.3551C12.2191 10.5881 11.8479 10.9251 11.574 11.336L13.237 12.445ZM5.208 15.671C5.16023 15.9575 5.17541 16.2509 5.2525 16.5309C5.32959 16.8109 5.46674 17.0707 5.6544 17.2924C5.84207 17.514 6.07575 17.6921 6.33921 17.8143C6.60267 17.9365 6.88958 17.9999 7.18 18L7.18 16L5.208 15.671ZM3.44 10C3.29203 10.0001 3.14588 9.96728 3.01211 9.90402C2.87834 9.84076 2.76027 9.7486 2.66643 9.63419C2.57258 9.51977 2.5053 9.38596 2.46943 9.2424C2.43356 9.09884 2.429 8.9491 2.458 8.804L0.498 8.412C0.411023 8.84715 0.421666 9.29618 0.529162 9.72672C0.636658 10.1573 0.83833 10.5586 1.11964 10.9018C1.40095 11.245 1.7549 11.5215 2.15597 11.7114C2.55704 11.9013 2.99524 11.9999 3.439 12L3.44 10ZM4.64 -1.25539e-06C3.94638 -4.5185e-05 3.27418 0.240264 2.73778 0.680026C2.20139 1.11979 1.83395 1.73183 1.698 2.412L3.658 2.804C3.70336 2.57705 3.82604 2.37286 4.00511 2.22625C4.18418 2.07964 4.40857 1.99968 4.64 2L4.64 -1.25539e-06ZM7.394 18C8.05246 18 8.70073 17.8374 9.28129 17.5267C9.86184 17.2161 10.3577 16.7668 10.723 16.219L9.057 15.109C8.87442 15.383 8.628 15.6077 8.33772 15.7631C8.04744 15.9186 7.72328 15.9999 7.394 16L7.394 18ZM16 2C16.2652 2 16.5196 2.10536 16.7071 2.29289C16.8946 2.48043 17 2.73478 17 3L19 3C19 2.20435 18.6839 1.44129 18.1213 0.878679C17.5587 0.31607 16.7957 -1.9271e-07 16 -2.62268e-07L16 2Z" fill="#00703C"/>
</svg>
