<svg width="24" height="24" viewBox="0 0 24 24" fill="none" xmlns="http://www.w3.org/2000/svg">
<path fill-rule="evenodd" clip-rule="evenodd" d="M18.9079 13.7178C19.2289 13.7178 19.5368 13.8454 19.7639 14.0724C19.9909 14.2994 20.1184 14.6073 20.1184 14.9284V17.3494H22.5395C22.8605 17.3494 23.1684 17.4769 23.3954 17.704C23.6225 17.931 23.75 18.2389 23.75 18.5599C23.75 18.881 23.6225 19.1889 23.3954 19.4159C23.1684 19.6429 22.8605 19.7705 22.5395 19.7705H20.1184V22.1915C20.1184 22.5126 19.9909 22.8205 19.7639 23.0475C19.5368 23.2745 19.2289 23.402 18.9079 23.402C18.5868 23.402 18.2789 23.2745 18.0519 23.0475C17.8249 22.8205 17.6974 22.5126 17.6974 22.1915V19.7705H15.2763C14.9553 19.7705 14.6474 19.6429 14.4203 19.4159C14.1933 19.1889 14.0658 18.881 14.0658 18.5599C14.0658 18.2389 14.1933 17.931 14.4203 17.704C14.6474 17.4769 14.9553 17.3494 15.2763 17.3494H17.6974V14.9284C17.6974 14.6073 17.8249 14.2994 18.0519 14.0724C18.2789 13.8454 18.5868 13.7178 18.9079 13.7178ZM16.4868 0.402039C16.8079 0.402039 17.1158 0.529576 17.3428 0.756593C17.5698 0.983611 17.6974 1.29151 17.6974 1.61257V2.82309H20.1184C20.7605 2.82309 21.3763 3.07817 21.8304 3.5322C22.2844 3.98624 22.5395 4.60204 22.5395 5.24414V10.0863C22.5395 10.4073 22.4119 10.7152 22.1849 10.9422C21.9579 11.1692 21.65 11.2968 21.3289 11.2968H3.17105V19.7705H10.4342C10.7553 19.7705 11.0632 19.898 11.2902 20.125C11.5172 20.352 11.6447 20.6599 11.6447 20.981C11.6447 21.302 11.5172 21.6099 11.2902 21.837C11.0632 22.064 10.7553 22.1915 10.4342 22.1915H3.17105C2.52895 22.1915 1.91315 21.9364 1.45911 21.4824C1.00507 21.0284 0.75 20.4126 0.75 19.7705V5.24414C0.75 4.60204 1.00507 3.98624 1.45911 3.5322C1.91315 3.07817 2.52895 2.82309 3.17105 2.82309H5.59211V1.61257C5.59211 1.29151 5.71964 0.983611 5.94666 0.756593C6.17368 0.529576 6.48158 0.402039 6.80263 0.402039C7.12368 0.402039 7.43159 0.529576 7.6586 0.756593C7.88562 0.983611 8.01316 1.29151 8.01316 1.61257V2.82309H15.2763V1.61257C15.2763 1.29151 15.4039 0.983611 15.6309 0.756593C15.8579 0.529576 16.1658 0.402039 16.4868 0.402039ZM20.1184 5.24414H3.17105V8.87572H20.1184V5.24414Z" fill="#00703C"/>
</svg>
