<svg width="22" height="25" viewBox="0 0 22 25" fill="none" xmlns="http://www.w3.org/2000/svg">
<path d="M10.4167 24.5558V20.6558C4.98925 20.3741 0.666748 15.8675 0.666748 10.375C0.666748 4.69831 5.28175 0.083313 10.9584 0.083313C16.6351 0.083313 21.2501 4.69831 21.2501 10.375C21.2501 15.7375 17.5234 21.1325 11.9659 23.8083L10.4167 24.5558ZM10.9584 2.24998C6.47341 2.24998 2.83341 5.88998 2.83341 10.375C2.83341 14.86 6.47341 18.5 10.9584 18.5H12.5834V20.9916C16.5267 18.5 19.0834 14.405 19.0834 10.375C19.0834 5.88998 15.4434 2.24998 10.9584 2.24998ZM9.87508 14.7083H12.0417V16.875H9.87508V14.7083ZM12.0417 13.0833H9.87508C9.87508 9.56248 13.1251 9.83331 13.1251 7.66665C13.1251 6.47498 12.1501 5.49998 10.9584 5.49998C9.76675 5.49998 8.79175 6.47498 8.79175 7.66665H6.62508C6.62508 5.27248 8.56425 3.33331 10.9584 3.33331C13.3526 3.33331 15.2917 5.27248 15.2917 7.66665C15.2917 10.375 12.0417 10.6458 12.0417 13.0833Z" fill="#00703C"/>
</svg>
