<svg width="21" height="25" viewBox="0 0 21 25" fill="none" xmlns="http://www.w3.org/2000/svg">
<path d="M8.5 22.125H13C13 23.3625 11.9875 24.375 10.75 24.375C9.5125 24.375 8.5 23.3625 8.5 22.125ZM20.875 19.875V21H0.625V19.875L2.875 17.625V10.875C2.875 7.3875 5.125 4.35 8.5 3.3375V3C8.5 1.7625 9.5125 0.75 10.75 0.75C11.9875 0.75 13 1.7625 13 3V3.3375C16.375 4.35 18.625 7.3875 18.625 10.875V17.625L20.875 19.875ZM16.375 10.875C16.375 7.725 13.9 5.25 10.75 5.25C7.6 5.25 5.125 7.725 5.125 10.875V18.75H16.375V10.875Z" fill="#00703C"/>
</svg>
