<svg width="24" height="24" viewBox="0 0 24 24" fill="none" xmlns="http://www.w3.org/2000/svg">
<path opacity="0.16" d="M15.5 15.5H8.49998C7.49512 15.5001 6.51711 15.8244 5.71126 16.4247C4.90541 17.025 4.31473 17.8692 4.02698 18.832C5.01166 19.9836 6.23441 20.9078 7.61089 21.5411C8.98736 22.1744 10.4848 22.5015 12 22.5C13.5151 22.5015 15.0126 22.1744 16.3891 21.5411C17.7655 20.9078 18.9883 19.9836 19.973 18.832C19.6852 17.8692 19.0945 17.025 18.2887 16.4247C17.4828 15.8244 16.5048 15.5001 15.5 15.5Z" fill="#00703C"/>
<path d="M22.5 12C22.5035 14.0846 21.8835 16.1225 20.7197 17.852C19.7599 19.2835 18.4623 20.4564 16.9414 21.267C15.4206 22.0777 13.7234 22.5012 12 22.5C10.2766 22.5012 8.57943 22.0777 7.05859 21.267C5.53775 20.4564 4.24009 19.2835 3.28033 17.852C2.36652 16.4898 1.78455 14.9325 1.58109 13.3049C1.37763 11.6772 1.55833 10.0246 2.10871 8.47934C2.65908 6.93412 3.56383 5.53935 4.75041 4.40682C5.937 3.27429 7.37241 2.43552 8.94159 1.95774C10.5108 1.47995 12.1701 1.37645 13.7865 1.65553C15.4028 1.93461 16.9314 2.5885 18.2495 3.5648C19.5676 4.54109 20.6387 5.81262 21.3768 7.27746C22.1149 8.7423 22.4996 10.3597 22.5 12Z" stroke="#00703C" stroke-width="2"/>
<path d="M13.1666 8.5C13.1666 8.80942 13.0437 9.10617 12.8249 9.32496C12.6061 9.54375 12.3094 9.66667 12 9.66667V12C12.9282 12 13.8185 11.6313 14.4748 10.9749C15.1312 10.3185 15.5 9.42826 15.5 8.5H13.1666ZM12 9.66667C11.6905 9.66667 11.3938 9.54375 11.175 9.32496C10.9562 9.10617 10.8333 8.80942 10.8333 8.5H8.49996C8.49996 9.42826 8.86871 10.3185 9.52509 10.9749C10.1815 11.6313 11.0717 12 12 12V9.66667ZM10.8333 8.5C10.8333 8.19058 10.9562 7.89383 11.175 7.67504C11.3938 7.45625 11.6905 7.33333 12 7.33333V5C11.0717 5 10.1815 5.36875 9.52509 6.02513C8.86871 6.6815 8.49996 7.57174 8.49996 8.5H10.8333ZM12 7.33333C12.3094 7.33333 12.6061 7.45625 12.8249 7.67504C13.0437 7.89383 13.1666 8.19058 13.1666 8.5H15.5C15.5 7.57174 15.1312 6.6815 14.4748 6.02513C13.8185 5.36875 12.9282 5 12 5V7.33333ZM4.02696 18.832L2.90813 18.4995L2.72729 19.1097L3.14146 19.5915L4.02696 18.832ZM19.973 18.832L20.8596 19.5915L21.2726 19.1097L21.0918 18.4995L19.973 18.832ZM8.49996 16.6667H15.5V14.3333H8.49996V16.6667ZM8.49996 14.3333C7.24362 14.3333 6.02081 14.7388 5.01335 15.4894C4.00588 16.24 3.26755 17.2957 2.90813 18.4995L5.14463 19.1645C5.36076 18.4426 5.80397 17.8096 6.40844 17.3596C7.01291 16.9097 7.74639 16.6666 8.49996 16.6667V14.3333ZM12 21.3333C10.653 21.3349 9.32181 21.0441 8.09817 20.4811C6.87454 19.9181 5.78763 19.0964 4.91246 18.0725L3.14146 19.5915C4.23566 20.8708 5.59424 21.8975 7.12357 22.6011C8.65289 23.3046 10.3166 23.6682 12 23.6667V21.3333ZM15.5 16.6667C17.0831 16.6667 18.4236 17.719 18.8553 19.1657L21.0918 18.4995C20.7324 17.2959 19.9931 16.2403 18.9859 15.4897C17.9786 14.7391 16.7561 14.3336 15.5 14.3333V16.6667ZM19.0875 18.0725C18.2123 19.0964 17.1254 19.9181 15.9018 20.4811C14.6781 21.0441 13.3469 21.3349 12 21.3333V23.6667C13.6833 23.6682 15.347 23.3046 16.8764 22.6011C18.4057 21.8975 19.7654 20.8708 20.8596 19.5915L19.0875 18.0725Z" fill="#00703C"/>
</svg>
