<svg width="32" height="33" viewBox="0 0 32 33" fill="none" xmlns="http://www.w3.org/2000/svg">
<g id="Icons" clip-path="url(#clip0_5220_60272)">
<path id="Vector" d="M15.1666 31.4382V27.4346V26.9599L14.6925 26.9353C8.27719 26.6023 3.16663 21.2741 3.16663 14.7812C3.16663 8.07073 8.62277 2.61458 15.3333 2.61458C22.0438 2.61458 27.5 8.07073 27.5 14.7812C27.5 21.156 23.0553 27.6387 16.3564 30.8641L16.356 30.8643L15.1666 31.4382ZM15.3333 25.2812H16.8333V27.8479V28.7553L17.6004 28.2706C22.5664 25.1328 25.8333 19.9478 25.8333 14.7812C25.8333 8.98511 21.1294 4.28125 15.3333 4.28125C9.53715 4.28125 4.83329 8.98511 4.83329 14.7812C4.83329 20.5774 9.53715 25.2812 15.3333 25.2812ZM16.1666 20.6146V22.2812H14.5V20.6146H16.1666ZM16.2005 17.6146H14.5204C14.5834 16.8732 14.786 16.3196 15.0528 15.8786C15.381 15.3361 15.8247 14.9327 16.3103 14.5483C16.4156 14.465 16.526 14.3804 16.6388 14.294C17.02 14.0021 17.427 13.6904 17.7445 13.342C18.1852 12.8585 18.5 12.2639 18.5 11.4479C18.5 9.70511 17.0761 8.28125 15.3333 8.28125C13.7605 8.28125 12.4475 9.44081 12.2063 10.9479H10.5255C10.7755 8.51256 12.8316 6.61458 15.3333 6.61458C18.0038 6.61458 20.1666 8.77739 20.1666 11.4479C20.1666 12.8675 19.3434 13.6497 18.3374 14.53C18.2988 14.5637 18.2599 14.5976 18.2207 14.6318C17.3751 15.3691 16.3936 16.2248 16.2005 17.6146Z" fill="url(#paint0_radial_5220_60272)" stroke="url(#paint1_radial_5220_60272)"/>
</g>
<defs>
<radialGradient id="paint0_radial_5220_60272" cx="0" cy="0" r="1" gradientUnits="userSpaceOnUse" gradientTransform="translate(2.66663 2.11458) rotate(48.5474) scale(40.1866 311.811)">
<stop stop-color="#832C91"/>
<stop offset="0.524427" stop-color="#AB000F"/>
<stop offset="1" stop-color="#A65C2E"/>
</radialGradient>
<radialGradient id="paint1_radial_5220_60272" cx="0" cy="0" r="1" gradientUnits="userSpaceOnUse" gradientTransform="translate(2.66663 2.11458) rotate(48.5474) scale(40.1866 311.811)">
<stop stop-color="#832C91"/>
<stop offset="0.524427" stop-color="#AB000F"/>
<stop offset="1" stop-color="#A65C2E"/>
</radialGradient>
<clipPath id="clip0_5220_60272">
<rect width="32" height="32" fill="white" transform="translate(0 0.78125)"/>
</clipPath>
</defs>
</svg>
