<svg width="24" height="24" viewBox="0 0 24 24" fill="none" xmlns="http://www.w3.org/2000/svg">
<path d="M20.9375 12.6175V11.3744L22.4975 10.0094C22.7851 9.75594 22.9738 9.40898 23.0303 9.02985C23.0868 8.65072 23.0074 8.26381 22.8063 7.93752L20.8888 4.68752C20.7463 4.44074 20.5414 4.23576 20.2947 4.09315C20.048 3.95054 19.7681 3.87532 19.4831 3.87502C19.3065 3.87367 19.1309 3.90112 18.9631 3.95627L16.9888 4.62252C16.6479 4.39601 16.2923 4.19243 15.9244 4.01315L15.51 1.96565C15.4357 1.59158 15.2322 1.25556 14.9351 1.01641C14.6381 0.777258 14.2663 0.650218 13.885 0.657525H10.0825C9.70121 0.650218 9.32948 0.777258 9.0324 1.01641C8.73532 1.25556 8.53182 1.59158 8.45752 1.96565L8.04315 4.01315C7.67259 4.19239 7.31431 4.39596 6.97065 4.62252L5.0369 3.92377C4.86733 3.87959 4.69173 3.86313 4.5169 3.87502C4.23193 3.87532 3.95206 3.95054 3.70534 4.09315C3.45863 4.23576 3.25375 4.44074 3.11127 4.68752L1.19377 7.93752C1.00412 8.26333 0.933652 8.64493 0.994425 9.01698C1.0552 9.38903 1.24343 9.72838 1.5269 9.9769L3.06252 11.3825V12.6256L1.5269 13.9906C1.23543 14.2409 1.04204 14.5863 0.981058 14.9656C0.920075 15.3449 0.995437 15.7335 1.19377 16.0625L3.11127 19.3125C3.25375 19.5593 3.45863 19.7643 3.70534 19.9069C3.95206 20.0495 4.23193 20.1247 4.5169 20.125C4.69349 20.1264 4.86913 20.0989 5.0369 20.0438L7.01127 19.3775C7.35215 19.604 7.70773 19.8076 8.07565 19.9869L8.49002 22.0344C8.56432 22.4085 8.76782 22.7445 9.0649 22.9836C9.36198 23.2228 9.73371 23.3498 10.115 23.3425H13.95C14.3313 23.3498 14.7031 23.2228 15.0001 22.9836C15.2972 22.7445 15.5007 22.4085 15.575 22.0344L15.9894 19.9869C16.36 19.8077 16.7182 19.6041 17.0619 19.3775L19.0281 20.0438C19.1959 20.0989 19.3715 20.1264 19.5481 20.125C19.8331 20.1247 20.113 20.0495 20.3597 19.9069C20.6064 19.7643 20.8113 19.5593 20.9538 19.3125L22.8063 16.0625C22.9959 15.7367 23.0664 15.3551 23.0056 14.9831C22.9448 14.611 22.7566 14.2717 22.4731 14.0231L20.9375 12.6175ZM19.4831 18.5L16.6963 17.5575C16.0439 18.1101 15.2983 18.5421 14.4944 18.8331L13.9175 21.75H10.0825L9.50565 18.8656C8.70812 18.5663 7.96654 18.1351 7.3119 17.59L4.5169 18.5L2.5994 15.25L4.8094 13.3C4.65916 12.459 4.65916 11.598 4.8094 10.7569L2.5994 8.75002L4.5169 5.50002L7.30377 6.44252C7.95616 5.88994 8.70176 5.45798 9.50565 5.1669L10.0825 2.25003H13.9175L14.4944 5.1344C15.2919 5.43374 16.0335 5.86495 16.6881 6.41002L19.4831 5.50002L21.4006 8.75002L19.1906 10.7C19.3409 11.5411 19.3409 12.4021 19.1906 13.2431L21.4006 15.25L19.4831 18.5Z" fill="#00703C" stroke="#00703C" stroke-width="0.5"/>
</svg>
