<svg width="19" height="23" viewBox="0 0 19 23" fill="none" xmlns="http://www.w3.org/2000/svg">
<path d="M3.2251 9.75C3.12564 9.75 3.03026 9.78951 2.95993 9.85984C2.88961 9.93016 2.8501 10.0255 2.8501 10.125V19.875C2.8501 20.082 3.0181 20.25 3.2251 20.25H15.9751C16.0746 20.25 16.1699 20.2105 16.2403 20.1402C16.3106 20.0698 16.3501 19.9745 16.3501 19.875V10.125C16.3501 10.0255 16.3106 9.93016 16.2403 9.85984C16.1699 9.78951 16.0746 9.75 15.9751 9.75H14.4751C14.1767 9.75 13.8906 9.63148 13.6796 9.4205C13.4686 9.20952 13.3501 8.92337 13.3501 8.625C13.3501 8.32664 13.4686 8.04049 13.6796 7.82951C13.8906 7.61853 14.1767 7.5 14.4751 7.5H15.9751C17.4241 7.5 18.6001 8.676 18.6001 10.125V19.875C18.6001 20.5712 18.3235 21.2389 17.8313 21.7312C17.339 22.2234 16.6713 22.5 15.9751 22.5H3.2251C2.5289 22.5 1.86123 22.2234 1.36894 21.7312C0.87666 21.2389 0.600098 20.5712 0.600098 19.875V10.125C0.600098 8.676 1.7761 7.5 3.2251 7.5H4.7251C5.02347 7.5 5.30961 7.61853 5.52059 7.82951C5.73157 8.04049 5.8501 8.32664 5.8501 8.625C5.8501 8.92337 5.73157 9.20952 5.52059 9.4205C5.30961 9.63148 5.02347 9.75 4.7251 9.75H3.2251ZM9.3346 0.265505C9.36943 0.230582 9.41081 0.202875 9.45637 0.18397C9.50193 0.165066 9.55077 0.155334 9.6001 0.155334C9.64942 0.155334 9.69826 0.165066 9.74382 0.18397C9.78938 0.202875 9.83076 0.230582 9.8656 0.265505L14.2096 4.6095C14.2622 4.66195 14.298 4.72883 14.3125 4.80166C14.3271 4.87449 14.3196 4.95 14.2912 5.0186C14.2627 5.08721 14.2146 5.14582 14.1528 5.18702C14.091 5.22822 14.0184 5.25014 13.9441 5.25H10.7251V13.875C10.7251 14.1734 10.6066 14.4595 10.3956 14.6705C10.1846 14.8815 9.89847 15 9.6001 15C9.30173 15 9.01558 14.8815 8.8046 14.6705C8.59362 14.4595 8.4751 14.1734 8.4751 13.875V5.25H5.2561C5.18183 5.25014 5.1092 5.22822 5.04741 5.18702C4.98562 5.14582 4.93745 5.08721 4.90901 5.0186C4.88057 4.95 4.87314 4.87449 4.88767 4.80166C4.90219 4.72883 4.93802 4.66195 4.9906 4.6095L9.3346 0.265505Z" fill="#00703C"/>
</svg>
